%FSDAX23Y23*%
%MOIN*%
%SFA1B1*%

%IPPOS*%
%AMD19*
4,1,8,0.022600,0.045300,-0.022600,0.045300,-0.045300,0.022600,-0.045300,-0.022600,-0.022600,-0.045300,0.022600,-0.045300,0.045300,-0.022600,0.045300,0.022600,0.022600,0.045300,0.0*
1,1,0.045280,0.022600,0.022600*
1,1,0.045280,-0.022600,0.022600*
1,1,0.045280,-0.022600,-0.022600*
1,1,0.045280,0.022600,-0.022600*
%
%ADD10C,0.010000*%
%ADD14C,0.008000*%
%ADD15C,0.031500*%
%ADD16C,0.015750*%
%ADD17C,0.015000*%
%ADD18C,0.090550*%
G04~CAMADD=19~8~0.0~0.0~905.5~905.5~226.4~0.0~15~0.0~0.0~0.0~0.0~0~0.0~0.0~0.0~0.0~0~0.0~0.0~0.0~0.0~905.5~905.5*
%ADD19D19*%
%ADD20R,0.090550X0.090550*%
%ADD21O,0.066930X0.090550*%
%ADD22R,0.066930X0.090550*%
%ADD23R,0.078740X0.078740*%
%ADD24C,0.078740*%
%ADD25C,0.118110*%
%LNenvioesppcb-1*%
%LPD*%
G54D10*
X01000Y02350D02*
X03085D01*
X01000Y05000D02*
X03085D01*
Y02350D02*
Y05000D01*
X01000Y02350D02*
Y05000D01*
X02616Y04670D02*
X02671D01*
X02616D02*
Y04725D01*
Y04614D02*
Y04670D01*
X02561D02*
X02616D01*
X02615Y04131D02*
X02658D01*
X02615Y04076D02*
Y04131D01*
Y04187*
X02571Y04131D02*
X02615D01*
Y03128D02*
Y03183D01*
Y03128D02*
X02658D01*
X02615Y03072D02*
Y03128D01*
X02571D02*
X02615D01*
X02228Y02612D02*
Y02667D01*
Y02557D02*
Y02612D01*
X02172D02*
X02228D01*
X02283*
X01320Y04315D02*
X01369D01*
X01270D02*
X01320D01*
X01403Y02612D02*
Y02667D01*
Y02612D02*
X01458D01*
X01403Y02557D02*
Y02612D01*
X01347D02*
X01403D01*
X02970Y02949D02*
X02950D01*
X02960*
Y02890*
X02970*
X02950*
X02880Y02949D02*
X02920D01*
Y02890*
X02880*
X02920Y02919D02*
X02900D01*
X02860Y02949D02*
Y02890D01*
X02820*
X02760Y02949D02*
X02800D01*
Y02890*
X02760*
X02800Y02919D02*
X02780D01*
X01160Y04465D02*
X01100D01*
X01120Y04445*
X01100Y04425*
X01160*
Y04405D02*
X01150D01*
Y04395*
X01160*
Y04405*
X01100Y04295D02*
X01160D01*
Y04265*
X01150Y04255*
X01140*
X01130Y04265*
Y04295*
Y04265*
X01120Y04255*
X01110*
X01100Y04265*
Y04295*
X01160Y04205D02*
Y04225D01*
X01150Y04235*
X01130*
X01120Y04225*
Y04205*
X01130Y04195*
X01140*
Y04235*
X01120Y04175D02*
X01160D01*
X01140*
X01130Y04165*
X01120Y04155*
Y04145*
X01160Y04115D02*
X01120D01*
Y04105*
X01130Y04095*
X01160*
X01130*
X01120Y04085*
X01130Y04075*
X01160*
X01120Y04055D02*
X01150D01*
X01160Y04045*
Y04015*
X01120*
X01100Y03955D02*
X01160D01*
Y03985*
X01150Y03995*
X01130*
X01120Y03985*
Y03955*
X01160Y03905D02*
Y03925D01*
X01150Y03935*
X01130*
X01120Y03925*
Y03905*
X01130Y03895*
X01140*
Y03935*
X01120Y03875D02*
Y03835D01*
X01160Y03875*
Y03835*
X01130Y03755D02*
Y03715D01*
X01160Y03635D02*
X01100D01*
Y03605*
X01110Y03595*
X01130*
X01140Y03605*
Y03635*
X01160Y03565D02*
Y03545D01*
X01150Y03535*
X01130*
X01120Y03545*
Y03565*
X01130Y03575*
X01150*
X01160Y03565*
X01120Y03515D02*
X01150D01*
X01160Y03505*
X01150Y03495*
X01160Y03485*
X01150Y03475*
X01120*
X01160Y03425D02*
Y03445D01*
X01150Y03455*
X01130*
X01120Y03445*
Y03425*
X01130Y03415*
X01140*
Y03455*
X01120Y03395D02*
X01160D01*
X01140*
X01130Y03385*
X01120Y03375*
Y03365*
X01100Y03275D02*
X01160D01*
Y03245*
X01150Y03235*
X01140*
X01130Y03245*
Y03275*
Y03245*
X01120Y03235*
X01110*
X01100Y03245*
Y03275*
X01160Y03215D02*
Y03195D01*
Y03205*
X01120*
Y03215*
X01160Y03165D02*
X01100D01*
X01140D02*
X01120Y03135D01*
X01140Y03165D02*
X01160Y03135D01*
Y03075D02*
Y03095D01*
X01150Y03105*
X01130*
X01120Y03095*
Y03075*
X01130Y03065*
X01140*
Y03105*
X01110Y02945D02*
X01100Y02955D01*
Y02975*
X01110Y02985*
X01120*
X01130Y02975*
Y02955*
X01140Y02945*
X01150*
X01160Y02955*
Y02975*
X01150Y02985*
X01100Y02925D02*
X01160D01*
Y02895*
X01150Y02885*
X01110*
X01100Y02895*
Y02925*
X01160Y02865D02*
Y02845D01*
Y02855*
X01100*
X01110Y02865*
G54D14*
X02870Y04148D02*
D01*
X02870Y04152*
X02869Y04156*
X02868Y04160*
X02868Y04163*
X02866Y04167*
X02865Y04171*
X02863Y04174*
X02861Y04177*
X02859Y04181*
X02857Y04184*
X02854Y04186*
X02851Y04189*
X02848Y04192*
X02845Y04194*
X02842Y04196*
X02759Y04125D02*
D01*
X02759Y04121*
X02760Y04117*
X02761Y04113*
X02761Y04109*
X02763Y04106*
X02764Y04102*
X02766Y04099*
X02768Y04095*
X02770Y04092*
X02772Y04089*
X02775Y04086*
X02778Y04084*
X02781Y04081*
X02784Y04079*
X02787Y04077*
X02790Y04075*
X02794Y04073*
X02797Y04072*
X02801Y04071*
X02805Y04070*
X02809Y04070*
X02813Y04069*
X02816*
X02820Y04070*
X02824Y04070*
X02828Y04071*
X02832Y04072*
X02835Y04073*
X02839Y04075*
X02842Y04077*
X02845Y04079*
X02848Y04081*
X02851Y04084*
X02854Y04086*
X02857Y04089*
X02859Y04092*
X02861Y04095*
X02863Y04099*
X02865Y04102*
X02866Y04106*
X02868Y04109*
X02868Y04113*
X02869Y04117*
X02870Y04121*
X02870Y04125*
X02784Y04194D02*
D01*
X02781Y04192*
X02778Y04189*
X02775Y04187*
X02772Y04184*
X02770Y04181*
X02768Y04177*
X02766Y04174*
X02764Y04171*
X02763Y04167*
X02761Y04163*
X02761Y04160*
X02760Y04156*
X02759Y04152*
X02759Y04148*
Y04148*
X02675Y04670D02*
D01*
X02675Y04674*
X02675Y04678*
X02674Y04682*
X02673Y04686*
X02672Y04690*
X02670Y04694*
X02668Y04697*
X02666Y04701*
X02664Y04704*
X02661Y04708*
X02659Y04711*
X02656Y04714*
X02653Y04716*
X02649Y04719*
X02646Y04721*
X02642Y04723*
X02638Y04724*
X02634Y04726*
X02630Y04727*
X02626Y04728*
X02622Y04728*
X02618Y04729*
X02614*
X02610Y04728*
X02606Y04728*
X02602Y04727*
X02598Y04726*
X02594Y04724*
X02590Y04723*
X02586Y04721*
X02583Y04719*
X02580Y04716*
X02576Y04714*
X02573Y04711*
X02571Y04708*
X02568Y04704*
X02566Y04701*
X02564Y04697*
X02562Y04694*
X02560Y04690*
X02559Y04686*
X02558Y04682*
X02557Y04678*
X02557Y04674*
X02557Y04670*
X02557Y04665*
X02557Y04661*
X02558Y04657*
X02559Y04653*
X02560Y04649*
X02562Y04645*
X02564Y04642*
X02566Y04638*
X02568Y04635*
X02571Y04631*
X02573Y04628*
X02576Y04625*
X02580Y04623*
X02583Y04620*
X02586Y04618*
X02590Y04616*
X02594Y04615*
X02598Y04613*
X02602Y04612*
X02606Y04611*
X02610Y04611*
X02614Y04610*
X02618*
X02622Y04611*
X02626Y04611*
X02630Y04612*
X02634Y04613*
X02638Y04615*
X02642Y04616*
X02646Y04618*
X02649Y04620*
X02653Y04623*
X02656Y04625*
X02659Y04628*
X02661Y04631*
X02664Y04635*
X02666Y04638*
X02668Y04642*
X02670Y04645*
X02672Y04649*
X02673Y04653*
X02674Y04657*
X02675Y04661*
X02675Y04665*
X02675Y04670*
X02323Y04729D02*
D01*
X02323Y04730*
X02322Y04732*
X02322Y04733*
X02322Y04735*
X02321Y04736*
X02321Y04738*
X02320Y04739*
X02319Y04740*
X02319Y04741*
X02318Y04743*
X02317Y04744*
X02316Y04745*
X02314Y04746*
X02313Y04747*
X02312Y04748*
X02311Y04748*
X02309Y04749*
X02308Y04749*
X02306Y04750*
X02305Y04750*
X02303Y04750*
X02302Y04750*
X02300*
X02299Y04750*
X02297Y04750*
X02296Y04750*
X02294Y04749*
X02293Y04749*
X02291Y04748*
X02290Y04748*
X02289Y04747*
X02288Y04746*
X02286Y04745*
X02285Y04744*
X02284Y04743*
X02283Y04741*
X02283Y04740*
X02282Y04739*
X02281Y04738*
X02281Y04736*
X02280Y04735*
X02280Y04733*
X02279Y04732*
X02279Y04730*
X02279Y04729*
X02279Y04727*
X02279Y04726*
X02280Y04724*
X02280Y04723*
X02281Y04721*
X02281Y04720*
X02282Y04719*
X02283Y04717*
X02283Y04716*
X02284Y04715*
X02285Y04714*
X02286Y04713*
X02288Y04712*
X02289Y04711*
X02290Y04710*
X02291Y04709*
X02293Y04709*
X02294Y04708*
X02296Y04708*
X02297Y04707*
X02299Y04707*
X02300Y04707*
X02302*
X02303Y04707*
X02305Y04707*
X02306Y04708*
X02308Y04708*
X02309Y04709*
X02311Y04709*
X02312Y04710*
X02313Y04711*
X02314Y04712*
X02316Y04713*
X02317Y04714*
X02318Y04715*
X02319Y04716*
X02319Y04717*
X02320Y04719*
X02321Y04720*
X02321Y04721*
X02322Y04723*
X02322Y04724*
X02322Y04726*
X02323Y04727*
X02323Y04729*
X02115Y04900D02*
D01*
X02115Y04905*
X02114Y04911*
X02114Y04916*
X02112Y04922*
X02110Y04927*
X02108Y04932*
X02106Y04937*
X02103Y04942*
X02100Y04947*
X02096Y04951*
X02093Y04956*
X02090Y04958*
X02115Y04900D02*
D01*
X02115Y04905*
X02114Y04911*
X02114Y04916*
X02112Y04922*
X02110Y04927*
X02108Y04932*
X02106Y04937*
X02103Y04942*
X02100Y04947*
X02096Y04951*
X02093Y04956*
X02090Y04958*
X02381Y04015D02*
D01*
X02380Y04020*
X02380Y04024*
X02379Y04028*
X02378Y04032*
X02377Y04036*
X02375Y04040*
X02373Y04044*
X02371Y04048*
X02369Y04051*
X02366Y04055*
X02363Y04058*
X02360Y04061*
X02357Y04063*
X02355Y04065*
Y03965D02*
D01*
X02358Y03968*
X02361Y03971*
X02364Y03974*
X02367Y03977*
X02370Y03980*
X02372Y03984*
X02374Y03988*
X02376Y03992*
X02377Y03996*
X02379Y04000*
X02379Y04004*
X02380Y04008*
X02381Y04012*
X02381Y04015*
Y04315D02*
D01*
X02380Y04320*
X02380Y04324*
X02379Y04328*
X02378Y04332*
X02377Y04336*
X02375Y04340*
X02373Y04344*
X02371Y04348*
X02369Y04351*
X02366Y04355*
X02363Y04358*
X02360Y04361*
X02357Y04363*
X02355Y04365*
D01*
X02358Y04368*
X02361Y04371*
X02364Y04374*
X02367Y04377*
X02370Y04380*
X02372Y04384*
X02374Y04388*
X02376Y04392*
X02377Y04396*
X02379Y04400*
X02379Y04404*
X02380Y04408*
X02381Y04412*
X02381Y04415*
X02355Y04265D02*
D01*
X02358Y04268*
X02361Y04271*
X02364Y04274*
X02367Y04277*
X02370Y04280*
X02372Y04284*
X02374Y04288*
X02376Y04292*
X02377Y04296*
X02379Y04300*
X02379Y04304*
X02380Y04308*
X02381Y04312*
X02381Y04315*
X02142Y04453D02*
D01*
X02139Y04453*
X02137Y04454*
X02134Y04454*
X02131Y04454*
X02129Y04454*
X02126Y04453*
X02124Y04453*
X02121Y04452*
X02119Y04451*
X02116Y04450*
X02114Y04449*
X02112Y04448*
X02110Y04446*
X02108Y04444*
X02106Y04443*
X02142Y04453D02*
D01*
X02139Y04453*
X02137Y04454*
X02134Y04454*
X02131Y04454*
X02129Y04454*
X02126Y04453*
X02124Y04453*
X02121Y04452*
X02119Y04451*
X02116Y04450*
X02114Y04449*
X02112Y04448*
X02110Y04446*
X02108Y04444*
X02106Y04443*
X02381Y04415D02*
D01*
X02380Y04420*
X02380Y04424*
X02379Y04428*
X02378Y04432*
X02377Y04436*
X02375Y04440*
X02373Y04444*
X02371Y04448*
X02369Y04451*
X02366Y04455*
X02363Y04458*
X02360Y04461*
X02357Y04463*
X02354Y04466*
X02350Y04468*
X02346Y04470*
X02342Y04472*
X02338Y04473*
X02334Y04475*
X02330Y04475*
X02326Y04476*
X02322Y04476*
X02317*
X02313Y04476*
X02309Y04475*
X02305Y04475*
X02301Y04473*
X02297Y04472*
X02293Y04470*
X02289Y04468*
X02285Y04466*
X02282Y04463*
X02279Y04461*
X02276Y04458*
X02273Y04455*
X02271Y04453*
X02381Y04115D02*
D01*
X02380Y04120*
X02380Y04124*
X02379Y04128*
X02378Y04132*
X02377Y04136*
X02375Y04140*
X02373Y04144*
X02371Y04148*
X02369Y04151*
X02366Y04155*
X02363Y04158*
X02360Y04161*
X02357Y04163*
X02355Y04165*
D01*
X02358Y04168*
X02361Y04171*
X02364Y04174*
X02367Y04177*
X02370Y04180*
X02372Y04184*
X02374Y04188*
X02376Y04192*
X02377Y04196*
X02379Y04200*
X02379Y04204*
X02380Y04208*
X02381Y04212*
X02381Y04215*
X02355Y04065D02*
D01*
X02358Y04068*
X02361Y04071*
X02364Y04074*
X02367Y04077*
X02370Y04080*
X02372Y04084*
X02374Y04088*
X02376Y04092*
X02377Y04096*
X02379Y04100*
X02379Y04104*
X02380Y04108*
X02381Y04112*
X02381Y04115*
Y04215D02*
D01*
X02380Y04220*
X02380Y04224*
X02379Y04228*
X02378Y04232*
X02377Y04236*
X02375Y04240*
X02373Y04244*
X02371Y04248*
X02369Y04251*
X02366Y04255*
X02363Y04258*
X02360Y04261*
X02357Y04263*
X02355Y04265*
X02667Y03767D02*
D01*
X02665Y03771*
X02664Y03774*
X02662Y03778*
X02660Y03781*
X02658Y03784*
X02655Y03787*
X02652Y03790*
X02649Y03792*
X02646Y03795*
X02643Y03797*
X02640Y03799*
X02636Y03800*
X02633Y03802*
X02629Y03803*
X02625Y03804*
X02621Y03804*
X02618Y03805*
X02614Y03805*
X02610Y03804*
X02606Y03804*
X02602Y03803*
X02599Y03802*
X02595Y03801*
X02591Y03800*
X02588Y03798*
X02585Y03796*
X02581Y03794*
X02578Y03791*
X02576Y03789*
X02573Y03786*
X02571Y03783*
X02568Y03780*
X02566Y03776*
X02565Y03773*
X02563Y03769*
X02562Y03766*
X02561Y03762*
X02560Y03758*
X02560Y03754*
X02559Y03751*
X02559Y03749*
Y03726D02*
D01*
X02559Y03722*
X02560Y03718*
X02561Y03714*
X02561Y03711*
X02563Y03707*
X02564Y03703*
X02566Y03700*
X02568Y03697*
X02570Y03693*
X02572Y03690*
X02575Y03688*
X02578Y03685*
X02581Y03682*
X02584Y03680*
X02585Y03679*
X02644D02*
D01*
X02647Y03681*
X02650Y03684*
X02653Y03686*
X02656Y03689*
X02658Y03692*
X02660Y03695*
X02662Y03699*
X02664Y03702*
X02666Y03706*
X02667Y03708*
X02381Y03815D02*
D01*
X02380Y03820*
X02380Y03824*
X02379Y03828*
X02378Y03832*
X02377Y03836*
X02375Y03840*
X02373Y03844*
X02371Y03848*
X02369Y03851*
X02366Y03855*
X02363Y03858*
X02360Y03861*
X02357Y03863*
X02355Y03865*
D01*
X02358Y03868*
X02361Y03871*
X02364Y03874*
X02367Y03877*
X02370Y03880*
X02372Y03884*
X02374Y03888*
X02376Y03892*
X02377Y03896*
X02379Y03900*
X02379Y03904*
X02380Y03908*
X02381Y03912*
X02381Y03915*
X02355Y03565D02*
D01*
X02358Y03568*
X02361Y03571*
X02364Y03574*
X02367Y03577*
X02370Y03580*
X02372Y03584*
X02374Y03588*
X02376Y03592*
X02377Y03596*
X02379Y03600*
X02379Y03604*
X02380Y03608*
X02381Y03612*
X02381Y03615*
X02355Y03665D02*
D01*
X02358Y03668*
X02361Y03671*
X02364Y03674*
X02367Y03677*
X02370Y03680*
X02372Y03684*
X02374Y03688*
X02376Y03692*
X02377Y03696*
X02379Y03700*
X02379Y03704*
X02380Y03708*
X02381Y03712*
X02381Y03715*
D01*
X02380Y03720*
X02380Y03724*
X02379Y03728*
X02378Y03732*
X02377Y03736*
X02375Y03740*
X02373Y03744*
X02371Y03748*
X02369Y03751*
X02366Y03755*
X02363Y03758*
X02360Y03761*
X02357Y03763*
X02355Y03765*
X02381Y03615D02*
D01*
X02380Y03620*
X02380Y03624*
X02379Y03628*
X02378Y03632*
X02377Y03636*
X02375Y03640*
X02373Y03644*
X02371Y03648*
X02369Y03651*
X02366Y03655*
X02363Y03658*
X02360Y03661*
X02357Y03663*
X02355Y03665*
X02670Y03533D02*
D01*
X02670Y03537*
X02669Y03541*
X02668Y03545*
X02668Y03548*
X02666Y03552*
X02665Y03556*
X02663Y03559*
X02661Y03562*
X02659Y03566*
X02657Y03569*
X02654Y03571*
X02651Y03574*
X02648Y03577*
X02645Y03579*
X02644Y03580*
X02585D02*
D01*
X02582Y03578*
X02579Y03575*
X02576Y03573*
X02573Y03570*
X02571Y03567*
X02569Y03564*
X02567Y03560*
X02565Y03557*
X02563Y03553*
X02562Y03551*
Y03492D02*
D01*
X02564Y03488*
X02565Y03485*
X02567Y03481*
X02569Y03478*
X02571Y03475*
X02574Y03472*
X02577Y03469*
X02580Y03467*
X02583Y03464*
X02586Y03462*
X02589Y03460*
X02593Y03459*
X02596Y03457*
X02600Y03456*
X02604Y03455*
X02608Y03455*
X02611Y03454*
X02615Y03454*
X02619Y03455*
X02623Y03455*
X02627Y03456*
X02630Y03457*
X02634Y03458*
X02638Y03459*
X02641Y03461*
X02644Y03463*
X02648Y03465*
X02651Y03468*
X02653Y03470*
X02656Y03473*
X02658Y03476*
X02661Y03479*
X02663Y03483*
X02664Y03486*
X02666Y03490*
X02667Y03493*
X02668Y03497*
X02669Y03501*
X02669Y03505*
X02670Y03508*
X02670Y03510*
X02546Y03551D02*
D01*
X02544Y03551*
X02542Y03551*
X02540Y03550*
X02538Y03550*
X02536Y03549*
X02534Y03548*
X02532Y03547*
X02531Y03546*
X02529Y03545*
X02527Y03544*
X02526Y03543*
X02525Y03542*
X02546Y03551D02*
D01*
X02544Y03551*
X02542Y03551*
X02540Y03550*
X02538Y03550*
X02536Y03549*
X02534Y03548*
X02532Y03547*
X02531Y03546*
X02529Y03545*
X02527Y03544*
X02526Y03543*
X02525Y03542*
X02381Y03515D02*
D01*
X02380Y03520*
X02380Y03524*
X02379Y03528*
X02378Y03532*
X02377Y03536*
X02375Y03540*
X02373Y03544*
X02371Y03548*
X02369Y03551*
X02366Y03555*
X02363Y03558*
X02360Y03561*
X02357Y03563*
X02355Y03565*
Y03465D02*
D01*
X02358Y03468*
X02361Y03471*
X02364Y03474*
X02367Y03477*
X02370Y03480*
X02372Y03484*
X02374Y03488*
X02376Y03492*
X02377Y03496*
X02379Y03500*
X02379Y03504*
X02380Y03508*
X02381Y03512*
X02381Y03515*
X02266Y03986D02*
D01*
X02268Y03982*
X02271Y03979*
X02273Y03975*
X02276Y03972*
X02279Y03969*
X02283Y03967*
X02284Y03965*
X02381Y03915D02*
D01*
X02380Y03920*
X02380Y03924*
X02379Y03928*
X02378Y03932*
X02377Y03936*
X02375Y03940*
X02373Y03944*
X02371Y03948*
X02369Y03951*
X02366Y03955*
X02363Y03958*
X02360Y03961*
X02357Y03963*
X02355Y03965*
X02284Y03865D02*
D01*
X02281Y03863*
X02278Y03860*
X02275Y03857*
X02272Y03854*
X02269Y03850*
X02267Y03847*
X02265Y03843*
X02263Y03839*
X02262Y03835*
X02260Y03831*
X02260Y03827*
X02259Y03823*
X02258Y03818*
X02258Y03814*
X02259Y03810*
X02259Y03806*
X02260Y03802*
X02261Y03797*
X02262Y03793*
X02264Y03789*
X02266Y03786*
X02268Y03782*
X02271Y03779*
X02273Y03775*
X02276Y03772*
X02279Y03769*
X02283Y03767*
X02284Y03765*
X02355D02*
D01*
X02358Y03768*
X02361Y03771*
X02364Y03774*
X02367Y03777*
X02370Y03780*
X02372Y03784*
X02374Y03788*
X02376Y03792*
X02377Y03796*
X02379Y03800*
X02379Y03804*
X02380Y03808*
X02381Y03812*
X02381Y03815*
X02284Y03965D02*
D01*
X02281Y03963*
X02278Y03960*
X02275Y03957*
X02272Y03954*
X02269Y03950*
X02267Y03947*
X02265Y03943*
X02263Y03939*
X02262Y03935*
X02260Y03931*
X02260Y03927*
X02259Y03923*
X02258Y03918*
X02258Y03914*
X02259Y03910*
X02259Y03906*
X02260Y03902*
X02261Y03897*
X02262Y03893*
X02264Y03889*
X02266Y03886*
X02268Y03882*
X02271Y03879*
X02273Y03875*
X02276Y03872*
X02279Y03869*
X02283Y03867*
X02284Y03865*
Y03765D02*
D01*
X02281Y03763*
X02278Y03760*
X02275Y03757*
X02272Y03754*
X02269Y03750*
X02267Y03747*
X02265Y03743*
X02263Y03739*
X02262Y03735*
X02260Y03731*
X02260Y03727*
X02259Y03723*
X02258Y03718*
X02258Y03714*
X02259Y03710*
X02259Y03706*
X02260Y03702*
X02261Y03697*
X02262Y03693*
X02264Y03689*
X02266Y03686*
X02268Y03682*
X02271Y03679*
X02273Y03675*
X02276Y03672*
X02279Y03669*
X02283Y03667*
X02284Y03665*
Y03565D02*
D01*
X02281Y03563*
X02278Y03560*
X02275Y03557*
X02272Y03554*
X02269Y03550*
X02267Y03547*
X02265Y03543*
X02263Y03539*
X02262Y03535*
X02260Y03531*
X02260Y03527*
X02259Y03523*
X02258Y03518*
X02258Y03514*
X02259Y03510*
X02259Y03506*
X02260Y03502*
X02261Y03497*
X02262Y03493*
X02264Y03489*
X02266Y03486*
X02268Y03482*
X02271Y03479*
X02273Y03475*
X02276Y03472*
X02279Y03469*
X02283Y03467*
X02284Y03465*
Y03665D02*
D01*
X02281Y03663*
X02278Y03660*
X02275Y03657*
X02272Y03654*
X02269Y03650*
X02267Y03647*
X02265Y03643*
X02263Y03639*
X02262Y03635*
X02260Y03631*
X02260Y03627*
X02259Y03623*
X02258Y03618*
X02258Y03614*
X02259Y03610*
X02259Y03606*
X02260Y03602*
X02261Y03597*
X02262Y03593*
X02264Y03589*
X02266Y03586*
X02268Y03582*
X02271Y03579*
X02273Y03575*
X02276Y03572*
X02279Y03569*
X02283Y03567*
X02284Y03565*
X02648Y03003D02*
D01*
X02648Y03005*
X02648Y03007*
X02647Y03009*
X02647Y03011*
X02646Y03013*
X02645Y03015*
X02644Y03017*
X02643Y03019*
X02642Y03021*
X02641Y03022*
X02639Y03024*
X02639Y03024*
X02648Y03003D02*
D01*
X02648Y03005*
X02648Y03007*
X02647Y03009*
X02647Y03011*
X02646Y03013*
X02645Y03015*
X02644Y03017*
X02643Y03019*
X02642Y03021*
X02641Y03022*
X02639Y03024*
X02639Y03024*
X02943Y02391D02*
D01*
X02949Y02392*
X02954Y02394*
X02959Y02396*
X02964Y02399*
X02969Y02402*
X02973Y02405*
X02978Y02409*
X02982Y02413*
X02986Y02417*
X02989Y02421*
X02992Y02426*
X02995Y02431*
X02998Y02436*
X03000Y02441*
X03002Y02446*
X03003Y02452*
X03004Y02457*
X03005Y02463*
X03005Y02469*
X03005Y02470*
D01*
X03005Y02475*
X03004Y02481*
X03004Y02486*
X03002Y02492*
X03000Y02497*
X02998Y02502*
X02996Y02507*
X02993Y02512*
X02990Y02517*
X02986Y02521*
X02983Y02526*
X02979Y02530*
X02974Y02533*
X02970Y02536*
X02965Y02539*
X02960Y02542*
X02955Y02544*
X02949Y02546*
X02944Y02548*
X02939Y02549*
X02933Y02550*
X02927Y02550*
X02922*
X02916Y02550*
X02910Y02549*
X02905Y02548*
X02900Y02546*
X02894Y02544*
X02889Y02542*
X02884Y02539*
X02879Y02536*
X02875Y02533*
X02870Y02530*
X02866Y02526*
X02863Y02521*
X02859Y02517*
X02856Y02512*
X02853Y02507*
X02851Y02502*
X02849Y02497*
X02847Y02492*
X02845Y02486*
X02845Y02481*
X02844Y02475*
X02844Y02469*
X02844Y02464*
X02845Y02458*
X02845Y02453*
X02847Y02447*
X02849Y02442*
X02851Y02437*
X02853Y02432*
X02856Y02427*
X02859Y02422*
X02863Y02418*
X02866Y02413*
X02870Y02409*
X02875Y02406*
X02879Y02403*
X02884Y02400*
X02889Y02397*
X02894Y02395*
X02900Y02393*
X02905Y02391*
X02906Y02391*
X03005Y02470D02*
D01*
X03005Y02475*
X03004Y02481*
X03004Y02486*
X03002Y02492*
X03000Y02497*
X02998Y02502*
X02996Y02507*
X02993Y02512*
X02990Y02517*
X02986Y02521*
X02983Y02526*
X02979Y02530*
X02974Y02533*
X02970Y02536*
X02965Y02539*
X02960Y02542*
X02955Y02544*
X02949Y02546*
X02944Y02548*
X02939Y02549*
X02933Y02550*
X02927Y02550*
X02922*
X02916Y02550*
X02910Y02549*
X02905Y02548*
X02900Y02546*
X02894Y02544*
X02889Y02542*
X02884Y02539*
X02879Y02536*
X02875Y02533*
X02870Y02530*
X02866Y02526*
X02863Y02521*
X02859Y02517*
X02856Y02512*
X02853Y02507*
X02851Y02502*
X02849Y02497*
X02847Y02492*
X02845Y02486*
X02845Y02481*
X02844Y02475*
X02844Y02469*
X02844Y02464*
X02845Y02458*
X02845Y02453*
X02847Y02447*
X02849Y02442*
X02851Y02437*
X02853Y02432*
X02856Y02427*
X02859Y02422*
X02863Y02418*
X02866Y02413*
X02870Y02409*
X02875Y02406*
X02879Y02403*
X02884Y02400*
X02889Y02397*
X02894Y02395*
X02900Y02393*
X02905Y02391*
X02906Y02391*
X02943D02*
D01*
X02949Y02392*
X02954Y02394*
X02959Y02396*
X02964Y02399*
X02969Y02402*
X02973Y02405*
X02978Y02409*
X02982Y02413*
X02986Y02417*
X02989Y02421*
X02992Y02426*
X02995Y02431*
X02998Y02436*
X03000Y02441*
X03002Y02446*
X03003Y02452*
X03004Y02457*
X03005Y02463*
X03005Y02469*
X03005Y02470*
X02688Y02612D02*
D01*
X02688Y02616*
X02688Y02621*
X02687Y02626*
X02686Y02630*
X02684Y02635*
X02683Y02639*
X02680Y02643*
X02678Y02647*
X02676Y02651*
X02673Y02655*
X02670Y02658*
X02666Y02662*
X02663Y02665*
X02659Y02667*
X02655Y02670*
X02651Y02672*
X02648Y02673*
X02589Y02670D02*
D01*
X02585Y02668*
X02581Y02665*
X02577Y02662*
X02574Y02659*
X02571Y02656*
X02568Y02652*
X02565Y02648*
X02563Y02644*
X02561Y02640*
X02559Y02636*
X02557Y02631*
X02556Y02627*
X02555Y02622*
X02555Y02617*
X02554Y02613*
X02554Y02608*
X02555Y02603*
X02556Y02599*
X02557Y02594*
X02558Y02590*
X02560Y02585*
X02562Y02581*
X02564Y02577*
X02567Y02573*
X02569Y02569*
X02573Y02566*
X02576Y02563*
X02579Y02560*
X02583Y02557*
X02587Y02554*
X02591Y02552*
X02595Y02550*
X02600Y02548*
X02604Y02547*
X02609Y02546*
X02613Y02545*
X02618Y02545*
X02623Y02545*
X02627Y02545*
X02632Y02546*
X02637Y02547*
X02641Y02548*
X02646Y02549*
X02650Y02551*
X02654Y02553*
X02658Y02556*
X02662Y02558*
X02666Y02561*
X02669Y02565*
X02672Y02568*
X02675Y02572*
X02678Y02576*
X02680Y02580*
X02682Y02584*
X02684Y02588*
X02686Y02592*
X02687Y02597*
X02688Y02602*
X02688Y02606*
X02688Y02611*
X02688Y02612*
X02460Y03329D02*
D01*
X02462Y03330*
X02463Y03332*
X02464Y03333*
X02465Y03335*
X02466Y03337*
X02467Y03339*
X02468Y03341*
X02468Y03343*
X02469Y03345*
X02469Y03347*
X02469Y03349*
X02469Y03350*
X02460Y03329D02*
D01*
X02462Y03330*
X02463Y03332*
X02464Y03333*
X02465Y03335*
X02466Y03337*
X02467Y03339*
X02468Y03341*
X02468Y03343*
X02469Y03345*
X02469Y03347*
X02469Y03349*
X02469Y03350*
X02405Y03286D02*
D01*
X02407Y03286*
X02409Y03286*
X02411Y03286*
X02413Y03287*
X02415Y03288*
X02417Y03288*
X02419Y03289*
X02421Y03290*
X02423Y03291*
X02424Y03293*
X02426Y03294*
X02426Y03294*
X02419Y03435D02*
D01*
X02417Y03434*
X02416Y03432*
X02415Y03431*
X02414Y03429*
X02413Y03427*
X02412Y03425*
X02411Y03423*
X02411Y03421*
X02410Y03419*
X02410Y03417*
X02410Y03415*
X02410Y03415*
X02419Y03435D02*
D01*
X02417Y03434*
X02416Y03432*
X02415Y03431*
X02414Y03429*
X02413Y03427*
X02412Y03425*
X02411Y03423*
X02411Y03421*
X02410Y03419*
X02410Y03417*
X02410Y03415*
X02410Y03415*
X02427Y03236D02*
D01*
X02425Y03238*
X02424Y03239*
X02422Y03240*
X02420Y03241*
X02419Y03242*
X02417Y03243*
X02415Y03244*
X02413Y03244*
X02411Y03245*
X02409Y03245*
X02407Y03245*
X02406Y03245*
X02405Y03286D02*
D01*
X02407Y03286*
X02409Y03286*
X02411Y03286*
X02413Y03287*
X02415Y03288*
X02417Y03288*
X02419Y03289*
X02421Y03290*
X02423Y03291*
X02424Y03293*
X02426Y03294*
X02426Y03294*
X02427Y03236D02*
D01*
X02426Y03238*
X02424Y03239*
X02422Y03240*
X02420Y03241*
X02419Y03242*
X02417Y03243*
X02415Y03244*
X02413Y03244*
X02411Y03245*
X02409Y03245*
X02407Y03245*
X02406Y03245*
X02381Y03415D02*
D01*
X02380Y03420*
X02380Y03424*
X02379Y03428*
X02378Y03432*
X02377Y03436*
X02375Y03440*
X02373Y03444*
X02371Y03448*
X02369Y03451*
X02366Y03455*
X02363Y03458*
X02360Y03461*
X02357Y03463*
X02355Y03465*
X02284D02*
D01*
X02281Y03463*
X02278Y03460*
X02275Y03457*
X02272Y03454*
X02269Y03450*
X02267Y03447*
X02265Y03443*
X02263Y03439*
X02262Y03435*
X02260Y03431*
X02260Y03427*
X02259Y03423*
X02258Y03418*
X02258Y03414*
X02259Y03410*
X02259Y03406*
X02260Y03402*
X02261Y03397*
X02262Y03393*
X02264Y03389*
X02266Y03386*
X02268Y03382*
X02271Y03379*
X02273Y03375*
X02276Y03372*
X02279Y03369*
X02283Y03367*
X02284Y03365*
X02355Y03265D02*
D01*
X02358Y03268*
X02361Y03271*
X02364Y03274*
X02367Y03277*
X02370Y03280*
X02372Y03284*
X02373Y03286*
Y03245D02*
D01*
X02371Y03249*
X02368Y03252*
X02366Y03255*
X02363Y03259*
X02360Y03261*
X02356Y03264*
X02355Y03265*
Y03365D02*
D01*
X02358Y03368*
X02361Y03371*
X02364Y03374*
X02367Y03377*
X02370Y03380*
X02372Y03384*
X02374Y03388*
X02376Y03392*
X02377Y03396*
X02379Y03400*
X02379Y03404*
X02380Y03408*
X02381Y03412*
X02381Y03415*
X02373Y03345D02*
D01*
X02371Y03349*
X02368Y03352*
X02366Y03355*
X02363Y03359*
X02360Y03361*
X02356Y03364*
X02355Y03365*
X02284D02*
D01*
X02281Y03363*
X02278Y03360*
X02275Y03357*
X02272Y03354*
X02269Y03350*
X02267Y03347*
X02265Y03343*
X02263Y03339*
X02262Y03335*
X02260Y03331*
X02260Y03327*
X02259Y03323*
X02258Y03318*
X02258Y03314*
X02259Y03310*
X02259Y03306*
X02260Y03302*
X02261Y03297*
X02262Y03293*
X02264Y03289*
X02266Y03286*
X02268Y03282*
X02271Y03279*
X02273Y03275*
X02276Y03272*
X02279Y03269*
X02283Y03267*
X02284Y03265*
D01*
X02281Y03263*
X02278Y03260*
X02275Y03257*
X02272Y03254*
X02269Y03250*
X02267Y03247*
X02265Y03243*
X02263Y03239*
X02262Y03235*
X02260Y03231*
X02260Y03227*
X02259Y03223*
X02258Y03218*
X02258Y03214*
X02259Y03210*
X02259Y03206*
X02260Y03202*
X02261Y03197*
X02262Y03193*
X02264Y03189*
X02266Y03186*
X02268Y03182*
X02271Y03179*
X02273Y03175*
X02276Y03172*
X02279Y03169*
X02283Y03167*
X02284Y03165*
X02355Y03065D02*
D01*
X02358Y03068*
X02361Y03071*
X02364Y03074*
X02367Y03077*
X02370Y03080*
X02372Y03084*
X02374Y03088*
X02376Y03092*
X02377Y03096*
X02379Y03100*
X02379Y03104*
X02380Y03108*
X02381Y03112*
X02381Y03115*
D01*
X02380Y03120*
X02380Y03124*
X02379Y03128*
X02378Y03132*
X02377Y03136*
X02375Y03140*
X02373Y03144*
X02371Y03148*
X02369Y03151*
X02366Y03155*
X02363Y03158*
X02360Y03161*
X02357Y03163*
X02355Y03165*
D01*
X02358Y03168*
X02361Y03171*
X02364Y03174*
X02367Y03177*
X02370Y03180*
X02372Y03184*
X02373Y03186*
X02284Y03165D02*
D01*
X02281Y03163*
X02278Y03160*
X02275Y03157*
X02272Y03154*
X02269Y03150*
X02267Y03147*
X02265Y03143*
X02263Y03139*
X02262Y03135*
X02260Y03131*
X02260Y03127*
X02259Y03123*
X02258Y03118*
X02258Y03114*
X02259Y03110*
X02259Y03106*
X02260Y03102*
X02261Y03097*
X02262Y03093*
X02264Y03089*
X02266Y03086*
X02268Y03082*
X02271Y03079*
X02273Y03075*
X02276Y03072*
X02279Y03069*
X02283Y03067*
X02284Y03065*
X02090Y03154D02*
D01*
X02092Y03155*
X02093Y03157*
X02094Y03158*
X02095Y03160*
X02096Y03162*
X02097Y03164*
X02098Y03166*
X02098Y03168*
X02099Y03170*
X02099Y03172*
X02099Y03174*
X02099Y03175*
X02090Y03154D02*
D01*
X02092Y03155*
X02093Y03157*
X02094Y03158*
X02095Y03160*
X02096Y03162*
X02097Y03164*
X02098Y03166*
X02098Y03168*
X02099Y03170*
X02099Y03172*
X02099Y03174*
X02099Y03175*
X02381Y03015D02*
D01*
X02380Y03020*
X02380Y03024*
X02379Y03028*
X02378Y03032*
X02377Y03036*
X02375Y03040*
X02373Y03044*
X02371Y03048*
X02369Y03051*
X02366Y03055*
X02363Y03058*
X02360Y03061*
X02357Y03063*
X02355Y03065*
X02491Y02612D02*
D01*
X02491Y02616*
X02491Y02621*
X02490Y02626*
X02489Y02630*
X02487Y02635*
X02486Y02639*
X02484Y02643*
X02481Y02647*
X02479Y02651*
X02476Y02655*
X02473Y02658*
X02469Y02662*
X02466Y02665*
X02462Y02667*
X02458Y02670*
X02454Y02672*
X02450Y02674*
X02445Y02675*
X02441Y02677*
X02436Y02678*
X02432Y02678*
X02427Y02679*
X02422*
X02417Y02678*
X02413Y02678*
X02408Y02677*
X02404Y02675*
X02399Y02674*
X02395Y02672*
X02391Y02670*
X02387Y02667*
X02383Y02665*
X02380Y02662*
X02376Y02658*
X02373Y02655*
X02370Y02651*
X02368Y02647*
X02365Y02643*
X02363Y02639*
X02362Y02635*
X02360Y02630*
X02359Y02626*
X02358Y02621*
X02358Y02616*
X02358Y02612*
X02358Y02607*
X02358Y02602*
X02359Y02598*
X02360Y02593*
X02362Y02589*
X02363Y02585*
X02365Y02580*
X02368Y02576*
X02370Y02572*
X02373Y02569*
X02376Y02565*
X02380Y02562*
X02383Y02559*
X02387Y02556*
X02462D02*
D01*
X02466Y02559*
X02469Y02562*
X02473Y02565*
X02476Y02569*
X02479Y02572*
X02481Y02576*
X02484Y02580*
X02486Y02585*
X02487Y02589*
X02489Y02593*
X02490Y02598*
X02491Y02602*
X02491Y02607*
X02491Y02612*
X02451Y02508D02*
D01*
X02453Y02510*
X02454Y02512*
X02456Y02514*
X02457Y02516*
X02458Y02519*
X02459Y02521*
X02460Y02524*
X02461Y02526*
X02461Y02529*
X02462Y02531*
X02462Y02534*
X02462Y02535*
X02451Y02508D02*
D01*
X02453Y02510*
X02454Y02512*
X02456Y02514*
X02457Y02516*
X02458Y02519*
X02459Y02521*
X02460Y02524*
X02461Y02526*
X02462Y02529*
X02462Y02531*
X02462Y02534*
X02462Y02535*
X02384Y02456D02*
D01*
X02386Y02456*
X02389Y02457*
X02391Y02457*
X02394Y02458*
X02397Y02459*
X02399Y02459*
X02401Y02461*
X02404Y02462*
X02406Y02463*
X02408Y02465*
X02410Y02467*
X02410Y02467*
X02384Y02456D02*
D01*
X02386Y02456*
X02389Y02457*
X02391Y02457*
X02394Y02458*
X02397Y02459*
X02399Y02459*
X02401Y02461*
X02404Y02462*
X02406Y02463*
X02408Y02465*
X02410Y02467*
X02410Y02467*
X02284Y03065D02*
D01*
X02281Y03063*
X02278Y03060*
X02275Y03057*
X02272Y03054*
X02269Y03050*
X02267Y03047*
X02265Y03043*
X02263Y03039*
X02262Y03035*
X02260Y03031*
X02260Y03027*
X02259Y03023*
X02258Y03018*
X02258Y03014*
X02259Y03010*
X02259Y03006*
X02260Y03002*
X02261Y02997*
X02262Y02993*
X02264Y02989*
X02266Y02986*
X02268Y02982*
X02271Y02979*
X02273Y02975*
X02276Y02972*
X02279Y02969*
X02283Y02967*
X02286Y02964*
X02290Y02962*
X02294Y02960*
X02298Y02958*
X02302Y02957*
X02306Y02956*
X02310Y02955*
X02314Y02954*
X02318Y02954*
X02323Y02954*
X02327Y02955*
X02331Y02955*
X02335Y02956*
X02339Y02958*
X02343Y02959*
X02347Y02961*
X02351Y02963*
X02355Y02965*
X02358Y02968*
X02361Y02971*
X02364Y02974*
X02367Y02977*
X02370Y02980*
X02372Y02984*
X02374Y02988*
X02376Y02992*
X02377Y02996*
X02379Y03000*
X02379Y03004*
X02380Y03008*
X02381Y03012*
X02381Y03015*
X02323Y02880D02*
D01*
X02323Y02882*
X02322Y02883*
X02322Y02885*
X02322Y02886*
X02321Y02888*
X02321Y02889*
X02320Y02890*
X02319Y02892*
X02319Y02893*
X02318Y02894*
X02317Y02895*
X02316Y02896*
X02314Y02897*
X02313Y02898*
X02312Y02899*
X02311Y02900*
X02309Y02900*
X02308Y02901*
X02306Y02901*
X02305Y02902*
X02303Y02902*
X02302Y02902*
X02300*
X02299Y02902*
X02297Y02902*
X02296Y02901*
X02294Y02901*
X02293Y02900*
X02291Y02900*
X02290Y02899*
X02289Y02898*
X02288Y02897*
X02286Y02896*
X02285Y02895*
X02284Y02894*
X02283Y02893*
X02283Y02892*
X02282Y02890*
X02281Y02889*
X02281Y02888*
X02280Y02886*
X02280Y02885*
X02279Y02883*
X02279Y02882*
X02279Y02880*
X02279Y02879*
X02279Y02877*
X02280Y02876*
X02280Y02874*
X02281Y02873*
X02281Y02871*
X02282Y02870*
X02283Y02869*
X02283Y02868*
X02284Y02866*
X02285Y02865*
X02286Y02864*
X02288Y02863*
X02289Y02862*
X02290Y02861*
X02291Y02861*
X02293Y02860*
X02294Y02860*
X02296Y02859*
X02297Y02859*
X02299Y02859*
X02300Y02859*
X02302*
X02303Y02859*
X02305Y02859*
X02306Y02859*
X02308Y02860*
X02309Y02860*
X02311Y02861*
X02312Y02861*
X02313Y02862*
X02314Y02863*
X02316Y02864*
X02317Y02865*
X02318Y02866*
X02319Y02868*
X02319Y02869*
X02320Y02870*
X02321Y02871*
X02321Y02873*
X02322Y02874*
X02322Y02876*
X02322Y02877*
X02323Y02879*
X02323Y02880*
X02287Y02634D02*
D01*
X02287Y02637*
X02287Y02640*
X02286Y02642*
X02286Y02645*
X02285Y02647*
X02284Y02649*
X02283Y02652*
X02281Y02654*
X02280Y02656*
X02278Y02658*
X02277Y02660*
X02275Y02662*
X02273Y02663*
X02271Y02665*
X02269Y02666*
X02266Y02667*
X02264Y02668*
X02262Y02669*
X02259Y02670*
X02257Y02671*
X02254Y02671*
X02252Y02671*
X02250Y02671*
Y02553D02*
D01*
X02253Y02553*
X02255Y02553*
X02258Y02553*
X02260Y02554*
X02263Y02555*
X02265Y02556*
X02267Y02557*
X02270Y02558*
X02272Y02560*
X02274Y02561*
X02276Y02563*
X02278Y02565*
X02279Y02567*
X02281Y02569*
X02282Y02571*
X02283Y02573*
X02284Y02575*
X02285Y02578*
X02286Y02580*
X02286Y02583*
X02287Y02585*
X02287Y02588*
X02287Y02589*
X02205Y02671D02*
D01*
X02202Y02671*
X02200Y02671*
X02197Y02670*
X02195Y02670*
X02192Y02669*
X02190Y02668*
X02188Y02667*
X02186Y02665*
X02183Y02664*
X02181Y02662*
X02180Y02661*
X02178Y02659*
X02176Y02657*
X02175Y02655*
X02173Y02653*
X02172Y02650*
X02171Y02648*
X02170Y02646*
X02169Y02643*
X02169Y02641*
X02169Y02638*
X02168Y02636*
X02168Y02634*
Y02589D02*
D01*
X02168Y02587*
X02169Y02584*
X02169Y02582*
X02170Y02579*
X02171Y02577*
X02172Y02574*
X02173Y02572*
X02174Y02570*
X02175Y02568*
X02177Y02566*
X02179Y02564*
X02180Y02562*
X02182Y02560*
X02185Y02559*
X02187Y02557*
X02189Y02556*
X02191Y02555*
X02194Y02554*
X02196Y02554*
X02199Y02553*
X02201Y02553*
X02204Y02553*
X02205Y02553*
X01979Y04958D02*
D01*
X01975Y04954*
X01971Y04950*
X01968Y04945*
X01965Y04941*
X01962Y04936*
X01960Y04930*
X01958Y04925*
X01956Y04920*
X01955Y04914*
X01954Y04909*
X01954Y04903*
X01954Y04897*
X01954Y04892*
X01955Y04886*
X01956Y04881*
X01957Y04875*
X01959Y04870*
X01962Y04865*
X01964Y04860*
X01967Y04855*
X01970Y04850*
X01974Y04846*
X01978Y04842*
X01982Y04838*
X01986Y04835*
X01991Y04831*
X01996Y04829*
X02001Y04826*
X02006Y04824*
X02012Y04822*
X02017Y04821*
X02023Y04820*
X02028Y04819*
X02034Y04819*
X02039Y04819*
X02045Y04819*
X02051Y04820*
X02056Y04822*
X02061Y04823*
X02067Y04825*
X02072Y04828*
X02077Y04831*
X02081Y04834*
X02086Y04837*
X02090Y04841*
X02094Y04845*
X02098Y04849*
X02101Y04854*
X02104Y04858*
X02107Y04863*
X02109Y04869*
X02111Y04874*
X02113Y04879*
X02114Y04885*
X02115Y04890*
X02115Y04896*
X02115Y04900*
X01979Y04958D02*
D01*
X01975Y04954*
X01971Y04950*
X01968Y04945*
X01965Y04941*
X01962Y04936*
X01960Y04930*
X01958Y04925*
X01956Y04920*
X01955Y04914*
X01954Y04909*
X01954Y04903*
X01954Y04897*
X01954Y04892*
X01955Y04886*
X01956Y04881*
X01957Y04875*
X01959Y04870*
X01962Y04865*
X01964Y04860*
X01967Y04855*
X01970Y04850*
X01974Y04846*
X01978Y04842*
X01982Y04838*
X01986Y04835*
X01991Y04831*
X01996Y04829*
X02001Y04826*
X02006Y04824*
X02012Y04822*
X02017Y04821*
X02023Y04820*
X02028Y04819*
X02034Y04819*
X02039Y04819*
X02045Y04819*
X02051Y04820*
X02056Y04822*
X02061Y04823*
X02067Y04825*
X02072Y04828*
X02077Y04831*
X02081Y04834*
X02086Y04837*
X02090Y04841*
X02094Y04845*
X02098Y04849*
X02101Y04854*
X02104Y04858*
X02107Y04863*
X02109Y04869*
X02111Y04874*
X02113Y04879*
X02114Y04885*
X02115Y04890*
X02115Y04896*
X02115Y04900*
X01358Y04729D02*
D01*
X01358Y04730*
X01358Y04732*
X01357Y04733*
X01357Y04735*
X01356Y04736*
X01356Y04738*
X01355Y04739*
X01354Y04740*
X01354Y04741*
X01353Y04743*
X01352Y04744*
X01351Y04745*
X01349Y04746*
X01348Y04747*
X01347Y04748*
X01346Y04748*
X01344Y04749*
X01343Y04749*
X01341Y04750*
X01340Y04750*
X01338Y04750*
X01337Y04750*
X01335*
X01334Y04750*
X01332Y04750*
X01331Y04750*
X01329Y04749*
X01328Y04749*
X01327Y04748*
X01325Y04748*
X01324Y04747*
X01323Y04746*
X01321Y04745*
X01320Y04744*
X01319Y04743*
X01318Y04741*
X01318Y04740*
X01317Y04739*
X01316Y04738*
X01316Y04736*
X01315Y04735*
X01315Y04733*
X01315Y04732*
X01314Y04730*
X01314Y04729*
X01314Y04727*
X01315Y04726*
X01315Y04724*
X01315Y04723*
X01316Y04721*
X01316Y04720*
X01317Y04719*
X01318Y04717*
X01318Y04716*
X01319Y04715*
X01320Y04714*
X01321Y04713*
X01323Y04712*
X01324Y04711*
X01325Y04710*
X01327Y04709*
X01328Y04709*
X01329Y04708*
X01331Y04708*
X01332Y04707*
X01334Y04707*
X01335Y04707*
X01337*
X01338Y04707*
X01340Y04707*
X01341Y04708*
X01343Y04708*
X01344Y04709*
X01346Y04709*
X01347Y04710*
X01348Y04711*
X01349Y04712*
X01351Y04713*
X01352Y04714*
X01353Y04715*
X01354Y04716*
X01354Y04717*
X01355Y04719*
X01356Y04720*
X01356Y04721*
X01357Y04723*
X01357Y04724*
X01358Y04726*
X01358Y04727*
X01358Y04729*
X01838Y04175D02*
D01*
X01836Y04173*
X01835Y04171*
X01833Y04169*
X01832Y04167*
X01831Y04164*
X01830Y04162*
X01829Y04159*
X01828Y04157*
X01828Y04154*
X01827Y04152*
X01827Y04149*
X01827Y04148*
X01838Y04175D02*
D01*
X01836Y04173*
X01835Y04171*
X01833Y04169*
X01832Y04167*
X01831Y04164*
X01830Y04162*
X01829Y04159*
X01828Y04157*
X01827Y04154*
X01827Y04152*
X01827Y04149*
X01827Y04148*
X01373Y04315D02*
D01*
X01373Y04319*
X01372Y04323*
X01372Y04326*
X01371Y04330*
X01370Y04334*
X01368Y04337*
X01367Y04340*
X01365Y04344*
X01363Y04347*
X01360Y04350*
X01358Y04352*
X01356Y04354*
X01355Y04065D02*
D01*
X01358Y04068*
X01361Y04071*
X01364Y04074*
X01367Y04077*
X01370Y04080*
X01372Y04084*
X01374Y04088*
X01376Y04092*
X01377Y04096*
X01379Y04100*
X01379Y04104*
X01380Y04108*
X01381Y04112*
X01381Y04115*
D01*
X01380Y04120*
X01380Y04124*
X01379Y04128*
X01378Y04132*
X01377Y04136*
X01375Y04140*
X01373Y04144*
X01371Y04148*
X01369Y04151*
X01366Y04155*
X01363Y04158*
X01360Y04161*
X01357Y04163*
X01355Y04165*
X01381Y04015D02*
D01*
X01380Y04020*
X01380Y04024*
X01379Y04028*
X01378Y04032*
X01377Y04036*
X01375Y04040*
X01373Y04044*
X01371Y04048*
X01369Y04051*
X01366Y04055*
X01363Y04058*
X01360Y04061*
X01357Y04063*
X01355Y04065*
X01381Y04215D02*
D01*
X01380Y04220*
X01380Y04224*
X01379Y04228*
X01378Y04232*
X01377Y04236*
X01375Y04240*
X01373Y04244*
X01371Y04248*
X01369Y04251*
X01366Y04255*
X01363Y04258*
X01360Y04261*
X01357Y04263*
X01354Y04266*
X01350Y04268*
X01347Y04270*
D01*
X01350Y04272*
X01353Y04274*
X01356Y04277*
X01359Y04279*
X01361Y04282*
X01363Y04285*
X01365Y04288*
X01367Y04291*
X01369Y04295*
X01370Y04298*
X01371Y04302*
X01372Y04305*
X01373Y04309*
X01373Y04313*
X01373Y04315*
X01355Y04165D02*
D01*
X01358Y04168*
X01361Y04171*
X01364Y04174*
X01367Y04177*
X01370Y04180*
X01372Y04184*
X01374Y04188*
X01376Y04192*
X01377Y04196*
X01379Y04200*
X01379Y04204*
X01380Y04208*
X01381Y04212*
X01381Y04215*
X01283Y04354D02*
D01*
X01280Y04352*
X01278Y04349*
X01276Y04346*
X01274Y04343*
X01272Y04339*
X01270Y04336*
X01269Y04333*
X01268Y04329*
X01267Y04325*
X01267Y04322*
X01266Y04318*
X01266Y04314*
X01266Y04310*
X01267Y04307*
X01268Y04303*
X01269Y04300*
X01270Y04296*
X01271Y04293*
X01273Y04289*
X01275Y04286*
X01277Y04283*
X01279Y04280*
X01282Y04277*
X01285Y04275*
X01288Y04273*
X01291Y04270*
X01292Y04270*
X01284Y04165D02*
D01*
X01281Y04163*
X01278Y04160*
X01275Y04157*
X01272Y04154*
X01269Y04150*
X01267Y04147*
X01265Y04143*
X01263Y04139*
X01262Y04135*
X01260Y04131*
X01260Y04127*
X01259Y04123*
X01258Y04118*
X01258Y04114*
X01259Y04110*
X01259Y04106*
X01260Y04102*
X01261Y04097*
X01262Y04093*
X01264Y04089*
X01266Y04086*
X01268Y04082*
X01271Y04079*
X01273Y04075*
X01276Y04072*
X01279Y04069*
X01283Y04067*
X01284Y04065*
X01292Y04270D02*
D01*
X01288Y04268*
X01284Y04265*
X01281Y04263*
X01278Y04260*
X01275Y04257*
X01272Y04254*
X01269Y04250*
X01267Y04247*
X01265Y04243*
X01263Y04239*
X01262Y04235*
X01260Y04231*
X01260Y04227*
X01259Y04223*
X01258Y04218*
X01258Y04214*
X01259Y04210*
X01259Y04206*
X01260Y04202*
X01261Y04197*
X01262Y04193*
X01264Y04189*
X01266Y04186*
X01268Y04182*
X01271Y04179*
X01273Y04175*
X01276Y04172*
X01279Y04169*
X01283Y04167*
X01284Y04165*
X01381Y03615D02*
D01*
X01380Y03620*
X01380Y03624*
X01379Y03628*
X01378Y03632*
X01377Y03636*
X01375Y03640*
X01373Y03644*
X01371Y03648*
X01369Y03651*
X01366Y03655*
X01363Y03658*
X01360Y03661*
X01357Y03663*
X01355Y03665*
D01*
X01358Y03668*
X01361Y03671*
X01364Y03674*
X01367Y03677*
X01370Y03680*
X01372Y03684*
X01374Y03688*
X01376Y03692*
X01377Y03696*
X01379Y03700*
X01379Y03704*
X01380Y03708*
X01381Y03712*
X01381Y03715*
X01355Y03765D02*
D01*
X01358Y03768*
X01361Y03771*
X01364Y03774*
X01367Y03777*
X01370Y03780*
X01372Y03784*
X01374Y03788*
X01376Y03792*
X01377Y03796*
X01379Y03800*
X01379Y03804*
X01380Y03808*
X01381Y03812*
X01381Y03815*
Y03715D02*
D01*
X01380Y03720*
X01380Y03724*
X01379Y03728*
X01378Y03732*
X01377Y03736*
X01375Y03740*
X01373Y03744*
X01371Y03748*
X01369Y03751*
X01366Y03755*
X01363Y03758*
X01360Y03761*
X01357Y03763*
X01355Y03765*
Y03365D02*
D01*
X01358Y03368*
X01361Y03371*
X01364Y03374*
X01367Y03377*
X01370Y03380*
X01372Y03384*
X01374Y03388*
X01376Y03392*
X01377Y03396*
X01379Y03400*
X01379Y03404*
X01380Y03408*
X01381Y03412*
X01381Y03415*
D01*
X01380Y03420*
X01380Y03424*
X01379Y03428*
X01378Y03432*
X01377Y03436*
X01375Y03440*
X01373Y03444*
X01371Y03448*
X01369Y03451*
X01366Y03455*
X01363Y03458*
X01360Y03461*
X01357Y03463*
X01355Y03465*
X01381Y03315D02*
D01*
X01380Y03320*
X01380Y03324*
X01379Y03328*
X01378Y03332*
X01377Y03336*
X01375Y03340*
X01373Y03344*
X01371Y03348*
X01369Y03351*
X01366Y03355*
X01363Y03358*
X01360Y03361*
X01357Y03363*
X01355Y03365*
X01381Y03515D02*
D01*
X01380Y03520*
X01380Y03524*
X01379Y03528*
X01378Y03532*
X01377Y03536*
X01375Y03540*
X01373Y03544*
X01371Y03548*
X01369Y03551*
X01366Y03555*
X01363Y03558*
X01360Y03561*
X01357Y03563*
X01355Y03565*
D01*
X01358Y03568*
X01361Y03571*
X01364Y03574*
X01367Y03577*
X01370Y03580*
X01372Y03584*
X01374Y03588*
X01376Y03592*
X01377Y03596*
X01379Y03600*
X01379Y03604*
X01380Y03608*
X01381Y03612*
X01381Y03615*
X01355Y03465D02*
D01*
X01358Y03468*
X01361Y03471*
X01364Y03474*
X01367Y03477*
X01370Y03480*
X01372Y03484*
X01374Y03488*
X01376Y03492*
X01377Y03496*
X01379Y03500*
X01379Y03504*
X01380Y03508*
X01381Y03512*
X01381Y03515*
Y03915D02*
D01*
X01380Y03920*
X01380Y03924*
X01379Y03928*
X01378Y03932*
X01377Y03936*
X01375Y03940*
X01373Y03944*
X01371Y03948*
X01369Y03951*
X01366Y03955*
X01363Y03958*
X01360Y03961*
X01357Y03963*
X01355Y03965*
D01*
X01358Y03968*
X01361Y03971*
X01364Y03974*
X01367Y03977*
X01370Y03980*
X01372Y03984*
X01374Y03988*
X01376Y03992*
X01377Y03996*
X01379Y04000*
X01379Y04004*
X01380Y04008*
X01381Y04012*
X01381Y04015*
X01355Y03865D02*
D01*
X01358Y03868*
X01361Y03871*
X01364Y03874*
X01367Y03877*
X01370Y03880*
X01372Y03884*
X01374Y03888*
X01376Y03892*
X01377Y03896*
X01379Y03900*
X01379Y03904*
X01380Y03908*
X01381Y03912*
X01381Y03915*
X01284Y03965D02*
D01*
X01281Y03963*
X01278Y03960*
X01275Y03957*
X01272Y03954*
X01269Y03950*
X01267Y03947*
X01265Y03943*
X01263Y03939*
X01262Y03935*
X01260Y03931*
X01260Y03927*
X01259Y03923*
X01258Y03918*
X01258Y03914*
X01259Y03910*
X01259Y03906*
X01260Y03902*
X01261Y03897*
X01262Y03893*
X01264Y03889*
X01266Y03886*
X01268Y03882*
X01271Y03879*
X01273Y03875*
X01276Y03872*
X01279Y03869*
X01283Y03867*
X01284Y03865*
Y04065D02*
D01*
X01281Y04063*
X01278Y04060*
X01275Y04057*
X01272Y04054*
X01269Y04050*
X01267Y04047*
X01265Y04043*
X01263Y04039*
X01262Y04035*
X01260Y04031*
X01260Y04027*
X01259Y04023*
X01258Y04018*
X01258Y04014*
X01259Y04010*
X01259Y04006*
X01260Y04002*
X01261Y03997*
X01262Y03993*
X01264Y03989*
X01266Y03986*
X01268Y03982*
X01271Y03979*
X01273Y03975*
X01276Y03972*
X01279Y03969*
X01283Y03967*
X01284Y03965*
Y03865D02*
D01*
X01281Y03863*
X01278Y03860*
X01275Y03857*
X01272Y03854*
X01269Y03850*
X01267Y03847*
X01265Y03843*
X01263Y03839*
X01262Y03835*
X01260Y03831*
X01260Y03827*
X01259Y03823*
X01258Y03818*
X01258Y03814*
X01259Y03810*
X01259Y03806*
X01260Y03802*
X01261Y03797*
X01262Y03793*
X01264Y03789*
X01266Y03786*
X01268Y03782*
X01271Y03779*
X01273Y03775*
X01276Y03772*
X01279Y03769*
X01283Y03767*
X01284Y03765*
X01381Y03815D02*
D01*
X01380Y03820*
X01380Y03824*
X01379Y03828*
X01378Y03832*
X01377Y03836*
X01375Y03840*
X01373Y03844*
X01371Y03848*
X01369Y03851*
X01366Y03855*
X01363Y03858*
X01360Y03861*
X01357Y03863*
X01355Y03865*
X01284Y03565D02*
D01*
X01281Y03563*
X01278Y03560*
X01275Y03557*
X01272Y03554*
X01269Y03550*
X01267Y03547*
X01265Y03543*
X01263Y03539*
X01262Y03535*
X01260Y03531*
X01260Y03527*
X01259Y03523*
X01258Y03518*
X01258Y03514*
X01259Y03510*
X01259Y03506*
X01260Y03502*
X01261Y03497*
X01262Y03493*
X01264Y03489*
X01266Y03486*
X01268Y03482*
X01271Y03479*
X01273Y03475*
X01276Y03472*
X01279Y03469*
X01283Y03467*
X01284Y03465*
D01*
X01281Y03463*
X01278Y03460*
X01275Y03457*
X01272Y03454*
X01269Y03450*
X01267Y03447*
X01265Y03443*
X01263Y03439*
X01262Y03435*
X01260Y03431*
X01260Y03427*
X01259Y03423*
X01258Y03418*
X01258Y03414*
X01259Y03410*
X01259Y03406*
X01260Y03402*
X01261Y03397*
X01262Y03393*
X01264Y03389*
X01266Y03386*
X01268Y03382*
X01271Y03379*
X01273Y03375*
X01276Y03372*
X01279Y03369*
X01283Y03367*
X01284Y03365*
Y03765D02*
D01*
X01281Y03763*
X01278Y03760*
X01275Y03757*
X01272Y03754*
X01269Y03750*
X01267Y03747*
X01265Y03743*
X01263Y03739*
X01262Y03735*
X01260Y03731*
X01260Y03727*
X01259Y03723*
X01258Y03718*
X01258Y03714*
X01259Y03710*
X01259Y03706*
X01260Y03702*
X01261Y03697*
X01262Y03693*
X01264Y03689*
X01266Y03686*
X01268Y03682*
X01271Y03679*
X01273Y03675*
X01276Y03672*
X01279Y03669*
X01283Y03667*
X01284Y03665*
D01*
X01281Y03663*
X01278Y03660*
X01275Y03657*
X01272Y03654*
X01269Y03650*
X01267Y03647*
X01265Y03643*
X01263Y03639*
X01262Y03635*
X01260Y03631*
X01260Y03627*
X01259Y03623*
X01258Y03618*
X01258Y03614*
X01259Y03610*
X01259Y03606*
X01260Y03602*
X01261Y03597*
X01262Y03593*
X01264Y03589*
X01266Y03586*
X01268Y03582*
X01271Y03579*
X01273Y03575*
X01276Y03572*
X01279Y03569*
X01283Y03567*
X01284Y03565*
X01919Y02638D02*
D01*
X01917Y02640*
X01915Y02642*
X01913Y02643*
X01910Y02645*
X01908Y02646*
X01906Y02647*
X01903Y02648*
X01901Y02648*
X01898Y02649*
X01895Y02649*
X01893Y02649*
X01892Y02649*
X01919Y02638D02*
D01*
X01917Y02640*
X01915Y02642*
X01913Y02643*
X01910Y02645*
X01908Y02646*
X01906Y02647*
X01903Y02648*
X01901Y02648*
X01898Y02649*
X01895Y02649*
X01893Y02649*
X01892Y02649*
X01852D02*
D01*
X01849Y02653*
X01846Y02657*
X01843Y02660*
X01839Y02663*
X01836Y02666*
X01832Y02669*
X01828Y02671*
X01824Y02673*
X01819Y02675*
X01815Y02676*
X01810Y02677*
X01806Y02678*
X01801Y02679*
X01796Y02679*
X01792Y02679*
X01787Y02678*
X01782Y02677*
X01778Y02676*
X01773Y02675*
X01769Y02673*
X01765Y02671*
X01761Y02669*
X01757Y02666*
X01753Y02663*
X01750Y02660*
X01747Y02657*
X01744Y02653*
X01741Y02649*
X01738Y02645*
X01736Y02641*
X01734Y02637*
X01733Y02632*
X01731Y02628*
X01730Y02623*
X01730Y02619*
X01729Y02614*
Y02609*
X01730Y02605*
X01730Y02600*
X01731Y02596*
X01733Y02591*
X01734Y02587*
X01736Y02582*
X01738Y02578*
X01741Y02574*
X01744Y02571*
X01747Y02567*
X01750Y02564*
X01753Y02560*
X01757Y02558*
X01761Y02555*
X01765Y02553*
X01769Y02551*
X01773Y02549*
X01778Y02547*
X01782Y02546*
X01787Y02545*
X01792Y02545*
X01796Y02545*
X01801Y02545*
X01806Y02545*
X01810Y02546*
X01815Y02547*
X01819Y02549*
X01824Y02551*
X01828Y02553*
X01832Y02555*
X01836Y02558*
X01839Y02560*
X01843Y02564*
X01846Y02567*
X01849Y02571*
X01852Y02574*
X01666Y02612D02*
D01*
X01666Y02616*
X01666Y02621*
X01665Y02626*
X01664Y02630*
X01662Y02635*
X01661Y02639*
X01659Y02643*
X01656Y02647*
X01654Y02651*
X01651Y02655*
X01648Y02658*
X01644Y02662*
X01641Y02665*
X01639Y02666*
X01537Y02588D02*
D01*
X01539Y02583*
X01541Y02579*
X01543Y02575*
X01546Y02571*
X01549Y02568*
X01552Y02564*
X01556Y02561*
X01559Y02558*
X01563Y02556*
X01567Y02553*
X01571Y02551*
X01576Y02549*
X01580Y02548*
X01584Y02547*
X01589Y02546*
X01594Y02545*
X01598Y02545*
X01603Y02545*
X01608Y02545*
X01612Y02546*
X01617Y02547*
X01621Y02548*
X01626Y02550*
X01630Y02552*
X01634Y02554*
X01638Y02557*
X01642Y02560*
X01645Y02563*
X01649Y02566*
X01652Y02570*
X01654Y02573*
X01657Y02577*
X01659Y02581*
X01661Y02586*
X01663Y02590*
X01664Y02594*
X01665Y02599*
X01666Y02604*
X01666Y02608*
X01666Y02612*
X01381Y03215D02*
D01*
X01380Y03220*
X01380Y03224*
X01379Y03228*
X01378Y03232*
X01377Y03236*
X01375Y03240*
X01373Y03244*
X01371Y03248*
X01369Y03251*
X01366Y03255*
X01363Y03258*
X01360Y03261*
X01357Y03263*
X01355Y03265*
D01*
X01358Y03268*
X01361Y03271*
X01364Y03274*
X01367Y03277*
X01370Y03280*
X01372Y03284*
X01374Y03288*
X01376Y03292*
X01377Y03296*
X01379Y03300*
X01379Y03304*
X01380Y03308*
X01381Y03312*
X01381Y03315*
X01355Y03165D02*
D01*
X01358Y03168*
X01361Y03171*
X01364Y03174*
X01367Y03177*
X01370Y03180*
X01372Y03184*
X01374Y03188*
X01376Y03192*
X01377Y03196*
X01379Y03200*
X01379Y03204*
X01380Y03208*
X01381Y03212*
X01381Y03215*
X01284Y03265D02*
D01*
X01281Y03263*
X01278Y03260*
X01275Y03257*
X01272Y03254*
X01269Y03250*
X01267Y03247*
X01265Y03243*
X01263Y03239*
X01262Y03235*
X01260Y03231*
X01260Y03227*
X01259Y03223*
X01258Y03218*
X01258Y03214*
X01259Y03210*
X01259Y03206*
X01260Y03202*
X01261Y03197*
X01262Y03193*
X01264Y03189*
X01266Y03186*
X01268Y03182*
X01271Y03179*
X01273Y03175*
X01276Y03172*
X01279Y03169*
X01283Y03167*
X01284Y03165*
Y03365D02*
D01*
X01281Y03363*
X01278Y03360*
X01275Y03357*
X01272Y03354*
X01269Y03350*
X01267Y03347*
X01265Y03343*
X01263Y03339*
X01262Y03335*
X01260Y03331*
X01260Y03327*
X01259Y03323*
X01258Y03318*
X01258Y03314*
X01259Y03310*
X01259Y03306*
X01260Y03302*
X01261Y03297*
X01262Y03293*
X01264Y03289*
X01266Y03286*
X01268Y03282*
X01271Y03279*
X01273Y03275*
X01276Y03272*
X01279Y03269*
X01283Y03267*
X01284Y03265*
X01355Y03065D02*
D01*
X01358Y03068*
X01361Y03071*
X01364Y03074*
X01367Y03077*
X01370Y03080*
X01372Y03084*
X01374Y03088*
X01376Y03092*
X01377Y03096*
X01379Y03100*
X01379Y03104*
X01380Y03108*
X01381Y03112*
X01381Y03115*
D01*
X01380Y03120*
X01380Y03124*
X01379Y03128*
X01378Y03132*
X01377Y03136*
X01375Y03140*
X01373Y03144*
X01371Y03148*
X01369Y03151*
X01366Y03155*
X01363Y03158*
X01360Y03161*
X01357Y03163*
X01355Y03165*
X01381Y03015D02*
D01*
X01380Y03020*
X01380Y03024*
X01379Y03028*
X01378Y03032*
X01377Y03036*
X01375Y03040*
X01373Y03044*
X01371Y03048*
X01369Y03051*
X01366Y03055*
X01363Y03058*
X01360Y03061*
X01357Y03063*
X01355Y03065*
X01284Y03165D02*
D01*
X01281Y03163*
X01278Y03160*
X01275Y03157*
X01272Y03154*
X01269Y03150*
X01267Y03147*
X01265Y03143*
X01263Y03139*
X01262Y03135*
X01260Y03131*
X01260Y03127*
X01259Y03123*
X01258Y03118*
X01258Y03114*
X01259Y03110*
X01259Y03106*
X01260Y03102*
X01261Y03097*
X01262Y03093*
X01264Y03089*
X01266Y03086*
X01268Y03082*
X01271Y03079*
X01273Y03075*
X01276Y03072*
X01279Y03069*
X01283Y03067*
X01284Y03065*
D01*
X01281Y03063*
X01278Y03060*
X01275Y03057*
X01272Y03054*
X01269Y03050*
X01267Y03047*
X01265Y03043*
X01263Y03039*
X01262Y03035*
X01260Y03031*
X01260Y03027*
X01259Y03023*
X01258Y03018*
X01258Y03014*
X01259Y03010*
X01259Y03006*
X01260Y03002*
X01261Y02997*
X01262Y02993*
X01264Y02989*
X01266Y02986*
X01268Y02982*
X01271Y02979*
X01273Y02975*
X01276Y02972*
X01279Y02969*
X01283Y02967*
X01286Y02964*
X01290Y02962*
X01294Y02960*
X01298Y02958*
X01302Y02957*
X01306Y02956*
X01310Y02955*
X01314Y02954*
X01318Y02954*
X01323Y02954*
X01327Y02955*
X01331Y02955*
X01335Y02956*
X01339Y02958*
X01343Y02959*
X01347Y02961*
X01351Y02963*
X01355Y02965*
X01358Y02968*
X01361Y02971*
X01364Y02974*
X01367Y02977*
X01370Y02980*
X01372Y02984*
X01374Y02988*
X01376Y02992*
X01377Y02996*
X01379Y03000*
X01379Y03004*
X01380Y03008*
X01381Y03012*
X01381Y03015*
X01358Y02880D02*
D01*
X01358Y02882*
X01358Y02883*
X01357Y02885*
X01357Y02886*
X01356Y02888*
X01356Y02889*
X01355Y02890*
X01354Y02892*
X01354Y02893*
X01353Y02894*
X01352Y02895*
X01351Y02896*
X01349Y02897*
X01348Y02898*
X01347Y02899*
X01346Y02900*
X01344Y02900*
X01343Y02901*
X01341Y02901*
X01340Y02902*
X01338Y02902*
X01337Y02902*
X01335*
X01334Y02902*
X01332Y02902*
X01331Y02901*
X01329Y02901*
X01328Y02900*
X01327Y02900*
X01325Y02899*
X01324Y02898*
X01323Y02897*
X01321Y02896*
X01320Y02895*
X01319Y02894*
X01318Y02893*
X01318Y02892*
X01317Y02890*
X01316Y02889*
X01316Y02888*
X01315Y02886*
X01315Y02885*
X01315Y02883*
X01314Y02882*
X01314Y02880*
X01314Y02879*
X01315Y02877*
X01315Y02876*
X01315Y02874*
X01316Y02873*
X01316Y02871*
X01317Y02870*
X01318Y02869*
X01318Y02868*
X01319Y02866*
X01320Y02865*
X01321Y02864*
X01323Y02863*
X01324Y02862*
X01325Y02861*
X01327Y02861*
X01328Y02860*
X01329Y02860*
X01331Y02859*
X01332Y02859*
X01334Y02859*
X01335Y02859*
X01337*
X01338Y02859*
X01340Y02859*
X01341Y02859*
X01343Y02860*
X01344Y02860*
X01346Y02861*
X01347Y02861*
X01348Y02862*
X01349Y02863*
X01351Y02864*
X01352Y02865*
X01353Y02866*
X01354Y02868*
X01354Y02869*
X01355Y02870*
X01356Y02871*
X01356Y02873*
X01357Y02874*
X01357Y02876*
X01358Y02877*
X01358Y02879*
X01358Y02880*
X01473Y02731D02*
D01*
X01471Y02729*
X01470Y02727*
X01468Y02725*
X01467Y02723*
X01466Y02720*
X01465Y02718*
X01464Y02715*
X01463Y02713*
X01463Y02710*
X01462Y02708*
X01462Y02705*
X01462Y02705*
X01473Y02731D02*
D01*
X01471Y02729*
X01470Y02727*
X01468Y02725*
X01467Y02723*
X01466Y02720*
X01465Y02718*
X01464Y02715*
X01463Y02713*
X01462Y02710*
X01462Y02708*
X01462Y02705*
X01462Y02705*
Y02558D02*
D01*
X01462Y02556*
X01462Y02553*
X01463Y02551*
X01463Y02548*
X01464Y02546*
X01465Y02543*
X01466Y02541*
X01468Y02539*
X01469Y02536*
X01471Y02534*
X01473Y02532*
X01473Y02532*
X01462Y02634D02*
D01*
X01462Y02637*
X01462Y02640*
X01461Y02642*
X01461Y02645*
X01460Y02647*
X01459Y02649*
X01458Y02652*
X01456Y02654*
X01455Y02656*
X01453Y02658*
X01452Y02660*
X01450Y02662*
X01448Y02663*
X01446Y02665*
X01444Y02666*
X01441Y02667*
X01439Y02668*
X01437Y02669*
X01434Y02670*
X01432Y02671*
X01429Y02671*
X01427Y02671*
X01425Y02671*
X01380D02*
D01*
X01377Y02671*
X01375Y02671*
X01372Y02670*
X01370Y02670*
X01367Y02669*
X01365Y02668*
X01363Y02667*
X01361Y02665*
X01358Y02664*
X01356Y02662*
X01355Y02661*
X01353Y02659*
X01351Y02657*
X01350Y02655*
X01348Y02653*
X01347Y02650*
X01346Y02648*
X01345Y02646*
X01344Y02643*
X01344Y02641*
X01344Y02638*
X01343Y02636*
X01343Y02634*
X01425Y02553D02*
D01*
X01428Y02553*
X01430Y02553*
X01433Y02553*
X01435Y02554*
X01438Y02555*
X01440Y02556*
X01442Y02557*
X01445Y02558*
X01447Y02560*
X01449Y02561*
X01451Y02563*
X01453Y02565*
X01454Y02567*
X01456Y02569*
X01457Y02571*
X01458Y02573*
X01459Y02575*
X01460Y02578*
X01461Y02580*
X01461Y02583*
X01462Y02585*
X01462Y02588*
X01462Y02589*
X01343D02*
D01*
X01343Y02587*
X01344Y02584*
X01344Y02582*
X01345Y02579*
X01346Y02577*
X01347Y02574*
X01348Y02572*
X01349Y02570*
X01350Y02568*
X01352Y02566*
X01354Y02564*
X01355Y02562*
X01357Y02560*
X01360Y02559*
X01362Y02557*
X01364Y02556*
X01366Y02555*
X01369Y02554*
X01371Y02554*
X01374Y02553*
X01376Y02553*
X01379Y02553*
X01380Y02553*
X01538Y02467D02*
D01*
X01540Y02465*
X01542Y02464*
X01544Y02462*
X01546Y02461*
X01548Y02460*
X01551Y02459*
X01553Y02458*
X01556Y02457*
X01558Y02457*
X01561Y02456*
X01564Y02456*
X01564Y02456*
X01538Y02467D02*
D01*
X01540Y02465*
X01542Y02464*
X01544Y02462*
X01546Y02461*
X01548Y02460*
X01551Y02459*
X01553Y02458*
X01556Y02457*
X01558Y02457*
X01561Y02456*
X01564Y02456*
X01564Y02456*
X01462Y02558D02*
D01*
X01462Y02556*
X01462Y02553*
X01463Y02551*
X01463Y02548*
X01464Y02546*
X01465Y02543*
X01466Y02541*
X01468Y02539*
X01469Y02536*
X01471Y02534*
X01473Y02532*
X01473Y02532*
X01173Y02391D02*
D01*
X01178Y02393*
X01183Y02396*
X01187Y02399*
X01192Y02403*
X01196Y02407*
X01200Y02411*
X01203Y02415*
X01207Y02420*
X01210Y02425*
X01212Y02430*
X01215Y02435*
X01216Y02440*
X01218Y02445*
X01219Y02451*
X01220Y02457*
X01220Y02462*
X01220Y02465*
D01*
X01220Y02470*
X01219Y02476*
X01219Y02481*
X01217Y02487*
X01215Y02492*
X01213Y02497*
X01211Y02502*
X01208Y02507*
X01205Y02512*
X01201Y02516*
X01198Y02521*
X01194Y02525*
X01189Y02528*
X01185Y02531*
X01180Y02534*
X01175Y02537*
X01170Y02539*
X01164Y02541*
X01159Y02543*
X01154Y02544*
X01148Y02545*
X01142Y02545*
X01137*
X01131Y02545*
X01125Y02544*
X01120Y02543*
X01115Y02541*
X01109Y02539*
X01104Y02537*
X01099Y02534*
X01094Y02531*
X01090Y02528*
X01085Y02525*
X01081Y02521*
X01078Y02516*
X01074Y02512*
X01071Y02507*
X01068Y02502*
X01066Y02497*
X01064Y02492*
X01062Y02487*
X01060Y02481*
X01060Y02476*
X01059Y02470*
X01059Y02464*
X01059Y02459*
X01060Y02453*
X01060Y02448*
X01062Y02442*
X01064Y02437*
X01066Y02432*
X01068Y02427*
X01071Y02422*
X01074Y02417*
X01078Y02413*
X01081Y02408*
X01085Y02404*
X01090Y02401*
X01094Y02398*
X01099Y02395*
X01104Y02392*
X01106Y02391*
X01173D02*
D01*
X01178Y02393*
X01183Y02396*
X01187Y02399*
X01192Y02403*
X01196Y02407*
X01200Y02411*
X01203Y02415*
X01207Y02420*
X01210Y02425*
X01212Y02430*
X01215Y02435*
X01216Y02440*
X01218Y02445*
X01219Y02451*
X01220Y02457*
X01220Y02462*
X01220Y02465*
D01*
X01220Y02470*
X01219Y02476*
X01219Y02481*
X01217Y02487*
X01215Y02492*
X01213Y02497*
X01211Y02502*
X01208Y02507*
X01205Y02512*
X01201Y02516*
X01198Y02521*
X01194Y02525*
X01189Y02528*
X01185Y02531*
X01180Y02534*
X01175Y02537*
X01170Y02539*
X01164Y02541*
X01159Y02543*
X01154Y02544*
X01148Y02545*
X01142Y02545*
X01137*
X01131Y02545*
X01125Y02544*
X01120Y02543*
X01115Y02541*
X01109Y02539*
X01104Y02537*
X01099Y02534*
X01094Y02531*
X01090Y02528*
X01085Y02525*
X01081Y02521*
X01078Y02516*
X01074Y02512*
X01071Y02507*
X01068Y02502*
X01066Y02497*
X01064Y02492*
X01062Y02487*
X01060Y02481*
X01060Y02476*
X01059Y02470*
X01059Y02464*
X01059Y02459*
X01060Y02453*
X01060Y02448*
X01062Y02442*
X01064Y02437*
X01066Y02432*
X01068Y02427*
X01071Y02422*
X01074Y02417*
X01078Y02413*
X01081Y02408*
X01085Y02404*
X01090Y02401*
X01094Y02398*
X01099Y02395*
X01104Y02392*
X01106Y02391*
X02847Y04958D02*
X03043Y04762D01*
X02876Y04958D02*
X03043Y04791D01*
X02870Y04736D02*
X03043Y04910D01*
X02819Y04958D02*
X03043Y04734D01*
X02841Y04736D02*
X03043Y04938D01*
X02791Y04958D02*
X03043Y04706D01*
X02880Y04605D02*
X03043Y04768D01*
X02880Y04634D02*
X03043Y04797D01*
X02880Y04728D02*
X03043Y04564D01*
X02880Y04690D02*
X03043Y04853D01*
X02880Y04718D02*
X03043Y04882D01*
X02880Y04662D02*
X03043Y04825D01*
X02989Y04958D02*
X03043Y04904D01*
X03017Y04958D02*
X03043Y04932D01*
X02961Y04958D02*
X03043Y04876D01*
X02904Y04958D02*
X03043Y04819D01*
X02932Y04958D02*
X03043Y04847D01*
X02813Y04736D02*
X03035Y04958D01*
X02877Y04603D02*
X02880Y04605D01*
X02871Y04736D02*
X02880Y04728D01*
Y04603D02*
Y04736D01*
X02842Y04603D02*
X02880D01*
X02842Y04596D02*
X02849Y04603D01*
X02842Y04567D02*
X02877Y04603D01*
X02842Y04341D02*
X03043Y04542D01*
X02842Y04567D02*
X03043Y04366D01*
X02842Y04539D02*
X03043Y04338D01*
X02842Y04596D02*
X03043Y04395D01*
X02842Y04398D02*
X03043Y04599D01*
X02842Y04369D02*
X03043Y04570D01*
X02842Y04482D02*
X03043Y04282D01*
X02842Y04256D02*
X03043Y04457D01*
X02842Y04454D02*
X03043Y04253D01*
X02842Y04511D02*
X03043Y04310D01*
X02842Y04313D02*
X03043Y04514D01*
X02842Y04285D02*
X03043Y04486D01*
X02880Y04671D02*
X03043Y04508D01*
X02880Y04699D02*
X03043Y04536D01*
X02842Y04454D02*
X03043Y04655D01*
X02842Y04511D02*
X03043Y04712D01*
X02842Y04539D02*
X03043Y04740D01*
X02842Y04483D02*
X03043Y04684D01*
X02880Y04614D02*
X03043Y04451D01*
X02880Y04643D02*
X03043Y04480D01*
X02864Y04603D02*
X03043Y04423D01*
X02842Y04426D02*
X03043Y04627D01*
X02842Y04196D02*
Y04603D01*
X02785Y04736D02*
X03006Y04958D01*
X02757Y04736D02*
X02978Y04958D01*
X02674Y04682D02*
X02950Y04958D01*
X02652Y04717D02*
X02893Y04958D01*
X02649D02*
X02871Y04736D01*
X02666Y04702D02*
X02922Y04958D01*
X02763D02*
X03043Y04678D01*
X02746Y04736D02*
X02880D01*
X02734Y04958D02*
X03043Y04649D01*
X02706Y04958D02*
X03043Y04621D01*
X02090Y04958D02*
X03043D01*
X02678D02*
X03043Y04593D01*
X02621Y04958D02*
X02843Y04736D01*
X02607Y04728D02*
X02837Y04958D01*
X02633Y04726D02*
X02865Y04958D01*
X02565D02*
X02786Y04736D01*
X02536Y04958D02*
X02758Y04736D01*
X02593Y04958D02*
X02814Y04736D01*
X02779Y04603D02*
X02784Y04597D01*
X02746Y04603D02*
X02784D01*
X02750D02*
X02784Y04569D01*
X02673Y04652D02*
X02784Y04541D01*
X02746Y04726D02*
X02757Y04736D01*
X02663Y04633D02*
X02784Y04513D01*
X02326Y04476D02*
X02808Y04958D01*
X02321Y04721D02*
X02784Y04258D01*
Y04194D02*
Y04603D01*
X02306Y04708D02*
X02784Y04230D01*
X02112Y04958D02*
X02784Y04286D01*
X02111Y04874D02*
X02784Y04202D01*
X02380Y04105D02*
X02784Y04509D01*
X02378Y04132D02*
X02784Y04537D01*
X02374Y04043D02*
X02784Y04452D01*
X02369Y04151D02*
X02784Y04566D01*
X02368Y04178D02*
X02784Y04594D01*
X02362Y04059D02*
X02784Y04481D01*
X02225Y04958D02*
X02784Y04400D01*
X02292Y04470D02*
X02780Y04958D01*
X02197D02*
X02784Y04371D01*
X02140Y04958D02*
X02784Y04315D01*
X02169Y04958D02*
X02784Y04343D01*
X02102Y04855D02*
X02773Y04184D01*
X02628Y04612D02*
X02784Y04456D01*
X02648Y04620D02*
X02784Y04484D01*
X02599Y04613D02*
X02784Y04428D01*
X02380Y04219D02*
X02764Y04603D01*
X02089Y04840D02*
X02762Y04166D01*
X02842Y04228D02*
X03043Y04027D01*
X02868Y04113D02*
X03043Y04288D01*
X02842Y04200D02*
X03043Y03999D01*
X02842Y04285D02*
X03043Y04084D01*
X02842Y04313D02*
X03043Y04112D01*
X02842Y04256D02*
X03043Y04055D01*
X02869Y04116D02*
X03043Y03942D01*
X02870Y04144D02*
X03043Y03970D01*
X02861Y04096D02*
X03043Y03914D01*
X02829Y04071D02*
X03043Y03857D01*
X02848Y04081D02*
X03043Y03886D01*
X02801Y04071D02*
X03043Y03829D01*
X02842Y04398D02*
X03043Y04197D01*
X02842Y04200D02*
X03043Y04401D01*
X02856Y04185D02*
X03043Y04372D01*
X02842Y04426D02*
X03043Y04225D01*
X02842Y04228D02*
X03043Y04429D01*
X02842Y04200D02*
X03043Y04401D01*
X02870Y04142D02*
X03043Y04316D01*
X02866Y04167D02*
X03043Y04344D01*
X02870Y04125D02*
Y04148D01*
X02842Y04369D02*
X03043Y04168D01*
X02842Y04341D02*
X03043Y04140D01*
X02870Y03690D02*
X03043Y03863D01*
X02870Y03718D02*
X03043Y03892D01*
X02870Y03804D02*
X03043Y03631D01*
X02870Y03775D02*
X03043Y03948D01*
X02870Y03803D02*
X03043Y03976D01*
X02870Y03746D02*
X03043Y03920D01*
X02870Y03720D02*
X03043Y03546D01*
X02870Y03748D02*
X03043Y03574D01*
X02870Y03691D02*
X03043Y03518D01*
X02857Y03676D02*
X03043Y03490D01*
X02870Y03776D02*
X03043Y03603D01*
X02829Y03676D02*
X03043Y03461D01*
X02820Y03810D02*
X03043Y04033D01*
X02791Y03810D02*
X03043Y04061D01*
X02848Y03810D02*
X03043Y04005D01*
X02763Y03810D02*
X03043Y04090D01*
X02759Y03806D02*
X02763Y03810D01*
X02759Y03767D02*
Y03810D01*
Y03676D02*
X02870D01*
X02864Y03810D02*
X02870Y03804D01*
Y03676D02*
Y03810D01*
X02759D02*
X02870D01*
X02759Y03676D02*
Y03708D01*
X02662Y04182D02*
X03043Y03801D01*
X02662Y04076D02*
X02784Y04198D01*
X02639Y03799D02*
X03043Y04203D01*
X02373Y04244D02*
X02808Y03810D01*
X02380Y04021D02*
X02784Y04424D01*
X02617Y03805D02*
X03043Y04231D01*
X02662Y04154D02*
X03043Y03772D01*
X02666Y03769D02*
X03043Y04146D01*
X02602Y04072D02*
X02864Y03810D01*
X02574Y04072D02*
X02836Y03810D01*
X02655Y03787D02*
X03043Y04174D01*
X02662Y04161D02*
X02784Y04283D01*
X02662Y04189D02*
X02784Y04311D01*
X02662Y04133D02*
X02784Y04254D01*
X02607Y04191D02*
X02784Y04368D01*
X02578Y04191D02*
X02784Y04396D01*
X02635Y04191D02*
X02784Y04339D01*
X02759Y04125D02*
Y04148D01*
X02662Y04104D02*
X02784Y04226D01*
X02380Y04209D02*
X02780Y03810D01*
X02374Y04187D02*
X02759Y03802D01*
X02362Y04171D02*
X02759Y03773D01*
X02662Y04125D02*
X03043Y03744D01*
X02692Y03767D02*
X03043Y04118D01*
X02662Y04097D02*
X03043Y03716D01*
X02659Y04072D02*
X03043Y03688D01*
X02360Y03661D02*
X02780Y04081D01*
X02376Y03592D02*
X03043Y04259D01*
X02670Y03518D02*
X02827Y03676D01*
X02668Y03545D02*
X02799Y03676D01*
X02663Y03483D02*
X02855Y03676D01*
X02630Y04072D02*
X03043Y03659D01*
X02373Y03645D02*
X02799Y04072D01*
X02380Y03624D02*
X02826Y04071D01*
X02749Y03767D02*
X02759Y03778D01*
X02721Y03767D02*
X02759Y03806D01*
X02380Y03710D02*
X02767Y04096D01*
X02377Y03735D02*
X02760Y04117D01*
X02367Y03753D02*
X02759Y04145D01*
X02377Y03735D02*
X02760Y04117D01*
X02667Y03708D02*
X02759D01*
X02667Y03767D02*
X02759D01*
X02740Y03708D02*
X02759Y03689D01*
X02645Y03579D02*
X02759Y03693D01*
X02660Y03565D02*
X02771Y03676D01*
X02508Y04958D02*
X02746Y04720D01*
Y04603D02*
Y04736D01*
X02451Y04958D02*
X02746Y04664D01*
X02480Y04958D02*
X02746Y04692D01*
X02423Y04958D02*
X02746Y04635D01*
X02675Y04678D02*
X02746Y04607D01*
X02673Y04653D02*
X02746Y04726D01*
Y04607D02*
X02750Y04603D01*
X02379Y04303D02*
X02746Y04669D01*
X02379Y04330D02*
X02746Y04698D01*
X02375Y04241D02*
X02746Y04613D01*
X02395Y04958D02*
X02625Y04728D01*
X02375Y04440D02*
X02569Y04634D01*
X02380Y04407D02*
X02597Y04191D01*
X02381Y04417D02*
X02584Y04620D01*
X02567Y04191D02*
X02662D01*
X02370Y04350D02*
X02633Y04613D01*
X02373Y04386D02*
X02568Y04191D01*
X02375Y04440D02*
X02625Y04191D01*
X02662Y04072D02*
Y04191D01*
X02380Y04124D02*
X02737Y03767D01*
X02658Y04072D02*
X02662Y04076D01*
X02567Y04072D02*
X02662D01*
X02380Y03823D02*
X02630Y04072D01*
X02369Y04079D02*
X02681Y03767D01*
X02374Y03789D02*
X02658Y04072D01*
X02378Y04098D02*
X02709Y03767D01*
X02567Y04072D02*
Y04191D01*
X02380Y04322D02*
X02567Y04135D01*
X02380Y03907D02*
X02567Y04094D01*
X02372Y03984D02*
X02567Y04179D01*
X02378Y04296D02*
X02567Y04107D01*
X02378Y03933D02*
X02567Y04123D01*
X02380Y04011D02*
X02592Y03800D01*
X02567Y04079D02*
X02574Y04072D01*
X02374Y03989D02*
X02575Y03788D01*
X02373Y03844D02*
X02601Y04072D01*
X02370Y04049D02*
X02615Y03805D01*
X02323Y04727D02*
X02554Y04958D01*
X02314Y04746D02*
X02526Y04958D01*
X02338D02*
X02580Y04716D01*
X02310Y04958D02*
X02566Y04702D01*
X02282Y04958D02*
X02558Y04682D01*
X02253Y04958D02*
X02559Y04652D01*
X02367Y04958D02*
X02599Y04726D01*
X02348Y04469D02*
X02558Y04679D01*
X02364Y04457D02*
X02559Y04652D01*
X02303Y04707D02*
X02323Y04727D01*
X02135Y04454D02*
X02639Y04958D01*
X02114Y04914D02*
X02158Y04958D01*
X02107Y04935D02*
X02130Y04958D01*
X02114Y04886D02*
X02186Y04958D01*
X02096Y04952D02*
X02101Y04958D01*
X02293Y04749D02*
X02321Y04721D01*
X02283Y04716D02*
X02314Y04746D01*
X02280Y04734D02*
X02306Y04708D01*
X02107Y04934D02*
X02293Y04749D01*
X02115Y04898D02*
X02280Y04734D01*
X02142Y04453D02*
X02271D01*
X02247D02*
X02752Y04958D01*
X02356Y04364D02*
X02603Y04612D01*
X02363Y04258D02*
X02746Y04641D01*
X02190Y04453D02*
X02695Y04958D01*
X02162Y04453D02*
X02667Y04958D01*
X02218Y04453D02*
X02724Y04958D01*
X02368Y03952D02*
X02567Y04151D01*
X02368Y04278D02*
X02567Y04079D01*
X02361Y03860D02*
X02573Y04072D01*
X02361Y04370D02*
X02567Y04164D01*
X02099Y03824D02*
X02260Y03986D01*
X02381Y03813D02*
X02585Y03608D01*
X02356Y03866D02*
X02585Y03637D01*
X02370Y03880D02*
X02585Y03665D01*
X02375Y03790D02*
X02585Y03580D01*
X02644Y03606D02*
X02746Y03708D01*
X02644Y03634D02*
X02718Y03708D01*
X02644Y03580D02*
Y03679D01*
Y03662D02*
X02690Y03708D01*
X02585Y03580D02*
Y03679D01*
X02379Y03900D02*
X02560Y03718D01*
X02379Y03927D02*
X02559Y03747D01*
X02364Y03773D02*
X02570Y03566D01*
X02363Y03972D02*
X02564Y03771D01*
X02559Y03726D02*
Y03749D01*
X02366Y03554D02*
X02559Y03747D01*
X02380Y03512D02*
X02567Y03698D01*
X02377Y03536D02*
X02560Y03719D01*
X02379Y03729D02*
X02557Y03551D01*
X02359Y03462D02*
X02580Y03683D01*
X02670Y03510D02*
Y03533D01*
X02560Y03492D02*
X02564Y03488D01*
X02546Y03551D02*
X02562D01*
X02559Y03492D02*
X02562D01*
X02379Y03701D02*
X02533Y03548D01*
X02381Y03615D02*
X02489Y03506D01*
X02376Y03591D02*
X02475Y03492D01*
X02370Y03681D02*
X02517Y03534D01*
X02357Y03667D02*
X02503Y03520D01*
X02365Y03574D02*
X02461Y03478D01*
X02378Y03532D02*
X02447Y03464D01*
X02379Y03503D02*
X02433Y03449D01*
X02264Y03986D02*
X02269Y03981D01*
X02236Y03986D02*
X02270Y03951D01*
X02159Y03977D02*
X02277Y03859D01*
X02168Y03986D02*
X02266D01*
X02099Y03796D02*
X02276Y03973D01*
X02117Y03935D02*
X02266Y03786D01*
X02103Y03921D02*
X02271Y03753D01*
X02208Y03986D02*
X02261Y03932D01*
X02179Y03986D02*
X02259Y03906D01*
X02099Y03853D02*
X02232Y03986D01*
X02099Y03909D02*
X02176Y03986D01*
X02099Y03917D02*
X02168Y03986D01*
X02099Y03881D02*
X02204Y03986D01*
X02145Y03963D02*
X02265Y03843D01*
X02131Y03949D02*
X02259Y03821D01*
X02099Y03896D02*
X02261Y03734D01*
X02099Y03768D02*
X02260Y03929D01*
X02099Y03740D02*
X02260Y03901D01*
X02099Y03811D02*
X02266Y03645D01*
X02099Y03598D02*
X02275Y03774D01*
X02099Y03683D02*
X02283Y03867D01*
X02099Y03711D02*
X02269Y03881D01*
X02099Y03840D02*
X02278Y03660D01*
X02099Y03642D02*
X02279Y03461D01*
X02099Y03726D02*
X02272Y03554D01*
X02099Y03513D02*
X02268Y03682D01*
X02099Y03485D02*
X02282Y03667D01*
X02099Y03755D02*
X02264Y03590D01*
X02099Y03783D02*
X02259Y03623D01*
X02099Y03570D02*
X02261Y03731D01*
X02099Y03868D02*
X02259Y03708D01*
X02099Y03655D02*
X02258Y03814D01*
X02099Y03626D02*
X02264Y03791D01*
X02099Y03670D02*
X02259Y03510D01*
X02099Y03457D02*
X02258Y03616D01*
X02099Y03457D02*
X02258Y03616D01*
X02099Y03542D02*
X02260Y03702D01*
X02099Y03698D02*
X02262Y03535D01*
X02670Y03524D02*
X03043Y03150D01*
X02664Y03558D02*
X03043Y03178D01*
X02668Y03497D02*
X03043Y03122D01*
X02662Y03143D02*
X03043Y03524D01*
X02662Y03171D02*
X03043Y03552D01*
X02662Y03115D02*
X03043Y03496D01*
X02662Y03086D02*
X03043Y03467D01*
X02659Y03477D02*
X03043Y03094D01*
X02755Y02981D02*
X03043Y03269D01*
X02646Y03014D02*
X03043Y03411D01*
X02645Y03463D02*
X03043Y03065D01*
X02648Y02987D02*
X03043Y03383D01*
X02772Y03676D02*
X03043Y03405D01*
X02800Y03676D02*
X03043Y03433D01*
X02711Y03708D02*
X03043Y03376D01*
X02663Y03700D02*
X03043Y03320D01*
X02683Y03708D02*
X03043Y03348D01*
X02651Y03684D02*
X03043Y03292D01*
X02662Y03164D02*
X02844Y02981D01*
X02662Y03107D02*
X02788Y02981D01*
X02728D02*
X03001D01*
X02650Y03187D02*
X03043Y03581D01*
X02644Y03662D02*
X03043Y03263D01*
X02662Y03068D02*
Y03187D01*
X02925Y02981D02*
X03043Y03100D01*
X02896Y02981D02*
X03043Y03128D01*
Y04958D02*
Y02391D01*
X02648Y02931D02*
X03043Y03326D01*
X02648Y02959D02*
X03043Y03354D01*
X02648Y02902D02*
X03043Y03298D01*
X03001Y02966D02*
X03043Y02924D01*
X03001Y02945D02*
X03043Y02987D01*
X03001Y02916D02*
X03043Y02958D01*
X02981Y02981D02*
X03043Y03043D01*
X02953Y02981D02*
X03043Y03071D01*
X03001Y02973D02*
X03043Y03015D01*
X02840Y02981D02*
X03043Y03185D01*
X02811Y02981D02*
X03043Y03213D01*
X02868Y02981D02*
X03043Y03156D01*
X02662Y03135D02*
X02816Y02981D01*
X02662Y03079D02*
X02760Y02981D01*
X02783D02*
X03043Y03241D01*
X02728Y02858D02*
Y02981D01*
X02648Y02980D02*
X02728Y02900D01*
X03001Y02858D02*
Y02981D01*
X02647Y03009D02*
X02728Y02928D01*
X02648Y02673D02*
Y03003D01*
X02492Y03171D02*
X03043Y03722D01*
X02478Y03185D02*
X03043Y03750D01*
X02506Y03157D02*
X03043Y03694D01*
X02450Y03213D02*
X03043Y03807D01*
X02436Y03228D02*
X03043Y03835D01*
X02464Y03199D02*
X03043Y03778D01*
X02644Y03606D02*
X03043Y03207D01*
X02644Y03634D02*
X03043Y03235D01*
X02625Y03455D02*
X03043Y03037D01*
X02621Y03187D02*
X03043Y03609D01*
X02593Y03187D02*
X03043Y03637D01*
X02520Y03143D02*
X03043Y03665D01*
X02567Y03187D02*
X02662D01*
X02469Y03356D02*
X02639Y03187D01*
X02421Y03241D02*
X02641Y03461D01*
X02396Y03245D02*
X02606Y03455D01*
X02464Y03333D02*
X02610Y03187D01*
X02619Y03044D02*
X02644Y03068D01*
X02595D02*
X02662D01*
X02605Y03058D02*
X02616Y03068D01*
X02593Y03459D02*
X03043Y03009D01*
X02634Y03030D02*
X03043Y03439D01*
X02545Y03478D02*
X03043Y02980D01*
X02517Y03450D02*
X02986Y02981D01*
X02503Y03436D02*
X02958Y02981D01*
X02531Y03464D02*
X03043Y02952D01*
X02644Y03068D02*
X02731Y02981D01*
X02616Y03068D02*
X02728Y02956D01*
X02474Y03408D02*
X02901Y02981D01*
X02469Y03385D02*
X02873Y02981D01*
X02489Y03422D02*
X02929Y02981D01*
X02595Y03068D02*
X02639Y03024D01*
X02394Y03186D02*
X02589Y02991D01*
X02373Y03085D02*
X02589Y02869D01*
X02385Y03186D02*
X02589Y02982D01*
X02360Y03070D02*
X02589Y02841D01*
X02377Y02996D02*
X02589Y02784D01*
X02380Y03021D02*
X02589Y02813D01*
X02367Y02977D02*
X02589Y02756D01*
X02353Y02964D02*
X02589Y02728D01*
X02333Y02956D02*
X02589Y02700D01*
X02826Y02858D02*
X03043Y02641D01*
X02855Y02858D02*
X03043Y02669D01*
X02918Y02550D02*
X03043Y02675D01*
X02770Y02858D02*
X03043Y02584D01*
X02798Y02858D02*
X03043Y02613D01*
X02742Y02858D02*
X03043Y02556D01*
X03002Y02493D02*
X03043Y02534D01*
X02993Y02512D02*
X03043Y02562D01*
X03005Y02468D02*
X03043Y02506D01*
X02964Y02540D02*
X03043Y02619D01*
X02944Y02548D02*
X03043Y02647D01*
X02980Y02528D02*
X03043Y02591D01*
X03001Y02860D02*
X03043Y02902D01*
X03001Y02909D02*
X03043Y02867D01*
X03001Y02881D02*
X03043Y02839D01*
X03001Y02888D02*
X03043Y02930D01*
X03001Y02937D02*
X03043Y02896D01*
X02688Y02603D02*
X02943Y02858D01*
X02968D02*
X03043Y02782D01*
X02996Y02858D02*
X03043Y02811D01*
X02939Y02858D02*
X03043Y02754D01*
X02911Y02858D02*
X03043Y02726D01*
X02728Y02858D02*
X03001D01*
X02883D02*
X03043Y02698D01*
X02994Y02428D02*
X03043Y02477D01*
X03004Y02482D02*
X03043Y02443D01*
X02730Y02391D02*
X03043Y02704D01*
X02702Y02391D02*
X03043Y02732D01*
X03004Y02454D02*
X03043Y02415D01*
X02997Y02433D02*
X03039Y02391D01*
X03013D02*
X03043Y02421D01*
X02985Y02391D02*
X03043Y02449D01*
X02943Y02391D02*
X03043D01*
X02985Y02416D02*
X03010Y02391D01*
X02843D02*
X02866Y02414D01*
X02787Y02391D02*
X02846Y02450D01*
X02759Y02391D02*
X02844Y02476D01*
X02815Y02391D02*
X02854Y02430D01*
X02957Y02391D02*
X02966Y02400D01*
X02951Y02393D02*
X02954Y02391D01*
X02970Y02403D02*
X02982Y02391D01*
X02872D02*
X02882Y02401D01*
X02893Y02395D02*
X02897Y02391D01*
X02664Y02664D02*
X02858Y02858D01*
X02648Y02676D02*
X02830Y02858D01*
X02677Y02649D02*
X02886Y02858D01*
X02648Y02923D02*
X03043Y02528D01*
X02648Y02704D02*
X02801Y02858D01*
X02648Y02895D02*
X03043Y02500D01*
X02686Y02629D02*
X02914Y02858D01*
X02648Y02754D02*
X02871Y02530D01*
X02648Y02725D02*
X02858Y02515D01*
X02648Y02838D02*
X02937Y02549D01*
X02648Y02810D02*
X02909Y02549D01*
X02648Y02782D02*
X02888Y02542D01*
X02648Y02818D02*
X02728Y02898D01*
X02648Y02846D02*
X02728Y02926D01*
X02648Y02789D02*
X02728Y02869D01*
X02648Y02951D02*
X02728Y02871D01*
X02648Y02874D02*
X02728Y02954D01*
X02287Y02626D02*
X02589Y02928D01*
X02648Y02733D02*
X02773Y02858D01*
X02648Y02761D02*
X02745Y02858D01*
X02489Y02630D02*
X02589Y02730D01*
X02424Y02679D02*
X02589Y02843D01*
X02589Y02391D02*
X03043Y02845D01*
X02648Y02867D02*
X03043Y02471D01*
X02617Y02391D02*
X03043Y02817D01*
X02532Y02391D02*
X02999Y02858D01*
X02504Y02391D02*
X02971Y02858D01*
X02561Y02391D02*
X03043Y02873D01*
X02687Y02601D02*
X02850Y02438D01*
X02686Y02631D02*
X02844Y02473D01*
X02680Y02580D02*
X02869Y02391D01*
X02645D02*
X03043Y02789D01*
X02648Y02697D02*
X02848Y02496D01*
X02674Y02391D02*
X03043Y02760D01*
X02651Y02552D02*
X02812Y02391D01*
X02490Y02600D02*
X02699Y02391D01*
X02668Y02564D02*
X02841Y02391D01*
X02483Y02579D02*
X02671Y02391D01*
X02471Y02563D02*
X02643Y02391D01*
X02489Y02629D02*
X02728Y02391D01*
X02598Y02549D02*
X02756Y02391D01*
X02476D02*
X02630Y02545D01*
X02630Y02545D02*
X02784Y02391D01*
X02447D02*
X02604Y02547D01*
X02462Y02543D02*
X02614Y02391D01*
X02469Y03402D02*
X02559Y03492D01*
X02419Y03435D02*
X02525Y03542D01*
X02469Y03374D02*
X02571Y03476D01*
X02380Y03426D02*
X02585Y03631D01*
X02372Y03447D02*
X02585Y03660D01*
X02377Y03396D02*
X02585Y03603D01*
X02469Y03346D02*
X02586Y03462D01*
X02469Y03350D02*
Y03402D01*
X02426Y03294D02*
X02460Y03329D01*
X02410Y03362D02*
Y03415D01*
X02371Y03483D02*
X02419Y03435D01*
X02381Y03417D02*
X02410Y03387D01*
X02366Y03355D02*
X02410Y03400D01*
X02383Y03345D02*
X02410Y03372D01*
X02376Y03393D02*
X02409Y03360D01*
X02393Y03345D02*
X02410Y03362D01*
X02366Y03375D02*
X02394Y03346D01*
X02373Y03345D02*
X02393D01*
X02373Y03286D02*
X02405D01*
X02450Y03319D02*
X02582Y03187D01*
X02436Y03304D02*
X02567Y03174D01*
Y03096D02*
Y03187D01*
X02398Y03286D02*
X02567Y03117D01*
X02422Y03291D02*
X02567Y03145D01*
X02427Y03236D02*
X02567Y03096D01*
X02549Y03114D02*
X02567Y03133D01*
X02535Y03129D02*
X02567Y03161D01*
X02563Y03100D02*
X02567Y03104D01*
X02376Y03138D02*
X02589Y02926D01*
X02366Y03176D02*
X02589Y02954D01*
X02380Y03106D02*
X02589Y02898D01*
X02371Y03248D02*
X02409Y03286D01*
X02373Y03245D02*
X02406D01*
X02372Y03284D02*
X02411Y03244D01*
X02381Y03116D02*
X02422Y03157D01*
X02376Y03139D02*
X02408Y03172D01*
X02379Y03029D02*
X02465Y03115D01*
X02373Y03186D02*
X02394D01*
X02370Y03049D02*
X02450Y03129D01*
X02358Y03468D02*
X02410Y03416D01*
X02099Y03287D02*
X02280Y03468D01*
X02099Y03400D02*
X02274Y03575D01*
X02099Y03444D02*
X02280Y03262D01*
X02358Y03263D02*
X02381Y03286D01*
X02099Y03557D02*
X02263Y03393D01*
X02099Y03372D02*
X02261Y03534D01*
X02099Y03528D02*
X02273Y03355D01*
X02099Y03613D02*
X02267Y03446D01*
X02099Y03428D02*
X02263Y03592D01*
X02099Y03585D02*
X02259Y03425D01*
X02099Y03259D02*
X02258Y03418D01*
X02099Y03472D02*
X02258Y03313D01*
X02099Y03415D02*
X02267Y03247D01*
X02099Y03500D02*
X02262Y03337D01*
X02099Y03344D02*
X02259Y03504D01*
X02099Y03315D02*
X02267Y03484D01*
X02359Y03269D02*
X02383Y03245D01*
X02099Y03217D02*
X02268Y03048D01*
X02099Y03330D02*
X02274Y03156D01*
X02099Y03202D02*
X02273Y03376D01*
X02099Y03246D02*
X02282Y03063D01*
X02365Y03157D02*
X02394Y03186D01*
X02357Y03064D02*
X02436Y03143D01*
X02099Y03359D02*
X02261Y03196D01*
X02099Y03387D02*
X02259Y03227D01*
X02099Y03302D02*
X02263Y03138D01*
X02099Y03230D02*
X02262Y03394D01*
X02099Y03175D02*
Y03917D01*
X02099Y03174D02*
X02263Y03337D01*
X02099Y03189D02*
X02260Y03028D01*
X02099Y03274D02*
X02258Y03115D01*
X02097Y03163D02*
X02261Y02999D01*
X02589Y02670D02*
Y02991D01*
X02322Y02887D02*
X02507Y03073D01*
X02323Y02881D02*
X02561Y02642D01*
X02304Y02956D02*
X02589Y02671D01*
X02313Y02862D02*
X02555Y02620D01*
X02287Y02598D02*
X02589Y02900D01*
X02480Y02650D02*
X02589Y02758D01*
X02578Y02663D02*
X02589Y02673D01*
X02491Y02604D02*
X02589Y02702D01*
X02466Y02664D02*
X02589Y02787D01*
X02448Y02674D02*
X02589Y02815D01*
X02462Y02547D02*
X02570Y02655D01*
X02379Y03001D02*
X02479Y03101D01*
X02307Y02901D02*
X02493Y03087D01*
X02301Y02902D02*
X02323Y02881D01*
X02294Y02860D02*
X02322Y02887D01*
X02387Y02550D02*
Y02556D01*
X02462Y02535D02*
Y02556D01*
X02287Y02634D02*
X02379Y02542D01*
X02287Y02589D02*
Y02634D01*
X02305Y02531D02*
X02362Y02588D01*
X02419Y02391D02*
X02584Y02556D01*
X02363Y02391D02*
X02559Y02587D01*
X02334Y02391D02*
X02554Y02611D01*
X02391Y02391D02*
X02569Y02569D01*
X02446Y02503D02*
X02558Y02391D01*
X02432Y02489D02*
X02530Y02391D01*
X02458Y02519D02*
X02586Y02391D01*
X02403Y02461D02*
X02473Y02391D01*
X02410Y02467D02*
X02451Y02508D01*
X02418Y02475D02*
X02501Y02391D01*
X02368Y02531D02*
X02387Y02550D01*
X02333Y02531D02*
X02372Y02570D01*
X02287Y02605D02*
X02361Y02531D01*
X02361D02*
X02387Y02556D01*
X02351Y02456D02*
X02416Y02391D01*
X02323Y02456D02*
X02388Y02391D01*
X02379Y02456D02*
X02445Y02391D01*
X02295Y02456D02*
X02360Y02391D01*
X02306D02*
X02371Y02456D01*
X02270Y02666D02*
X02589Y02985D01*
X02283Y02651D02*
X02589Y02956D01*
X02247Y02671D02*
X02578Y03002D01*
X02219Y02671D02*
X02563Y03016D01*
X02182Y02663D02*
X02549Y03030D01*
X02283Y02892D02*
X02313Y02862D01*
X02280Y02874D02*
X02307Y02901D01*
X02285Y02579D02*
X02333Y02531D01*
X02205Y02671D02*
X02250D01*
X02168Y02589D02*
Y02634D01*
X02205Y02553D02*
X02250D01*
X02192Y02531D02*
X02213Y02553D01*
X02163Y02531D02*
X02189Y02556D01*
X02274Y02561D02*
X02304Y02531D01*
X02255Y02553D02*
X02276Y02531D01*
X02277D02*
X02358Y02612D01*
X02248Y02531D02*
X02589Y02871D01*
X02227Y02553D02*
X02248Y02531D01*
X02193Y02391D02*
X02258Y02456D01*
X02266D02*
X02332Y02391D01*
X02249D02*
X02315Y02456D01*
X02278Y02391D02*
X02343Y02456D01*
X02221Y02391D02*
X02287Y02456D01*
X02210D02*
X02275Y02391D01*
X02238Y02456D02*
X02303Y02391D01*
X02197Y02553D02*
X02220Y02531D01*
X02135D02*
X02174Y02570D01*
X02220Y02531D02*
X02241Y02553D01*
X02107Y02531D02*
X02168Y02593D01*
X02097Y02456D02*
X02162Y02391D01*
X02108D02*
X02173Y02456D01*
X02165Y02391D02*
X02230Y02456D01*
X02153D02*
X02218Y02391D01*
X02181Y02456D02*
X02247Y02391D01*
X02125Y02456D02*
X02190Y02391D01*
X02136D02*
X02202Y02456D01*
X01688Y04958D02*
X02193Y04453D01*
X01659Y04958D02*
X02165Y04453D01*
X01631Y04958D02*
X02135Y04454D01*
X01603Y04958D02*
X02113Y04448D01*
X01857Y04958D02*
X02344Y04471D01*
X01829Y04958D02*
X02311Y04476D01*
X01801Y04958D02*
X02290Y04469D01*
X01773Y04958D02*
X02274Y04456D01*
X01716Y04958D02*
X02221Y04453D01*
X01744Y04958D02*
X02250Y04453D01*
X01914Y04958D02*
X01956Y04917D01*
X01886Y04958D02*
X01954Y04889D01*
X01381Y04379D02*
X01960Y04958D01*
X01381Y04435D02*
X01903Y04958D01*
X01381Y04464D02*
X01875Y04958D01*
X01381Y04407D02*
X01932Y04958D01*
X01971D02*
X01975Y04954D01*
X01942Y04958D02*
X01963Y04937D01*
X01575Y04958D02*
X02098Y04435D01*
X01546Y04958D02*
X02084Y04421D01*
X01518Y04958D02*
X02070Y04406D01*
X01490Y04958D02*
X02055Y04392D01*
X01380Y04011D02*
X02328Y04958D01*
X01377Y04036D02*
X02299Y04958D01*
X01380Y03925D02*
X02413Y04958D01*
X01372Y03946D02*
X02384Y04958D01*
X01375Y04091D02*
X02243Y04958D01*
X01377Y03894D02*
X02441Y04958D01*
X02072Y04828D02*
X02759Y04141D01*
X02024Y04819D02*
X02653Y04191D01*
X02052Y04821D02*
X02761Y04111D01*
X01372Y03747D02*
X02582Y04958D01*
X01377Y03837D02*
X02497Y04958D01*
X01379Y03727D02*
X02611Y04958D01*
X01461D02*
X02041Y04378D01*
X01433Y04958D02*
X02027Y04364D01*
X01405Y04958D02*
X02013Y04350D01*
X01377Y04958D02*
X01999Y04336D01*
X01368Y04338D02*
X01959Y04929D01*
X01380Y04124D02*
X02215Y04958D01*
X01380Y04209D02*
X01999Y04827D01*
X01378Y04234D02*
X01982Y04838D01*
X01373Y04145D02*
X02048Y04820D01*
X01373Y04314D02*
X01954Y04895D01*
X01368Y04253D02*
X01968Y04853D01*
X01351Y04745D02*
X01564Y04958D01*
X01325Y04747D02*
X01536Y04958D01*
X01357Y04723D02*
X01592Y04958D01*
X01041Y04520D02*
X01479Y04958D01*
X01041Y04548D02*
X01451Y04958D01*
X01041Y04492D02*
X01507Y04958D01*
X01309Y04476D02*
X01790Y04958D01*
X01280Y04476D02*
X01762Y04958D01*
X01337Y04476D02*
X01819Y04958D01*
X01041D02*
X01979D01*
X01159Y04496D02*
X01621Y04958D01*
X01187Y04496D02*
X01649Y04958D01*
X01122D02*
X01330Y04750D01*
X01094Y04958D02*
X01316Y04736D01*
X01041Y04605D02*
X01394Y04958D01*
X01041Y04661D02*
X01338Y04958D01*
X01041Y04690D02*
X01309Y04958D01*
X01041Y04633D02*
X01366Y04958D01*
X01330Y04750D02*
X01357Y04723D01*
X01041Y04756D02*
X01321Y04476D01*
X01041Y04576D02*
X01423Y04958D01*
X01041Y04813D02*
X01377Y04476D01*
X01041Y04785D02*
X01349Y04476D01*
X01320Y04958D02*
X01971Y04308D01*
X01292Y04958D02*
X01956Y04293D01*
X01263Y04958D02*
X01942Y04279D01*
X01235Y04958D02*
X01928Y04265D01*
X01207Y04958D02*
X01914Y04251D01*
X01179Y04958D02*
X01900Y04237D01*
X01367Y04054D02*
X02271Y04958D01*
X01360Y04161D02*
X02020Y04820D01*
X01366Y03855D02*
X02469Y04958D01*
X01348D02*
X01985Y04322D01*
X01353Y04266D02*
X01959Y04872D01*
X01359Y03962D02*
X02356Y04958D01*
X01365Y04476D02*
X01847Y04958D01*
X01191Y04444D02*
X01705Y04958D01*
X01191Y04416D02*
X01734Y04958D01*
X01150D02*
X01886Y04223D01*
X01191Y04472D02*
X01677Y04958D01*
X01065D02*
X01843Y04180D01*
X01041Y04870D02*
X01827Y04083D01*
X01041Y04898D02*
X01827Y04112D01*
X01041Y04841D02*
X01827Y04055D01*
X01041Y04954D02*
X01831Y04165D01*
X01041Y04926D02*
X01827Y04140D01*
X01838Y04175D02*
X02106Y04443D01*
X01358Y03762D02*
X02303Y04707D01*
X01381Y03813D02*
X02283Y04716D01*
X01366Y04176D02*
X01827Y03716D01*
X01376Y04138D02*
X01827Y03687D01*
X01378Y03697D02*
X01827Y04146D01*
X01380Y04106D02*
X01827Y03659D01*
X01376Y03639D02*
X01827Y04090D01*
X01365Y03656D02*
X01827Y04118D01*
X01373Y04085D02*
X01827Y03631D01*
X01381Y04417D02*
X01827Y03970D01*
X01381Y04445D02*
X01827Y03999D01*
X01381Y04388D02*
X01827Y03942D01*
X01381Y04354D02*
Y04476D01*
X01377D02*
X01381Y04473D01*
X01827Y04027*
X01380Y04219D02*
X01827Y03772D01*
X01381Y04360D02*
X01827Y03914D01*
X01377Y04194D02*
X01827Y03744D01*
X01373Y04311D02*
X01827Y03857D01*
X01358Y04354D02*
X01827Y03885D01*
X01366Y04290D02*
X01827Y03829D01*
X01381Y03417D02*
X01827Y03864D01*
X01375Y03440D02*
X01827Y03892D01*
X01380Y03823D02*
X01827Y03376D01*
X01373Y03887D02*
X01827Y03433D01*
X01364Y03457D02*
X01827Y03920D01*
X01361Y03871D02*
X01827Y03405D01*
X01379Y03330D02*
X01827Y03779D01*
X01378Y03797D02*
X01827Y03348D01*
X01379Y03303D02*
X01827Y03750D01*
X01368Y03779D02*
X01827Y03320D01*
X01370Y03350D02*
X01827Y03807D01*
X01372Y03746D02*
X01827Y03291D01*
X01380Y04021D02*
X01827Y03574D01*
X01381Y03615D02*
X01827Y04061D01*
X01377Y03996D02*
X01827Y03546D01*
X01357Y03563D02*
X01827Y04033D01*
X01360Y04070D02*
X01827Y03603D01*
X01371Y03549D02*
X01827Y04005D01*
X01379Y03500D02*
X01827Y03948D01*
X01379Y03529D02*
X01827Y03977D01*
X01380Y03908D02*
X01827Y03461D01*
X01367Y03977D02*
X01827Y03518D01*
X01374Y03942D02*
X01827Y03489D01*
X01356Y04354D02*
X01381D01*
X01357Y04723D02*
X01872Y04209D01*
X01258Y04476D02*
X01381D01*
X01344Y04708D02*
X01857Y04194D01*
X01320Y04714D02*
X01351Y04745D01*
X01317Y04740D02*
X01325Y04747D01*
X01342Y04708D02*
X01357Y04723D01*
X01316Y04736D02*
X01344Y04708D01*
X01074Y04496D02*
X01317Y04740D01*
X01041Y04728D02*
X01293Y04476D01*
X01130Y04496D02*
X01342Y04708D01*
X01102Y04496D02*
X01320Y04714D01*
X01356Y03364D02*
X01827Y03835D01*
X01353Y04274D02*
X01827Y03801D01*
X01258Y04354D02*
X01283D01*
X01273D02*
X01278Y04349D01*
X01191Y04352D02*
X01280Y04262D01*
X01191Y04408D02*
X01268Y04331D01*
X01191Y04380D02*
X01267Y04304D01*
X01191Y04274D02*
X01271Y04354D01*
X01191Y04189D02*
X01281Y04279D01*
X01191Y04267D02*
X01261Y04196D01*
X01191Y04161D02*
X01260Y04230D01*
X01191Y04323D02*
X01267Y04247D01*
X01191Y04246D02*
X01266Y04321D01*
X01191Y04218D02*
X01270Y04296D01*
X01191Y04465D02*
X01258Y04397D01*
X01191Y04493D02*
X01258Y04426D01*
Y04354D02*
Y04476D01*
X01188Y04496D02*
X01191Y04493D01*
X01068Y04496D02*
X01191D01*
X01068Y04490D02*
X01074Y04496D01*
X01191Y04302D02*
X01258Y04370D01*
X01191Y04331D02*
X01258Y04398D01*
X01191Y04295D02*
X01259Y04227D01*
X01191Y04436D02*
X01258Y04369D01*
X01191Y04387D02*
X01258Y04455D01*
X01191Y04359D02*
X01258Y04426D01*
X01191Y04076D02*
X01282Y04167D01*
X01191Y04154D02*
X01282Y04063D01*
X01191Y04125D02*
X01268Y04048D01*
X01191Y04238D02*
X01274Y04156D01*
X01191Y04210D02*
X01263Y04138D01*
X01191Y04105D02*
X01268Y04182D01*
X01191Y04040D02*
X01275Y03957D01*
X01191Y03963D02*
X01261Y04033D01*
X01191Y04012D02*
X01264Y03940D01*
X01191Y04020D02*
X01263Y04092D01*
X01191Y04069D02*
X01261Y03999D01*
X01191Y03991D02*
X01274Y04074D01*
X01191Y04182D02*
X01258Y04115D01*
X01191Y04048D02*
X01258Y04115D01*
X01191Y04097D02*
X01260Y04028D01*
X01191Y04133D02*
X01260Y04202D01*
X01041Y04096D02*
X01068Y04123D01*
X01041Y04106D02*
X01068Y04079D01*
X01041Y04049D02*
X01068Y04022D01*
X01041Y04039D02*
X01068Y04066D01*
X01191Y03935D02*
X01260Y04003D01*
X01041Y04067D02*
X01068Y04094D01*
X01041Y04078D02*
X01068Y04051D01*
X01041Y04774D02*
X01225Y04958D01*
X01041Y04803D02*
X01196Y04958D01*
X01041Y04746D02*
X01253Y04958D01*
X01041Y04859D02*
X01140Y04958D01*
X01041Y04888D02*
X01111Y04958D01*
X01041Y04831D02*
X01168Y04958D01*
X01041Y04643D02*
X01188Y04496D01*
X01041Y04615D02*
X01160Y04496D01*
X01041Y04587D02*
X01131Y04496D01*
X01041Y04718D02*
X01281Y04958D01*
X01041Y04700D02*
X01264Y04476D01*
X01041Y04672D02*
X01258Y04454D01*
X01041Y04530D02*
X01075Y04496D01*
X01041Y04502D02*
X01068Y04475D01*
X01041Y04463D02*
X01068Y04490D01*
X01041Y04916D02*
X01083Y04958D01*
X01041Y04944D02*
X01055Y04958D01*
X01041Y04558D02*
X01103Y04496D01*
X01041Y04417D02*
X01068Y04390D01*
X01041Y04407D02*
X01068Y04434D01*
X01041Y04378D02*
X01068Y04405D01*
X01041Y04435D02*
X01068Y04462D01*
X01041Y04474D02*
X01068Y04447D01*
X01041Y04445D02*
X01068Y04418D01*
X01041Y04152D02*
X01068Y04179D01*
X01041Y04191D02*
X01068Y04164D01*
X01041Y04162D02*
X01068Y04136D01*
X01041Y04219D02*
X01068Y04192D01*
X01041Y04209D02*
X01068Y04236D01*
X01041Y04180D02*
X01068Y04207D01*
X01041Y03982D02*
X01068Y04009D01*
X01041Y04021D02*
X01068Y03994D01*
X01041Y03993D02*
X01068Y03966D01*
X01041Y04134D02*
X01068Y04107D01*
X01041Y04124D02*
X01068Y04151D01*
X01041Y04011D02*
X01068Y04038D01*
X01041Y04332D02*
X01068Y04305D01*
X01041Y04322D02*
X01068Y04349D01*
X01041Y04294D02*
X01068Y04321D01*
X01041Y04350D02*
X01068Y04377D01*
X01041Y04389D02*
X01068Y04362D01*
X01041Y04360D02*
X01068Y04333D01*
X01041Y04237D02*
X01068Y04264D01*
X01041Y04276D02*
X01068Y04249D01*
X01041Y04247D02*
X01068Y04220D01*
X01041Y04304D02*
X01068Y04277D01*
X01041Y04265D02*
X01068Y04292D01*
X01191Y03793D02*
X01273Y03875D01*
X01191Y03927D02*
X01269Y03850D01*
X01191Y03842D02*
X01276Y03758D01*
X01191Y03878D02*
X01281Y03968D01*
X01191Y03907D02*
X01268Y03983D01*
X01191Y03956D02*
X01283Y03864D01*
X01280Y03669D02*
X01284Y03665D01*
X01191Y03758D02*
X01273Y03676D01*
X01191Y03729D02*
X01270Y03651D01*
X01191Y03709D02*
X01267Y03784D01*
X01191Y03814D02*
X01264Y03741D01*
X01191Y03680D02*
X01280Y03769D01*
X01191Y03822D02*
X01263Y03893D01*
X01191Y03871D02*
X01260Y03802D01*
X01191Y03765D02*
X01262Y03836D01*
X01191Y03850D02*
X01258Y03917D01*
X01191Y03984D02*
X01258Y03917D01*
X01191Y03899D02*
X01260Y03830D01*
X01191Y03624D02*
X01262Y03695D01*
X01191Y03701D02*
X01261Y03632D01*
X01191Y03673D02*
X01259Y03605D01*
X01191Y03737D02*
X01259Y03805D01*
X01191Y03786D02*
X01259Y03719D01*
X01191Y03652D02*
X01259Y03719D01*
X01191Y03482D02*
X01279Y03570D01*
X01191Y03560D02*
X01268Y03483D01*
X01191Y03531D02*
X01271Y03452D01*
X01191Y03644D02*
X01277Y03559D01*
X01191Y03595D02*
X01272Y03677D01*
X01191Y03511D02*
X01266Y03586D01*
X01191Y03418D02*
X01265Y03344D01*
X01191Y03313D02*
X01265Y03387D01*
X01191Y03362D02*
X01265Y03288D01*
X01191Y03397D02*
X01271Y03478D01*
X01191Y03369D02*
X01265Y03443D01*
X01191Y03446D02*
X01278Y03360D01*
X01191Y03454D02*
X01259Y03521D01*
X01191Y03588D02*
X01259Y03520D01*
X01191Y03503D02*
X01261Y03433D01*
X01191Y03616D02*
X01265Y03543D01*
X01191Y03567D02*
X01263Y03639D01*
X01191Y03539D02*
X01259Y03607D01*
X01191Y03475D02*
X01259Y03407D01*
X01191Y03341D02*
X01259Y03408D01*
X01191Y03390D02*
X01259Y03322D01*
X01191Y03426D02*
X01262Y03496D01*
X01041Y03304D02*
X01068Y03331D01*
X01041Y03766D02*
X01068Y03740D01*
X01041Y03756D02*
X01068Y03783D01*
X01041Y03728D02*
X01068Y03755D01*
X01041Y03784D02*
X01068Y03811D01*
X01041Y03823D02*
X01068Y03796D01*
X01041Y03795D02*
X01068Y03768D01*
X01041Y03682D02*
X01068Y03655D01*
X01041Y03671D02*
X01068Y03698D01*
X01041Y03643D02*
X01068Y03670D01*
X01041Y03700D02*
X01068Y03727D01*
X01041Y03738D02*
X01068Y03711D01*
X01041Y03710D02*
X01068Y03683D01*
X01041Y03898D02*
X01068Y03925D01*
X01041Y03936D02*
X01068Y03909D01*
X01041Y03908D02*
X01068Y03881D01*
X01041Y03964D02*
X01068Y03938D01*
X01041Y03954D02*
X01068Y03981D01*
X01041Y03926D02*
X01068Y03953D01*
X01041Y03851D02*
X01068Y03824D01*
X01041Y03841D02*
X01068Y03868D01*
X01041Y03813D02*
X01068Y03840D01*
X01041Y03869D02*
X01068Y03896D01*
X01041Y03880D02*
X01068Y03853D01*
X01041Y03417D02*
X01068Y03444D01*
X01041Y03455D02*
X01068Y03428D01*
X01041Y03427D02*
X01068Y03400D01*
X01041Y03484D02*
X01068Y03457D01*
X01041Y03473D02*
X01068Y03500D01*
X01041Y03445D02*
X01068Y03472D01*
X01041Y03332D02*
X01068Y03359D01*
X01041Y03370D02*
X01068Y03344D01*
X01041Y03342D02*
X01068Y03315D01*
X01041Y03399D02*
X01068Y03372D01*
X01041Y03389D02*
X01068Y03415D01*
X01041Y03360D02*
X01068Y03387D01*
X01041Y03597D02*
X01068Y03570D01*
X01041Y03586D02*
X01068Y03613D01*
X01041Y03558D02*
X01068Y03585D01*
X01041Y03615D02*
X01068Y03642D01*
X01041Y03653D02*
X01068Y03626D01*
X01041Y03625D02*
X01068Y03598D01*
X01041Y03502D02*
X01068Y03529D01*
X01041Y03540D02*
X01068Y03513D01*
X01041Y03512D02*
X01068Y03485D01*
X01041Y03568D02*
X01068Y03542D01*
X01041Y03530D02*
X01068Y03557D01*
X02070Y03133D02*
X02301Y02902D01*
X02056Y03119D02*
X02283Y02892D01*
X02084Y03147D02*
X02573Y02658D01*
X01767Y02672D02*
X02272Y03177D01*
X01644Y02662D02*
X02267Y03285D01*
X01657Y02647D02*
X02279Y03269D01*
X02028Y03091D02*
X02442Y02676D01*
X02014Y03077D02*
X02412Y02678D01*
X01999Y03063D02*
X02392Y02670D01*
X01985Y03048D02*
X02376Y02658D01*
X01841Y02662D02*
X02266Y03086D01*
X01857Y02649D02*
X02278Y03070D01*
X01802Y02679D02*
X02264Y03141D01*
X01827Y03085D02*
Y04148D01*
X01824Y02673D02*
X02259Y03107D01*
X01639Y02686D02*
X02259Y03306D01*
X01639Y02702D02*
X02090Y03154D01*
X01398Y02671D02*
X01827Y03100D01*
X01929Y02992D02*
X02249Y02671D01*
X01915Y02978D02*
X02221Y02671D01*
X01900Y02964D02*
X02194Y02669D01*
X01886Y02949D02*
X02177Y02658D01*
X01473Y02731D02*
X01827Y03085D01*
X01886Y02649D02*
X02259Y03023D01*
X02042Y03105D02*
X02559Y02588D01*
X02010Y02547D02*
X02521Y03058D01*
X02024Y02533D02*
X02535Y03044D01*
X01971Y03034D02*
X02364Y02641D01*
X01957Y03020D02*
X02358Y02619D01*
X01943Y03006D02*
X02363Y02586D01*
X01967Y02590D02*
X02334Y02956D01*
X01982Y02575D02*
X02280Y02874D01*
X01996Y02561D02*
X02294Y02860D01*
X01939Y02618D02*
X02286Y02964D01*
X01925Y02632D02*
X02271Y02978D01*
X01953Y02604D02*
X02305Y02956D01*
X01910Y02645D02*
X02261Y02997D01*
X01872Y02935D02*
X02169Y02639D01*
X01858Y02921D02*
X02168Y02611D01*
X01665Y02599D02*
X02262Y03195D01*
X01665Y02627D02*
X02259Y03220D01*
X01844Y02907D02*
X02169Y02582D01*
X01816Y02879D02*
X02163Y02531D01*
X01801Y02865D02*
X02135Y02531D01*
X01830Y02893D02*
X02191Y02531D01*
X01773Y02836D02*
X02078Y02531D01*
X01787Y02850D02*
X02106Y02531D01*
X01378Y03599D02*
X01827Y03150D01*
X01380Y03626D02*
X01827Y03178D01*
X01378Y03132D02*
X01827Y03581D01*
X01368Y03178D02*
X01827Y03637D01*
X01362Y03672D02*
X01827Y03207D01*
X01369Y03151D02*
X01827Y03609D01*
X01374Y03043D02*
X01827Y03496D01*
X01380Y03105D02*
X01827Y03552D01*
X01380Y03021D02*
X01827Y03468D01*
X01368Y03552D02*
X01827Y03093D01*
X01369Y03580D02*
X01827Y03122D01*
X01362Y03059D02*
X01827Y03524D01*
X01380Y03219D02*
X01827Y03666D01*
X01380Y03710D02*
X01827Y03263D01*
X01380Y03512D02*
X01817Y03075D01*
X01375Y03241D02*
X01827Y03694D01*
X01363Y03258D02*
X01827Y03722D01*
X01374Y03688D02*
X01827Y03235D01*
X01375Y03489D02*
X01803Y03061D01*
X01379Y03428D02*
X01775Y03033D01*
X01379Y03400D02*
X01761Y03019D01*
X01363Y03473D02*
X01789Y03047D01*
X01370Y03381D02*
X01746Y03004D01*
X01356Y03366D02*
X01732Y02990D01*
X01357Y02885D02*
X01827Y03354D01*
X01345Y02900D02*
X01827Y03383D01*
X01041Y02483D02*
X01827Y03270D01*
X01041Y02540D02*
X01827Y03326D01*
X01041Y02625D02*
X01827Y03411D01*
X01041Y02512D02*
X01827Y03298D01*
X01178Y02536D02*
X01827Y03185D01*
X01368Y02669D02*
X01827Y03128D01*
X01194Y02524D02*
X01827Y03156D01*
X01157Y02543D02*
X01827Y03213D01*
X01131Y02545D02*
X01827Y03241D01*
X01178Y02536D02*
X01827Y03185D01*
X01381Y03314D02*
X01718Y02976D01*
X01379Y03231D02*
X01676Y02934D01*
X01379Y03202D02*
X01662Y02920D01*
X01372Y02984D02*
X01827Y03439D01*
X01375Y03291D02*
X01704Y02962D01*
X01364Y03274D02*
X01690Y02948D01*
X01371Y03182D02*
X01647Y02905D01*
X01381Y03116D02*
X01619Y02877D01*
X01376Y03092D02*
X01605Y02863D01*
X01357Y03167D02*
X01633Y02891D01*
X01365Y03075D02*
X01591Y02849D01*
X01919Y02638D02*
X02026Y02531D01*
X02050D02*
X02176Y02657D01*
X01745Y02808D02*
X01906Y02647D01*
X01759Y02822D02*
X02050Y02531D01*
X02026D02*
X02368D01*
X02079D02*
X02168Y02621D01*
X02010Y02456D02*
X02384D01*
X01877Y02574D02*
X01920Y02531D01*
X01865Y02574D02*
X01908Y02531D01*
X01909D02*
X01914Y02537D01*
X01852Y02649D02*
X01892D01*
X01852Y02574D02*
X01877D01*
X01852Y02531D02*
X01886Y02565D01*
X01824Y02531D02*
X01867Y02574D01*
X01830Y02554D02*
X01852Y02531D01*
X01845Y02566D02*
X01880Y02531D01*
X01809Y02546D02*
X01824Y02531D01*
X01796D02*
X01811Y02546D01*
X01881Y02531D02*
X01900Y02551D01*
X01780Y02547D02*
X01795Y02531D01*
X01768D02*
X01783Y02546D01*
X01757Y02456D02*
X01822Y02391D01*
X01983Y02456D02*
X02049Y02391D01*
X01967D02*
X02032Y02456D01*
X01995Y02391D02*
X02060Y02456D01*
X01938Y02391D02*
X02004Y02456D01*
X01927D02*
X01992Y02391D01*
X01955Y02456D02*
X02020Y02391D01*
X02068Y02456D02*
X02134Y02391D01*
X02051D02*
X02117Y02456D01*
X02080Y02391D02*
X02145Y02456D01*
X02023Y02391D02*
X02089Y02456D01*
X02012D02*
X02077Y02391D01*
X02040Y02456D02*
X02105Y02391D01*
X01825D02*
X01891Y02456D01*
X01814D02*
X01879Y02391D01*
X01842Y02456D02*
X01907Y02391D01*
X01785Y02456D02*
X01851Y02391D01*
X01769D02*
X01834Y02456D01*
X01797Y02391D02*
X01862Y02456D01*
X01899D02*
X01964Y02391D01*
X01882D02*
X01947Y02456D01*
X01910Y02391D02*
X01975Y02456D01*
X01854Y02391D02*
X01919Y02456D01*
X01870D02*
X01936Y02391D01*
X01717Y02780D02*
X01823Y02673D01*
X01702Y02766D02*
X01789Y02678D01*
X01731Y02794D02*
X01875Y02649D01*
X01688Y02751D02*
X01767Y02672D01*
X01674Y02737D02*
X01751Y02661D01*
X01660Y02723D02*
X01738Y02645D01*
X01646Y02709D02*
X01731Y02624D01*
X01654Y02531D02*
X01730Y02606D01*
X01580Y02531D02*
X01920D01*
X01639Y02687D02*
X01731Y02595D01*
X01626Y02531D02*
X01736Y02641D01*
X01648Y02565D02*
X01682Y02531D01*
X01660Y02582D02*
X01710Y02531D01*
X01639Y02666D02*
Y02702D01*
X01537Y02574D02*
X01580Y02531D01*
X01611Y02546D02*
X01626Y02531D01*
X01598D02*
X01613Y02546D01*
X01632Y02553D02*
X01654Y02531D01*
X01575Y02536D02*
X01585Y02546D01*
X01581Y02547D02*
X01597Y02531D01*
X01739D02*
X01762Y02554D01*
X01711Y02531D02*
X01747Y02567D01*
X01684Y02391D02*
X01749Y02456D01*
X01662Y02636D02*
X01767Y02531D01*
X01666Y02604D02*
X01739Y02531D01*
X01672Y02456D02*
X01738Y02391D01*
X01729Y02456D02*
X01794Y02391D01*
X01712D02*
X01777Y02456D01*
X01740Y02391D02*
X01806Y02456D01*
X01173Y02391D02*
X02906D01*
X01564Y02456D02*
X02010D01*
X01701D02*
X01766Y02391D01*
X01683Y02531D02*
X01735Y02584D01*
X01571Y02391D02*
X01636Y02456D01*
X01587D02*
X01653Y02391D01*
X01542D02*
X01608Y02456D01*
X01434Y02553D02*
X01596Y02391D01*
X01559Y02457D02*
X01624Y02391D01*
X01644Y02456D02*
X01709Y02391D01*
X01627D02*
X01693Y02456D01*
X01656Y02391D02*
X01721Y02456D01*
X01599Y02391D02*
X01664Y02456D01*
X01616D02*
X01681Y02391D01*
X01191Y03248D02*
X01279Y03161D01*
X01191Y03086D02*
X01277Y03172D01*
X01280Y03062D02*
X01284Y03066D01*
X01191Y03192D02*
X01259Y03124D01*
X01191Y03143D02*
X01259Y03210D01*
X01191Y03115D02*
X01265Y03188D01*
X01191Y03171D02*
X01268Y03247D01*
X01191Y03228D02*
X01261Y03298D01*
X01191Y03220D02*
X01266Y03145D01*
X01191Y03107D02*
X01262Y03036D01*
X01191Y03030D02*
X01261Y03099D01*
X01191Y03079D02*
X01259Y03011D01*
X01191Y03164D02*
X01263Y03092D01*
X01191Y03058D02*
X01259Y03126D01*
X01191Y03135D02*
X01272Y03054D01*
X01378Y03034D02*
X01577Y02835D01*
X01379Y03004D02*
X01563Y02821D01*
X01372Y02983D02*
X01548Y02806D01*
X01358Y02968D02*
X01534Y02792D01*
X01191Y02994D02*
X01465Y02720D01*
X01340Y02958D02*
X01520Y02778D01*
X01316Y02954D02*
X01506Y02764D01*
X01357Y02884D02*
X01492Y02750D01*
X01191Y02881D02*
X01401Y02671D01*
X01191Y02909D02*
X01429Y02671D01*
X01191Y02888D02*
X01276Y02973D01*
X01191Y02917D02*
X01264Y02989D01*
X01191Y02860D02*
X01292Y02961D01*
X01191Y02973D02*
X01273Y03055D01*
X01191Y02945D02*
X01259Y03012D01*
X01191Y03050D02*
X01340Y02902D01*
X01357Y02884*
X01319Y02894D02*
X01350Y02864D01*
X01332Y02859D02*
X01357Y02885D01*
X01316Y02872D02*
X01345Y02900D01*
X01191Y02832D02*
X01314Y02954D01*
X01191Y03305D02*
X01262Y03235D01*
X01191Y03277D02*
X01259Y03209D01*
X01191Y03199D02*
X01271Y03279D01*
X01191Y03284D02*
X01278Y03371D01*
X01191Y03256D02*
X01259Y03324D01*
X01191Y03333D02*
X01271Y03253D01*
X01041Y03088D02*
X01068Y03061D01*
X01041Y03077D02*
X01068Y03104D01*
X01041Y03049D02*
X01068Y03076D01*
X01041Y03106D02*
X01068Y03133D01*
X01041Y03144D02*
X01068Y03117D01*
X01041Y03116D02*
X01068Y03089D01*
X01041Y03257D02*
X01068Y03230D01*
X01041Y03247D02*
X01068Y03274D01*
X01041Y03219D02*
X01068Y03246D01*
X01041Y03275D02*
X01068Y03302D01*
X01041Y03314D02*
X01068Y03287D01*
X01041Y03286D02*
X01068Y03259D01*
X01041Y03172D02*
X01068Y03146D01*
X01041Y03162D02*
X01068Y03189D01*
X01041Y03134D02*
X01068Y03161D01*
X01041Y03191D02*
X01068Y03217D01*
X01041Y03229D02*
X01068Y03202D01*
X01041Y03201D02*
X01068Y03174D01*
X01191Y03022D02*
X01319Y02894D01*
X01191Y03001D02*
X01270Y03080D01*
X01191Y02966D02*
X01462Y02695D01*
X01191Y02813D02*
Y04496D01*
X01068Y02813D02*
Y04496D01*
X01041Y02653D02*
X01350Y02963D01*
X01191Y02937D02*
X01462Y02666D01*
X01041Y02851D02*
X01068Y02878D01*
X01041Y02597D02*
X01316Y02872D01*
X01041Y02879D02*
X01068Y02906D01*
X01041Y02918D02*
X01068Y02891D01*
X01041Y02890D02*
X01068Y02863D01*
X01041Y02993D02*
X01068Y03019D01*
X01041Y03031D02*
X01068Y03004D01*
X01041Y03003D02*
X01068Y02976D01*
X01041Y03021D02*
X01068Y03048D01*
X01041Y03059D02*
X01068Y03032D01*
X01041Y02391D02*
Y04958D01*
Y02946D02*
X01068Y02919D01*
X01041Y02936D02*
X01068Y02963D01*
X01041Y02908D02*
X01068Y02935D01*
X01041Y02964D02*
X01068Y02991D01*
X01041Y02974D02*
X01068Y02948D01*
X01462Y02558D02*
Y02705D01*
X01350Y02864D02*
X01478Y02736D01*
X01427Y02671D02*
X01462Y02707D01*
X01447Y02664D02*
X01462Y02678D01*
X01546Y02565D02*
X01549Y02567D01*
X01537Y02574D02*
Y02588D01*
X01560Y02550D02*
X01565Y02555D01*
X01452Y02564D02*
X01462Y02553D01*
X01460Y02647D02*
X01462Y02650D01*
X01462Y02589D02*
Y02634D01*
X01380Y02671D02*
X01425D01*
X01343Y02589D02*
Y02634D01*
X01380Y02553D02*
X01425D01*
X01473Y02532D02*
X01538Y02467D01*
X01401Y02391D02*
X01507Y02497D01*
X01406Y02553D02*
X01568Y02391D01*
X01373D02*
X01493Y02512D01*
X01344Y02391D02*
X01479Y02526D01*
X01378Y02553D02*
X01540Y02391D01*
X01514D02*
X01579Y02456D01*
X01458Y02391D02*
X01536Y02469D01*
X01429Y02391D02*
X01522Y02483D01*
X01486Y02391D02*
X01553Y02458D01*
X01231Y02391D02*
X01393Y02553D01*
X01288Y02391D02*
X01462Y02565D01*
X01220Y02465D02*
X01343Y02588D01*
X01216Y02489D02*
X01343Y02616D01*
X01211Y02428D02*
X01351Y02567D01*
X01260Y02391D02*
X01421Y02553D01*
X01220Y02456D02*
X01285Y02391D01*
X01316D02*
X01466Y02541D01*
X01214Y02434D02*
X01257Y02391D01*
X01217Y02487D02*
X01313Y02391D01*
X01191Y02852D02*
X01373Y02670D01*
X01068Y02813D02*
X01191D01*
Y02824D02*
X01355Y02661D01*
X01041Y02681D02*
X01173Y02813D01*
X01041Y02710D02*
X01145Y02813D01*
X01041Y02568D02*
X01332Y02859D01*
X01174Y02813D02*
X01344Y02643D01*
X01145Y02813D02*
X01343Y02615D01*
X01207Y02508D02*
X01345Y02647D01*
X01117Y02813D02*
X01343Y02587D01*
X01041Y02635D02*
X01131Y02545D01*
X01041Y02663D02*
X01162Y02542D01*
X01041Y02738D02*
X01116Y02813D01*
X01041Y02766D02*
X01088Y02813D01*
X01041Y02607D02*
X01109Y02539D01*
X01041Y02823D02*
X01068Y02850D01*
X01041Y02861D02*
X01068Y02834D01*
X01041Y02795D02*
X01068Y02821D01*
X01041Y02522D02*
X01066Y02497D01*
X01041Y02494D02*
X01059Y02475D01*
X01041Y02455D02*
X01059Y02473D01*
X01041Y02578D02*
X01091Y02529D01*
X01041Y02550D02*
X01076Y02515D01*
X01041Y02748D02*
X01398Y02391D01*
X01041Y02720D02*
X01370Y02391D01*
X01089Y02813D02*
X01511Y02391D01*
X01041Y02833D02*
X01483Y02391D01*
X01041Y02805D02*
X01455Y02391D01*
X01041Y02776D02*
X01426Y02391D01*
X01203D02*
X01367Y02555D01*
X01204Y02416D02*
X01228Y02391D01*
X01041Y02692D02*
X01342Y02391D01*
X01041Y02399D02*
X01068Y02426D01*
X01041Y02399D02*
X01068Y02426D01*
X01041Y02465D02*
X01061Y02445D01*
X01041Y02427D02*
X01061Y02447D01*
X01041Y02437D02*
X01087Y02391D01*
X01090D02*
X01096Y02397D01*
X01062Y02391D02*
X01080Y02410D01*
X01190Y02401D02*
X01200Y02391D01*
X01041Y02409D02*
X01059Y02391D01*
X01041D02*
X01106D01*
G54D15*
X02010Y02494D02*
X02384D01*
X02425Y02535*
Y02612*
X01564Y02494D02*
X02010D01*
X01892Y02612D02*
X02010Y02494D01*
X01500Y02558D02*
X01564Y02494D01*
X01403Y02496D02*
X01455Y02445D01*
X02425*
X02501Y02521*
X02615Y04131D02*
X02900Y03846D01*
Y03350D02*
Y03846D01*
X02678Y03128D02*
X02900Y03350D01*
X02501Y02521D02*
D01*
X02525Y02545*
Y02623*
X02457Y02691D02*
X02525Y02623D01*
X02366Y02691D02*
X02457D01*
X02228Y02612D02*
X02239Y02623D01*
X02298*
X02366Y02691*
X01500Y02558D02*
Y02705D01*
X01865Y03070*
X01796Y02612D02*
X01892D01*
X01403Y02496D02*
Y02612D01*
X01398Y02617D02*
Y02783D01*
Y02617D02*
X01403Y02612D01*
X02134Y04415D02*
X02320D01*
X02133Y04416D02*
X02134Y04415D01*
X01865Y04148D02*
X02133Y04416D01*
X01865Y03070D02*
Y04148D01*
X01480Y02865D02*
Y03935D01*
X01398Y02783D02*
X01480Y02865D01*
Y03935D02*
X02060Y04515D01*
X02355D02*
X02615Y04255D01*
X02060Y04515D02*
X02355D01*
X01480Y03935D02*
Y04250D01*
X01414Y04315D02*
X01480Y04250D01*
X01320Y04315D02*
X01414D01*
X02615Y04255D02*
Y04668D01*
Y03128D02*
X02678D01*
X02615Y04131D02*
Y04255D01*
G54D16*
X02070Y03930D02*
X02155Y04015D01*
X02320*
X01610Y02715D02*
X02070Y03175D01*
Y03930*
X01600Y02612D02*
X01610Y02622D01*
Y02715*
X02618Y02615D02*
Y03003D01*
Y02615D02*
X02621Y02612D01*
X02406Y03215D02*
X02618Y03003D01*
X02320Y03215D02*
X02406D01*
X02615Y03738D02*
X02810D01*
X02405Y03315D02*
X02440Y03350D01*
Y03415D02*
X02546Y03521D01*
X02810Y03738D02*
X02815Y03743D01*
X02320Y03315D02*
X02405D01*
X02615Y03521D02*
Y03738D01*
X02546Y03521D02*
X02615D01*
X02440Y03350D02*
Y03415D01*
G54D17*
X02813Y04138D02*
X02815Y04136D01*
X02813Y04138D02*
Y04670D01*
G54D18*
X01600Y02612D03*
X01796D03*
X02616Y04670D03*
X02425Y02612D03*
X02621D03*
G54D19*
X01403Y02612D03*
X02228D03*
G54D20*
X02813Y04670D03*
G54D21*
X02815Y04136D03*
X02615Y03738D03*
Y03521D03*
G54D22*
X02815Y03743D03*
X02615Y04131D03*
Y03128D03*
G54D23*
X01320Y04415D03*
G54D24*
X01320Y04315D03*
Y04215D03*
Y04115D03*
Y04015D03*
Y03915D03*
Y03815D03*
Y03715D03*
Y03615D03*
Y03515D03*
Y03415D03*
Y03315D03*
Y03215D03*
Y03115D03*
Y03015D03*
X02320Y04415D03*
Y04315D03*
Y04215D03*
Y04115D03*
Y04015D03*
Y03915D03*
Y03815D03*
Y03715D03*
Y03615D03*
Y03515D03*
Y03415D03*
Y03315D03*
Y03215D03*
Y03115D03*
Y03015D03*
G54D25*
X01140Y02465D03*
X02925Y02470D03*
X02035Y04900D03*
X01140Y02465D03*
X02925Y02470D03*
X02035Y04900D03*
M02*