%FSDAX23Y23*%
%MOIN*%
%SFA1B1*%

%IPPOS*%
%ADD10C,0.010000*%
%ADD11C,0.009840*%
%ADD12C,0.007870*%
%ADD13C,0.005000*%
%LNenvioesppcb-1*%
%LPD*%
G54D10*
X01200Y02465D02*
D01*
X01200Y02469*
X01199Y02473*
X01198Y02477*
X01197Y02481*
X01196Y02485*
X01195Y02489*
X01193Y02493*
X01191Y02496*
X01188Y02500*
X01186Y02503*
X01183Y02506*
X01180Y02509*
X01177Y02512*
X01173Y02514*
X01170Y02517*
X01166Y02519*
X01162Y02520*
X01158Y02522*
X01154Y02523*
X01150Y02524*
X01146Y02524*
X01142Y02525*
X01137*
X01133Y02524*
X01129Y02524*
X01125Y02523*
X01121Y02522*
X01117Y02520*
X01113Y02519*
X01109Y02517*
X01106Y02514*
X01102Y02512*
X01099Y02509*
X01096Y02506*
X01093Y02503*
X01091Y02500*
X01088Y02496*
X01086Y02493*
X01084Y02489*
X01083Y02485*
X01082Y02481*
X01081Y02477*
X01080Y02473*
X01079Y02469*
X01079Y02465*
X01079Y02460*
X01080Y02456*
X01081Y02452*
X01082Y02448*
X01083Y02444*
X01084Y02440*
X01086Y02436*
X01088Y02433*
X01091Y02429*
X01093Y02426*
X01096Y02423*
X01099Y02420*
X01102Y02417*
X01106Y02415*
X01109Y02412*
X01113Y02410*
X01117Y02409*
X01121Y02407*
X01125Y02406*
X01129Y02405*
X01133Y02405*
X01137Y02404*
X01142*
X01146Y02405*
X01150Y02405*
X01154Y02406*
X01158Y02407*
X01162Y02409*
X01166Y02410*
X01170Y02412*
X01173Y02415*
X01177Y02417*
X01180Y02420*
X01183Y02423*
X01186Y02426*
X01188Y02429*
X01191Y02433*
X01193Y02436*
X01195Y02440*
X01196Y02444*
X01197Y02448*
X01198Y02452*
X01199Y02456*
X01200Y02460*
X01200Y02465*
X02987Y02470D02*
D01*
X02987Y02474*
X02987Y02478*
X02986Y02483*
X02985Y02487*
X02983Y02491*
X02982Y02495*
X02980Y02499*
X02978Y02503*
X02975Y02506*
X02972Y02510*
X02970Y02513*
X02966Y02516*
X02963Y02519*
X02960Y02521*
X02956Y02524*
X02952Y02526*
X02948Y02528*
X02944Y02529*
X02940Y02530*
X02935Y02531*
X02931Y02532*
X02927Y02532*
X02922*
X02918Y02532*
X02914Y02531*
X02909Y02530*
X02905Y02529*
X02901Y02528*
X02897Y02526*
X02893Y02524*
X02889Y02521*
X02886Y02519*
X02883Y02516*
X02879Y02513*
X02877Y02510*
X02874Y02506*
X02871Y02503*
X02869Y02499*
X02867Y02495*
X02866Y02491*
X02864Y02487*
X02863Y02483*
X02862Y02478*
X02862Y02474*
X02862Y02470*
X02862Y02465*
X02862Y02461*
X02863Y02456*
X02864Y02452*
X02866Y02448*
X02867Y02444*
X02869Y02440*
X02871Y02436*
X02874Y02433*
X02877Y02429*
X02879Y02426*
X02883Y02423*
X02886Y02420*
X02889Y02418*
X02893Y02415*
X02897Y02413*
X02901Y02411*
X02905Y02410*
X02909Y02409*
X02914Y02408*
X02918Y02407*
X02922Y02407*
X02927*
X02931Y02407*
X02935Y02408*
X02940Y02409*
X02944Y02410*
X02948Y02411*
X02952Y02413*
X02956Y02415*
X02960Y02418*
X02963Y02420*
X02966Y02423*
X02970Y02426*
X02972Y02429*
X02975Y02433*
X02978Y02436*
X02980Y02440*
X02982Y02444*
X02983Y02448*
X02985Y02452*
X02986Y02456*
X02987Y02461*
X02987Y02465*
X02987Y02470*
X02100Y04900D02*
D01*
X02100Y04904*
X02099Y04909*
X02098Y04913*
X02097Y04917*
X02096Y04922*
X02094Y04926*
X02092Y04930*
X02090Y04934*
X02087Y04938*
X02084Y04941*
X02081Y04945*
X02078Y04948*
X02075Y04951*
X02071Y04954*
X02067Y04956*
X02063Y04958*
X02059Y04960*
X02055Y04961*
X02050Y04963*
X02046Y04964*
X02041Y04964*
X02037Y04965*
X02032*
X02028Y04964*
X02023Y04964*
X02019Y04963*
X02014Y04961*
X02010Y04960*
X02006Y04958*
X02002Y04956*
X01998Y04954*
X01994Y04951*
X01991Y04948*
X01988Y04945*
X01985Y04941*
X01982Y04938*
X01979Y04934*
X01977Y04930*
X01975Y04926*
X01973Y04922*
X01972Y04917*
X01971Y04913*
X01970Y04909*
X01969Y04904*
X01969Y04900*
X01969Y04895*
X01970Y04890*
X01971Y04886*
X01972Y04882*
X01973Y04877*
X01975Y04873*
X01977Y04869*
X01979Y04865*
X01982Y04861*
X01985Y04858*
X01988Y04854*
X01991Y04851*
X01994Y04848*
X01998Y04845*
X02002Y04843*
X02006Y04841*
X02010Y04839*
X02014Y04838*
X02019Y04836*
X02023Y04835*
X02028Y04835*
X02032Y04834*
X02037*
X02041Y04835*
X02046Y04835*
X02050Y04836*
X02055Y04838*
X02059Y04839*
X02063Y04841*
X02067Y04843*
X02071Y04845*
X02075Y04848*
X02078Y04851*
X02081Y04854*
X02084Y04858*
X02087Y04861*
X02090Y04865*
X02092Y04869*
X02094Y04873*
X02096Y04877*
X02097Y04882*
X02098Y04886*
X02099Y04890*
X02100Y04895*
X02100Y04900*
X01000Y02350D02*
X03080D01*
X01000Y05000D02*
X03080D01*
Y02350D02*
Y05000D01*
X01000Y02350D02*
Y05000D01*
X01155Y02840D02*
X01095D01*
X01115Y02859*
X01095Y02879*
X01155*
Y02899D02*
X01145D01*
Y02909*
X01155*
Y02899*
X01095Y03009D02*
X01155D01*
Y03039*
X01145Y03049*
X01135*
X01125Y03039*
Y03009*
Y03039*
X01115Y03049*
X01105*
X01095Y03039*
Y03009*
X01155Y03099D02*
Y03079D01*
X01145Y03069*
X01125*
X01115Y03079*
Y03099*
X01125Y03109*
X01135*
Y03069*
X01115Y03129D02*
X01155D01*
X01135*
X01125Y03139*
X01115Y03149*
Y03159*
X01155Y03189D02*
X01115D01*
Y03199*
X01125Y03209*
X01155*
X01125*
X01115Y03219*
X01125Y03229*
X01155*
X01115Y03249D02*
X01145D01*
X01155Y03259*
Y03289*
X01115*
X01095Y03349D02*
X01155D01*
Y03319*
X01145Y03309*
X01125*
X01115Y03319*
Y03349*
X01155Y03399D02*
Y03379D01*
X01145Y03369*
X01125*
X01115Y03379*
Y03399*
X01125Y03409*
X01135*
Y03369*
X01115Y03429D02*
Y03469D01*
X01155Y03429*
Y03469*
X01125Y03549D02*
Y03589D01*
X01155Y03669D02*
X01095D01*
Y03699*
X01105Y03709*
X01125*
X01135Y03699*
Y03669*
X01155Y03739D02*
Y03759D01*
X01145Y03769*
X01125*
X01115Y03759*
Y03739*
X01125Y03729*
X01145*
X01155Y03739*
X01115Y03789D02*
X01145D01*
X01155Y03799*
X01145Y03809*
X01155Y03819*
X01145Y03829*
X01115*
X01155Y03879D02*
Y03859D01*
X01145Y03849*
X01125*
X01115Y03859*
Y03879*
X01125Y03889*
X01135*
Y03849*
X01115Y03909D02*
X01155D01*
X01135*
X01125Y03919*
X01115Y03929*
Y03939*
X01095Y04029D02*
X01155D01*
Y04059*
X01145Y04069*
X01135*
X01125Y04059*
Y04029*
Y04059*
X01115Y04069*
X01105*
X01095Y04059*
Y04029*
X01155Y04089D02*
Y04109D01*
Y04099*
X01115*
Y04089*
X01155Y04139D02*
X01095D01*
X01135D02*
X01115Y04169D01*
X01135Y04139D02*
X01155Y04169D01*
Y04229D02*
Y04209D01*
X01145Y04199*
X01125*
X01115Y04209*
Y04229*
X01125Y04239*
X01135*
Y04199*
X01105Y04359D02*
X01095Y04349D01*
Y04329*
X01105Y04319*
X01115*
X01125Y04329*
Y04349*
X01135Y04359*
X01145*
X01155Y04349*
Y04329*
X01145Y04319*
X01095Y04379D02*
X01155D01*
Y04409*
X01145Y04419*
X01105*
X01095Y04409*
Y04379*
X01155Y04439D02*
Y04459D01*
Y04449*
X01095*
X01105Y04439*
X01321Y02875D02*
X01301D01*
X01311*
Y02826*
X01301Y02816*
X01292*
X01282Y02826*
X01341Y02865D02*
X01351Y02875D01*
X01371*
X01381Y02865*
Y02855*
X01371Y02845*
X01361*
X01371*
X01381Y02835*
Y02826*
X01371Y02816*
X01351*
X01341Y02826*
X02562Y04925D02*
X02542D01*
X02552*
Y04876*
X02542Y04866*
X02533*
X02523Y04876*
X02582Y04866D02*
X02602D01*
X02592*
Y04925*
X02582Y04915*
X02768Y04199D02*
Y04258D01*
X02797*
X02807Y04248*
Y04228*
X02797Y04218*
X02768*
X02787D02*
X02807Y04199D01*
X02827D02*
X02847D01*
X02837*
Y04258*
X02827Y04248*
X01237Y04898D02*
X01247Y04908D01*
X01266*
X01276Y04898*
Y04888*
X01266Y04878*
X01256*
X01266*
X01276Y04868*
Y04859*
X01266Y04849*
X01247*
X01237Y04859*
X01336Y04849D02*
X01296D01*
X01336Y04888*
Y04898*
X01326Y04908*
X01306*
X01296Y04898*
X01396Y04849D02*
X01356D01*
X01396Y04888*
Y04898*
X01386Y04908*
X01366*
X01356Y04898*
X01416Y04849D02*
X01436D01*
X01426*
Y04908*
X01416Y04898*
X01506Y04849D02*
X01466D01*
X01506Y04888*
Y04898*
X01496Y04908*
X01476*
X01466Y04898*
X02146Y02875D02*
X02126D01*
X02136*
Y02826*
X02126Y02816*
X02117*
X02107Y02826*
X02206Y02816D02*
X02166D01*
X02206Y02855*
Y02865*
X02196Y02875*
X02176*
X02166Y02865*
X02568Y04194D02*
Y04253D01*
X02597*
X02607Y04243*
Y04223*
X02597Y04213*
X02568*
X02587D02*
X02607Y04194D01*
X02667D02*
X02627D01*
X02667Y04233*
Y04243*
X02657Y04253*
X02637*
X02627Y04243*
X02568Y03584D02*
Y03643D01*
X02597*
X02607Y03633*
Y03613*
X02597Y03603*
X02568*
X02587D02*
X02607Y03584D01*
X02627Y03633D02*
X02637Y03643D01*
X02657*
X02667Y03633*
Y03623*
X02657Y03613*
X02647*
X02657*
X02667Y03603*
Y03594*
X02657Y03584*
X02637*
X02627Y03594*
G54D11*
X02818Y04482D02*
D01*
X02818Y04483*
X02818Y04483*
X02818Y04484*
X02818Y04484*
X02818Y04484*
X02817Y04484*
X02817Y04485*
X02817Y04485*
X02817Y04485*
X02817Y04486*
X02816Y04486*
X02816Y04486*
X02816Y04486*
X02816Y04487*
X02815Y04487*
X02815Y04487*
X02815Y04487*
X02814Y04487*
X02814Y04487*
X02814Y04487*
X02813Y04487*
X02813Y04487*
X02813*
X02812Y04487*
X02812Y04487*
X02812Y04487*
X02811Y04487*
X02811Y04487*
X02811Y04487*
X02810Y04487*
X02810Y04487*
X02810Y04486*
X02810Y04486*
X02809Y04486*
X02809Y04486*
X02809Y04485*
X02809Y04485*
X02809Y04485*
X02808Y04484*
X02808Y04484*
X02808Y04484*
X02808Y04484*
X02808Y04483*
X02808Y04483*
X02808Y04482*
X02808Y04482*
X02808Y04482*
X02808Y04481*
X02808Y04481*
X02808Y04481*
X02808Y04480*
X02809Y04480*
X02809Y04480*
X02809Y04480*
X02809Y04479*
X02809Y04479*
X02810Y04479*
X02810Y04479*
X02810Y04478*
X02810Y04478*
X02811Y04478*
X02811Y04478*
X02811Y04478*
X02812Y04478*
X02812Y04478*
X02812Y04478*
X02813Y04478*
X02813*
X02813Y04478*
X02814Y04478*
X02814Y04478*
X02814Y04478*
X02815Y04478*
X02815Y04478*
X02815Y04478*
X02816Y04478*
X02816Y04479*
X02816Y04479*
X02816Y04479*
X02817Y04479*
X02817Y04480*
X02817Y04480*
X02817Y04480*
X02817Y04480*
X02818Y04481*
X02818Y04481*
X02818Y04481*
X02818Y04482*
X02818Y04482*
X02818Y04482*
G54D12*
X01239Y04415D02*
D01*
X01239Y04416*
X01239Y04416*
X01239Y04416*
X01239Y04416*
X01239Y04417*
X01238Y04417*
X01238Y04417*
X01238Y04417*
X01238Y04418*
X01238Y04418*
X01238Y04418*
X01237Y04418*
X01237Y04418*
X01237Y04419*
X01237Y04419*
X01237Y04419*
X01236Y04419*
X01236Y04419*
X01236Y04419*
X01236Y04419*
X01235Y04419*
X01235Y04419*
X01235*
X01234Y04419*
X01234Y04419*
X01234Y04419*
X01234Y04419*
X01233Y04419*
X01233Y04419*
X01233Y04419*
X01233Y04419*
X01232Y04418*
X01232Y04418*
X01232Y04418*
X01232Y04418*
X01232Y04418*
X01232Y04417*
X01231Y04417*
X01231Y04417*
X01231Y04417*
X01231Y04416*
X01231Y04416*
X01231Y04416*
X01231Y04416*
X01231Y04415*
X01231Y04415*
X01231Y04415*
X01231Y04415*
X01231Y04414*
X01231Y04414*
X01231Y04414*
X01231Y04413*
X01232Y04413*
X01232Y04413*
X01232Y04413*
X01232Y04413*
X01232Y04412*
X01232Y04412*
X01233Y04412*
X01233Y04412*
X01233Y04412*
X01233Y04412*
X01234Y04412*
X01234Y04412*
X01234Y04411*
X01234Y04411*
X01235Y04411*
X01235*
X01235Y04411*
X01236Y04411*
X01236Y04412*
X01236Y04412*
X01236Y04412*
X01237Y04412*
X01237Y04412*
X01237Y04412*
X01237Y04412*
X01237Y04412*
X01238Y04413*
X01238Y04413*
X01238Y04413*
X01238Y04413*
X01238Y04413*
X01238Y04414*
X01239Y04414*
X01239Y04414*
X01239Y04415*
X01239Y04415*
X01239Y04415*
X01239Y04415*
X01304Y02576D02*
Y02777D01*
X01895*
X01304Y02482D02*
Y02549D01*
X01281Y02546D02*
X01304Y02549D01*
X01281Y02579D02*
X01304Y02576D01*
X01281Y02546D02*
Y02579D01*
X01304Y02482D02*
X01895D01*
X01918Y02704D02*
Y02742D01*
X01895Y02740D02*
X01918Y02742D01*
X01895Y02706D02*
X01918Y02704D01*
X01895Y02740D02*
Y02777D01*
Y02482D02*
Y02706D01*
X02935Y04508D02*
Y04831D01*
X02518Y04508D02*
X02935D01*
X02518D02*
Y04831D01*
X02935*
X02815Y04067D02*
Y04096D01*
Y03783D02*
Y03812D01*
X02765D02*
X02864D01*
Y04067*
X02765D02*
X02864D01*
X02765Y03812D02*
Y04067D01*
X02129Y02576D02*
Y02777D01*
X02720*
X02129Y02482D02*
Y02549D01*
X02106Y02546D02*
X02129Y02549D01*
X02106Y02579D02*
X02129Y02576D01*
X02106Y02546D02*
Y02579D01*
X02129Y02482D02*
X02720D01*
X02743Y02704D02*
Y02742D01*
X02720Y02740D02*
X02743Y02742D01*
X02720Y02706D02*
X02743Y02704D01*
X02720Y02740D02*
Y02777D01*
Y02482D02*
Y02706D01*
X02615Y03778D02*
Y03807D01*
Y04062D02*
Y04091D01*
X02565Y04062D02*
X02664D01*
X02565Y03807D02*
Y04062D01*
Y03807D02*
X02664D01*
Y04062*
X02615Y03452D02*
Y03481D01*
Y03168D02*
Y03197D01*
X02565D02*
X02664D01*
Y03452*
X02565D02*
X02664D01*
X02565Y03197D02*
Y03452D01*
G54D13*
X02380Y02802D02*
Y04807D01*
X01257Y02802D02*
X02380D01*
X01257Y04807D02*
X02380D01*
X01257Y02802D02*
Y04807D01*
X01693*
X01957*
X02380*
X01257Y02802D02*
Y04807D01*
X02380Y02802D02*
Y04807D01*
X01257Y02802D02*
X01469D01*
X02165*
X02380*
M02*