%FSDAX23Y23*%
%MOIN*%
%SFA1B1*%

%IPPOS*%
%ADD10C,0.010000*%
%ADD14R,0.049212X0.049212*%
%ADD15C,0.049212*%
%ADD21R,0.049212X0.049212*%
%ADD23C,0.062992*%
%ADD24R,0.062992X0.062992*%
%ADD25R,0.078740X0.078740*%
%ADD26C,0.078740*%
%ADD27C,0.118110*%
%ADD28C,0.008000*%
%ADD29C,0.015748*%
%ADD30C,0.031496*%
%LNpcbenvio_esp32-1*%
%LPD*%
G54D10*
X01975Y04270D02*
X02024D01*
X01385Y04303D02*
Y04337D01*
X01520Y03755D02*
Y03796D01*
Y03838*
X01687Y03455D02*
X01721D01*
X01756*
X01473Y02928D02*
X01515D01*
Y02886D02*
Y02928D01*
Y02969*
X02830Y04749D02*
X02810D01*
X02820*
Y04690*
X02830*
X02810*
X02740Y04749D02*
X02780D01*
Y04690*
X02740*
X02780Y04719D02*
X02760D01*
X02720Y04749D02*
Y04690D01*
X02680*
X02620Y04749D02*
X02660D01*
Y04690*
X02620*
X02660Y04719D02*
X02640D01*
X02720Y02625D02*
Y02668D01*
X02705Y02653*
X02691Y02668*
Y02625*
X02676D02*
Y02632D01*
X02669*
Y02625*
X02676*
X02597Y02668D02*
Y02625D01*
X02575*
X02568Y02632*
Y02639*
X02575Y02646*
X02597*
X02575*
X02568Y02653*
Y02661*
X02575Y02668*
X02597*
X02532Y02625D02*
X02546D01*
X02554Y02632*
Y02646*
X02546Y02653*
X02532*
X02525Y02646*
Y02639*
X02554*
X02510Y02653D02*
Y02625D01*
Y02639*
X02503Y02646*
X02496Y02653*
X02489*
X02467Y02625D02*
Y02653D01*
X02460*
X02453Y02646*
Y02625*
Y02646*
X02445Y02653*
X02438Y02646*
Y02625*
X02424Y02653D02*
Y02632D01*
X02416Y02625*
X02395*
Y02653*
X02352Y02668D02*
Y02625D01*
X02373*
X02380Y02632*
Y02646*
X02373Y02653*
X02352*
X02315Y02625D02*
X02330D01*
X02337Y02632*
Y02646*
X02330Y02653*
X02315*
X02308Y02646*
Y02639*
X02337*
X02294Y02653D02*
X02265D01*
X02294Y02625*
X02265*
X02207Y02646D02*
X02178D01*
X02121Y02625D02*
Y02668D01*
X02099*
X02092Y02661*
Y02646*
X02099Y02639*
X02121*
X02070Y02625D02*
X02056D01*
X02048Y02632*
Y02646*
X02056Y02653*
X02070*
X02077Y02646*
Y02632*
X02070Y02625*
X02034Y02653D02*
Y02632D01*
X02027Y02625*
X02020Y02632*
X02012Y02625*
X02005Y02632*
Y02653*
X01969Y02625D02*
X01984D01*
X01991Y02632*
Y02646*
X01984Y02653*
X01969*
X01962Y02646*
Y02639*
X01991*
X01947Y02653D02*
Y02625D01*
Y02639*
X01940Y02646*
X01933Y02653*
X01926*
X01861Y02668D02*
Y02625D01*
X01839*
X01832Y02632*
Y02639*
X01839Y02646*
X01861*
X01839*
X01832Y02653*
Y02661*
X01839Y02668*
X01861*
X01818Y02625D02*
X01803D01*
X01810*
Y02653*
X01818*
X01781Y02625D02*
Y02668D01*
Y02639D02*
X01760Y02653D01*
X01781Y02639D02*
X01760Y02625D01*
X01717D02*
X01731D01*
X01738Y02632*
Y02646*
X01731Y02653*
X01717*
X01709Y02646*
Y02639*
X01738*
X01623Y02661D02*
X01630Y02668D01*
X01644*
X01652Y02661*
Y02653*
X01644Y02646*
X01630*
X01623Y02639*
Y02632*
X01630Y02625*
X01644*
X01652Y02632*
X01608Y02668D02*
Y02625D01*
X01587*
X01579Y02632*
Y02661*
X01587Y02668*
X01608*
X01565Y02625D02*
X01551D01*
X01558*
Y02668*
X01565Y02661*
G54D14*
X01630Y04696D03*
X01385Y04303D03*
G54D15*
X01630Y04303D03*
X01385Y04696D03*
X01328Y03455D03*
G54D21*
X01721Y03455D03*
G54D23*
X01520Y03796D03*
X01515Y02928D03*
G54D24*
X01520Y03993D03*
X01515Y03125D03*
G54D25*
X01975Y04370D03*
G54D26*
X01975Y04270D03*
Y04170D03*
Y04070D03*
Y03970D03*
Y03870D03*
Y03770D03*
Y03670D03*
Y03570D03*
Y03470D03*
Y03370D03*
Y03270D03*
Y03170D03*
Y03070D03*
Y02970D03*
X02975Y04370D03*
Y04270D03*
Y04170D03*
Y04070D03*
Y03970D03*
Y03870D03*
Y03770D03*
Y03670D03*
Y03570D03*
Y03470D03*
Y03370D03*
Y03270D03*
Y03170D03*
Y03070D03*
Y02970D03*
G54D27*
X02140Y04885D03*
X02940Y02655D03*
X01400D03*
G54D28*
X02220Y04885D02*
D01*
X02220Y04890*
X02219Y04896*
X02219Y04901*
X02217Y04907*
X02215Y04912*
X02213Y04917*
X02211Y04922*
X02208Y04927*
X02205Y04932*
X02201Y04936*
X02198Y04941*
X02194Y04945*
X02189Y04948*
X02185Y04951*
X02180Y04954*
X02175Y04957*
X02170Y04959*
X02164Y04961*
X02159Y04963*
X02154Y04964*
X02148Y04965*
X02142Y04965*
X02140Y04965*
D01*
X02134Y04965*
X02128Y04964*
X02123Y04964*
X02117Y04962*
X02112Y04960*
X02107Y04958*
X02102Y04956*
X02097Y04953*
X02092Y04950*
X02088Y04946*
X02083Y04943*
X02079Y04939*
X02076Y04934*
X02073Y04930*
X02070Y04925*
X02067Y04920*
X02065Y04915*
X02063Y04909*
X02061Y04904*
X02060Y04899*
X02059Y04893*
X02059Y04887*
X02059Y04885*
X02140Y04804D02*
D01*
X02145Y04804*
X02151Y04805*
X02156Y04805*
X02162Y04807*
X02167Y04809*
X02172Y04811*
X02177Y04813*
X02182Y04816*
X02187Y04819*
X02191Y04823*
X02196Y04826*
X02200Y04830*
X02203Y04835*
X02206Y04839*
X02209Y04844*
X02212Y04849*
X02214Y04854*
X02216Y04860*
X02218Y04865*
X02219Y04870*
X02220Y04876*
X02220Y04882*
X02220Y04885*
X02059D02*
D01*
X02059Y04879*
X02060Y04873*
X02060Y04868*
X02062Y04862*
X02064Y04857*
X02066Y04852*
X02068Y04847*
X02071Y04842*
X02074Y04837*
X02078Y04833*
X02081Y04828*
X02085Y04824*
X02090Y04821*
X02094Y04818*
X02099Y04815*
X02104Y04812*
X02109Y04810*
X02115Y04808*
X02120Y04806*
X02125Y04805*
X02131Y04804*
X02137Y04804*
X02140Y04804*
X03020Y02655D02*
D01*
X03020Y02660*
X03019Y02666*
X03019Y02671*
X03017Y02677*
X03015Y02682*
X03013Y02687*
X03011Y02692*
X03008Y02697*
X03005Y02702*
X03001Y02706*
X02998Y02711*
X02994Y02715*
X02989Y02718*
X02985Y02721*
X02980Y02724*
X02975Y02727*
X02970Y02729*
X02964Y02731*
X02959Y02733*
X02954Y02734*
X02948Y02735*
X02942Y02735*
X02940Y02735*
Y02574D02*
D01*
X02945Y02574*
X02951Y02575*
X02956Y02575*
X02962Y02577*
X02967Y02579*
X02972Y02581*
X02977Y02583*
X02982Y02586*
X02987Y02589*
X02991Y02593*
X02996Y02596*
X03000Y02600*
X03003Y02605*
X03006Y02609*
X03009Y02614*
X03012Y02619*
X03014Y02624*
X03016Y02630*
X03018Y02635*
X03019Y02640*
X03020Y02646*
X03020Y02652*
X03020Y02655*
X02940Y02735D02*
D01*
X02934Y02735*
X02928Y02734*
X02923Y02734*
X02917Y02732*
X02912Y02730*
X02907Y02728*
X02902Y02726*
X02897Y02723*
X02892Y02720*
X02888Y02716*
X02883Y02713*
X02879Y02709*
X02876Y02704*
X02873Y02700*
X02870Y02695*
X02867Y02690*
X02865Y02685*
X02863Y02679*
X02861Y02674*
X02860Y02669*
X02859Y02663*
X02859Y02657*
X02859Y02655*
D01*
X02859Y02649*
X02860Y02643*
X02860Y02638*
X02862Y02632*
X02864Y02627*
X02866Y02622*
X02868Y02617*
X02871Y02612*
X02874Y02607*
X02878Y02603*
X02881Y02598*
X02885Y02594*
X02890Y02591*
X02894Y02588*
X02899Y02585*
X02904Y02582*
X02909Y02580*
X02915Y02578*
X02920Y02576*
X02925Y02575*
X02931Y02574*
X02937Y02574*
X02940Y02574*
X01400D02*
D01*
X01405Y02574*
X01411Y02575*
X01416Y02575*
X01422Y02577*
X01427Y02579*
X01432Y02581*
X01437Y02583*
X01442Y02586*
X01447Y02589*
X01451Y02593*
X01456Y02596*
X01460Y02600*
X01463Y02605*
X01466Y02609*
X01469Y02614*
X01472Y02619*
X01474Y02624*
X01476Y02630*
X01478Y02635*
X01479Y02640*
X01480Y02646*
X01480Y02652*
X01480Y02655*
D01*
X01480Y02660*
X01479Y02666*
X01479Y02671*
X01477Y02677*
X01475Y02682*
X01473Y02687*
X01471Y02692*
X01468Y02697*
X01465Y02702*
X01461Y02706*
X01458Y02711*
X01454Y02715*
X01449Y02718*
X01445Y02721*
X01440Y02724*
X01435Y02727*
X01430Y02729*
X01424Y02731*
X01419Y02733*
X01414Y02734*
X01408Y02735*
X01402Y02735*
X01400Y02735*
D01*
X01394Y02735*
X01388Y02734*
X01383Y02734*
X01377Y02732*
X01372Y02730*
X01367Y02728*
X01362Y02726*
X01357Y02723*
X01352Y02720*
X01348Y02716*
X01343Y02713*
X01339Y02709*
X01336Y02704*
X01333Y02700*
X01330Y02695*
X01327Y02690*
X01325Y02685*
X01323Y02679*
X01321Y02674*
X01320Y02669*
X01319Y02663*
X01319Y02657*
X01319Y02655*
D01*
X01319Y02649*
X01320Y02643*
X01320Y02638*
X01322Y02632*
X01324Y02627*
X01326Y02622*
X01328Y02617*
X01331Y02612*
X01334Y02607*
X01338Y02603*
X01341Y02598*
X01345Y02594*
X01350Y02591*
X01354Y02588*
X01359Y02585*
X01364Y02582*
X01369Y02580*
X01375Y02578*
X01380Y02576*
X01385Y02575*
X01391Y02574*
X01397Y02574*
X01400Y02574*
X03004Y05000D02*
X03085Y04919D01*
X03032Y05000D02*
X03085Y04947D01*
X02947Y05000D02*
X03085Y04862D01*
X02976Y05000D02*
X03085Y04891D01*
X02891Y05000D02*
X03085Y04806D01*
X02919Y05000D02*
X03085Y04834D01*
X02863Y05000D02*
X03085Y04778D01*
X02973Y04698D02*
X03085Y04810D01*
X02951Y04705D02*
X03085Y04838D01*
X02861Y04671D02*
X03085Y04895D01*
X02978Y04675D02*
X03085Y04782D01*
X02861Y04728D02*
X03085Y04951D01*
X02861Y04756D02*
X03085Y04980D01*
X02861Y04700D02*
X03085Y04923D01*
X03061Y05000D02*
X03085Y04976D01*
X02945Y04705D02*
X02967D01*
X02978Y04694*
X02934Y04688D02*
X02951Y04705D01*
X02934Y04694D02*
X02945Y04705D01*
X02861Y04775D02*
X02938Y04698D01*
X02861Y04746D02*
X02934Y04673D01*
X02978Y04672D02*
Y04694D01*
X02959Y04705D02*
X02978Y04686D01*
X02964Y04661D02*
X02978Y04675D01*
X02945Y04661D02*
X02967D01*
X02940Y04666D02*
X02973Y04698D01*
X02934Y04672D02*
Y04694D01*
X02938Y04698D02*
X02971Y04665D01*
X02988Y04431D02*
X03085Y04527D01*
X02960Y04431D02*
X03085Y04555D01*
X03025Y04411D02*
X03085Y04470D01*
X03011Y04425D02*
X03085Y04499D01*
X02861Y04690D02*
X03085Y04466D01*
X02861Y04718D02*
X03085Y04495D01*
X02861Y04661D02*
X03085Y04438D01*
X03036Y04365D02*
X03085Y04414D01*
X03036Y04393D02*
X03085Y04442D01*
X03036Y04346D02*
X03085Y04297D01*
X03036Y04374D02*
X03085Y04325D01*
X03031Y04304D02*
X03085Y04357D01*
X03017Y04318D02*
X03085Y04386D01*
X03031Y04304D02*
X03085Y04357D01*
X02978Y04686D02*
X03085Y04580D01*
X02967Y04661D02*
X02978Y04672D01*
X02946Y04661D02*
X03085Y04523D01*
X02971Y04665D02*
X03085Y04551D01*
X02934Y04673D02*
X02946Y04661D01*
X02934Y04672D02*
X02945Y04661D01*
X02861Y04658D02*
Y04781D01*
X03005Y04431D02*
X03036Y04400D01*
X02944Y04431D02*
X03005D01*
X03036Y04339D02*
Y04400D01*
X02913D02*
X02944Y04431D01*
X02913Y04339D02*
Y04400D01*
Y04339D02*
X02933Y04320D01*
X02858Y04781D02*
X03076Y05000D01*
X02830Y04781D02*
X03048Y05000D01*
X02806D02*
X03085Y04721D01*
X02834Y05000D02*
X03085Y04749D01*
X02801Y04781D02*
X03020Y05000D01*
X02773Y04781D02*
X02991Y05000D01*
X02778D02*
X03085Y04693D01*
X02837Y04658D02*
X03085Y04410D01*
X02752Y04658D02*
X02979Y04431D01*
X02780Y04658D02*
X03085Y04353D01*
X02808Y04658D02*
X03085Y04382D01*
X02721Y05000D02*
X03085Y04636D01*
X02749Y05000D02*
X03085Y04664D01*
X02693Y05000D02*
X03085Y04608D01*
X02688Y04781D02*
X02906Y05000D01*
X02660Y04781D02*
X02878Y05000D01*
X02665D02*
X02959Y04705D01*
X02716Y04781D02*
X02935Y05000D01*
X02240D02*
X02927Y04313D01*
X02212Y05000D02*
X02913Y04298D01*
X02184Y05000D02*
X02913Y04270D01*
X02745Y04781D02*
X02963Y05000D01*
X02723Y04658D02*
X02951Y04431D01*
X02695Y04658D02*
X02933Y04420D01*
X02667Y04658D02*
X02919Y04406D01*
X02639Y04658D02*
X02913Y04383D01*
X02610Y04658D02*
X02913Y04355D01*
X02414Y04083D02*
X03085Y04753D01*
X02414Y04168D02*
X02934Y04688D01*
X02414Y04026D02*
X03085Y04697D01*
X02414Y04055D02*
X03085Y04725D01*
X02414Y04196D02*
X03085Y04866D01*
X02209Y04833D02*
X02928Y04114D01*
X02125Y04804D02*
X02921Y04008D01*
X02414Y03941D02*
X03085Y04612D01*
X02414Y03970D02*
X03085Y04640D01*
X02414Y03913D02*
X03085Y04584D01*
X02414Y04430D02*
X02929Y03915D01*
X02414Y04111D02*
X02964Y04661D01*
X02414Y04139D02*
X02940Y04666D01*
X02414Y03998D02*
X03085Y04668D01*
X02220Y04906D02*
X02920Y04207D01*
X02220Y04878D02*
X02913Y04185D01*
X02195Y04819D02*
X02913Y04100D01*
X02220Y04850D02*
X02913Y04157D01*
X02181Y04805D02*
X02913Y04072D01*
X02155Y05000D02*
X02913Y04242D01*
X02153Y04804D02*
X02913Y04044D01*
X02414Y03857D02*
X02913Y04356D01*
X02414Y04373D02*
X02913Y03874D01*
X02414Y04345D02*
X02913Y03846D01*
X02414Y04401D02*
X02914Y03901D01*
X02414Y04458D02*
X02913Y03959D01*
X02414Y03885D02*
X02913Y04384D01*
X03036Y04148D02*
X03085Y04099D01*
X03036Y04176D02*
X03085Y04127D01*
X03036Y04054D02*
X03085Y04103D01*
X03036Y04082D02*
X03085Y04131D01*
X03030Y04105D02*
X03085Y04159D01*
X03016Y04119D02*
X03085Y04188D01*
X03026Y04129D02*
X03085Y04070D01*
X03036Y04063D02*
X03085Y04014D01*
X03036Y04091D02*
X03085Y04042D01*
X03036Y03969D02*
X03085Y04018D01*
X03036Y03997D02*
X03085Y04046D01*
X03033Y04037D02*
X03085Y03986D01*
X03023Y04013D02*
X03085Y04074D01*
X03019Y04023D02*
X03085Y03957D01*
X03036Y04252D02*
X03085Y04301D01*
X03036Y04280D02*
X03085Y04329D01*
X03036Y04289D02*
X03085Y04240D01*
X03036Y04239D02*
Y04300D01*
X03025Y04328D02*
X03085Y04268D01*
X03016Y04320D02*
X03036Y04339D01*
X03024Y04212D02*
X03085Y04272D01*
X03036Y04167D02*
X03085Y04216D01*
X03036Y04195D02*
X03085Y04244D01*
X03036Y04039D02*
Y04100D01*
Y04139D02*
Y04200D01*
X03032Y04236D02*
X03085Y04184D01*
X03036Y04261D02*
X03085Y04212D01*
X03018Y04222D02*
X03085Y04155D01*
X03036Y03799D02*
X03085Y03848D01*
X03036Y03865D02*
X03085Y03816D01*
X03036Y03743D02*
X03085Y03792D01*
X03036Y03771D02*
X03085Y03820D01*
X03034Y03838D02*
X03085Y03788D01*
X03022Y03814D02*
X03085Y03876D01*
X03020Y03824D02*
X03085Y03759D01*
X03036Y03686D02*
X03085Y03735D01*
X03036Y03752D02*
X03085Y03703D01*
X03036Y03695D02*
X03085Y03646D01*
X03036Y03658D02*
X03085Y03707D01*
X03028Y03707D02*
X03085Y03763D01*
X03036Y03780D02*
X03085Y03731D01*
X03028Y03731D02*
X03085Y03674D01*
X03036Y03978D02*
X03085Y03929D01*
X03036Y03941D02*
X03085Y03990D01*
X03036Y03884D02*
X03085Y03933D01*
X03036Y03950D02*
X03085Y03901D01*
X03029Y03906D02*
X03085Y03961D01*
X03036Y03939D02*
Y04000D01*
X03027Y03930D02*
X03085Y03872D01*
X03036Y03893D02*
X03085Y03844D01*
X03036Y03739D02*
Y03800D01*
Y03639D02*
Y03700D01*
Y03856D02*
X03085Y03905D01*
X03036Y03839D02*
Y03900D01*
X03016Y03720D02*
X03036Y03700D01*
X03016Y04120D02*
X03036Y04139D01*
X03016Y04220D02*
X03036Y04200D01*
X03016Y04020D02*
X03036Y04039D01*
X03016Y04120D02*
X03036Y04100D01*
X03016Y04220D02*
X03036Y04239D01*
X03016Y04320D02*
X03036Y04300D01*
X02913Y04000D02*
X02933Y04020D01*
X03016Y03920D02*
X03036Y03939D01*
X03016Y04020D02*
X03036Y04000D01*
X03016Y03820D02*
X03036Y03839D01*
X03016Y03920D02*
X03036Y03900D01*
X02913D02*
X02933Y03920D01*
X02913Y03939D02*
X02933Y03920D01*
X02913Y03839D02*
X02933Y03820D01*
X02913Y04239D02*
X02933Y04220D01*
X02913Y04239D02*
Y04300D01*
Y04200D02*
X02933Y04220D01*
X02913Y04139D02*
Y04200D01*
Y04300D02*
X02933Y04320D01*
X02414Y03828D02*
X02919Y04333D01*
X02414Y04317D02*
X02922Y03809D01*
X02913Y04039D02*
X02933Y04020D01*
X02913Y03939D02*
Y04000D01*
Y03839D02*
Y03900D01*
Y04100D02*
X02933Y04120D01*
X02913Y04139D02*
X02933Y04120D01*
X02913Y04039D02*
Y04100D01*
X02510Y03698D02*
X02932Y04120D01*
X02496Y03712D02*
X02918Y04134D01*
X02553Y03656D02*
X02925Y04028D01*
X02567Y03642D02*
X02913Y03988D01*
X02414Y04232D02*
X02930Y03716D01*
X02454Y03755D02*
X02926Y04227D01*
X02414Y04203D02*
X02915Y03702D01*
X03016Y03720D02*
X03036Y03739D01*
X03016Y03820D02*
X03036Y03800D01*
X02913Y03700D02*
X02933Y03720D01*
X02913Y03639D02*
Y03700D01*
Y03739D02*
X02933Y03720D01*
X02913Y03800D02*
X02933Y03820D01*
X02581Y03627D02*
X02913Y03960D01*
X02440Y03769D02*
X02913Y04243D01*
X02425Y03783D02*
X02913Y04271D01*
X02468Y03741D02*
X02913Y04186D01*
X02468Y03741D02*
X02913Y04186D01*
X02414Y04288D02*
X02913Y03789D01*
X02414Y03800D02*
X02913Y04299D01*
X02414Y04260D02*
X02913Y03761D01*
X02524Y03684D02*
X02913Y04073D01*
Y03739D02*
Y03800D01*
X02539Y03670D02*
X02913Y04045D01*
X02414Y04175D02*
X02913Y03676D01*
X02482Y03726D02*
X02913Y04158D01*
X02414Y04147D02*
X02913Y03648D01*
X02220Y04879D02*
X02341Y05000D01*
X02220Y04907D02*
X02312Y05000D01*
X02580D02*
X02798Y04781D01*
X02220Y04851D02*
X02369Y05000D01*
X02201Y04944D02*
X02256Y05000D01*
X02187Y04959D02*
X02228Y05000D01*
X02215Y04930D02*
X02284Y05000D01*
X02608D02*
X02826Y04781D01*
X02603D02*
X02822Y05000D01*
X02636D02*
X02855Y04781D01*
X02632D02*
X02850Y05000D01*
X02180Y04804D02*
X02220Y04844D01*
X02173Y04804D02*
X02220Y04851D01*
X02588Y04781D02*
X02861D01*
X02197Y04941D02*
X02201Y04944D01*
X02182Y04953D02*
X02187Y04959D01*
X02220Y04885D02*
Y04925D01*
X02210Y04925D02*
X02215Y04930D01*
X02165Y04965D02*
X02199Y05000D01*
X02162Y04962D02*
X02165Y04965D01*
X02180D02*
X02220Y04925D01*
X02218Y04905D02*
X02220Y04907D01*
X02216Y04911D02*
X02220Y04906D01*
Y04844D02*
Y04885D01*
X02215Y04855D02*
X02220Y04850D01*
X02205Y04837D02*
X02209Y04833D01*
X02191Y04822D02*
X02195Y04819D01*
X02174Y04811D02*
X02181Y04805D01*
X02438Y05000D02*
X02657Y04781D01*
X02410Y05000D02*
X02628Y04781D01*
X02301Y04592D02*
X02708Y05000D01*
X02467D02*
X02685Y04781D01*
X02273Y04620D02*
X02652Y05000D01*
X02248Y04624D02*
X02624Y05000D01*
X02287Y04606D02*
X02680Y05000D01*
X02523D02*
X02741Y04781D01*
X02495Y05000D02*
X02713Y04781D01*
X02855D02*
X02861Y04775D01*
X02551Y05000D02*
X02770Y04781D01*
X02329Y04564D02*
X02765Y05000D01*
X02315Y04578D02*
X02737Y05000D01*
X02344Y04550D02*
X02793Y05000D01*
X02325D02*
X02588Y04737D01*
X02353Y05000D02*
X02588Y04765D01*
X02269Y05000D02*
X02588Y04680D01*
X02297Y05000D02*
X02588Y04708D01*
X02192Y04624D02*
X02567Y05000D01*
X02163Y04624D02*
X02539Y05000D01*
X02220Y04624D02*
X02595Y05000D01*
X02386Y04507D02*
X02588Y04709D01*
Y04658D02*
Y04781D01*
X02400Y04493D02*
X02588Y04681D01*
X02382Y05000D02*
X02600Y04781D01*
X02358Y04536D02*
X02588Y04766D01*
X02372Y04521D02*
X02588Y04737D01*
X02109Y04965D02*
X02143Y05000D01*
X02099D02*
X02133Y04965D01*
X02137D02*
X02171Y05000D01*
X02127D02*
X02161Y04965D01*
X02096Y04952D02*
X02109Y04965D01*
X02071Y05000D02*
X02105Y04965D01*
X02059Y04925D02*
X02099Y04965D01*
X02140D02*
X02180D01*
X02161D02*
X02166Y04961D01*
X02105Y04965D02*
X02110Y04960D01*
X02099Y04965D02*
X02140D01*
X02094Y04809D02*
X02099Y04814D01*
X02088Y04954D02*
X02092Y04950D01*
X02042Y05000D02*
X02088Y04954D01*
X02074Y04940D02*
X02077Y04936D01*
X02059Y04915D02*
X02072Y04928D01*
X02014Y05000D02*
X02074Y04940D01*
X01986Y05000D02*
X02060Y04926D01*
X01957Y05000D02*
X02059Y04898D01*
X02065Y04837D02*
X02071Y04842D01*
X02060Y04926D02*
X02066Y04919D01*
X02080Y04823D02*
X02083Y04827D01*
X02059Y04859D02*
X02062Y04862D01*
X02059Y04885D02*
Y04925D01*
Y04844D02*
Y04885D01*
X02079Y04624D02*
X02454Y05000D01*
X02135Y04624D02*
X02510Y05000D01*
X02107Y04624D02*
X02482Y05000D01*
X02022Y04624D02*
X02397Y05000D01*
X02050Y04624D02*
X02426Y05000D01*
X02099Y04804D02*
X02140D01*
X02059Y04844D02*
X02099Y04804D01*
X02140D02*
X02180D01*
X02117D02*
X02119Y04806D01*
X01965Y04624D02*
X02145Y04804D01*
X02010Y04697D02*
X02117Y04804D01*
X01994Y04624D02*
X02173Y04804D01*
X01989Y04705D02*
X02094Y04809D01*
X01980Y04705D02*
X02002D01*
X01998D02*
X02013Y04690D01*
X02002Y04705D02*
X02013Y04694D01*
X01969Y04685D02*
X01989Y04705D01*
X01969Y04694D02*
X01980Y04705D01*
X01975Y04699D02*
X02007Y04667D01*
X02013Y04672D02*
Y04694D01*
X01977Y04664D02*
X02010Y04697D01*
X02013Y04690D02*
X02078Y04624D01*
X01969Y04676D02*
X01985Y04661D01*
X01969Y04672D02*
Y04694D01*
Y04672D02*
X01980Y04661D01*
X02414Y04366D02*
X02706Y04658D01*
X02414Y04394D02*
X02678Y04658D01*
X02414Y04309D02*
X02763Y04658D01*
X02414Y04337D02*
X02734Y04658D01*
X02414Y04451D02*
X02621Y04658D01*
X02414Y04479D02*
X02593Y04658D01*
X02414Y04422D02*
X02650Y04658D01*
X02588D02*
X02861D01*
X02399Y04494D02*
X02414Y04479D01*
Y04450D02*
Y04479D01*
Y04450D02*
Y04479D01*
X02399Y04494D02*
X02414Y04479D01*
X02284Y04609D02*
X02399Y04494D01*
X02081Y04565D02*
X02355Y04291D01*
X02269Y04624D02*
X02284Y04609D01*
X02240Y04624D02*
X02269D01*
X02240Y04565D02*
X02355Y04450D01*
X02269Y04624D02*
X02284Y04609D01*
X02240Y04624D02*
X02269D01*
X02036Y04411D02*
X02189Y04565D01*
X02036Y04383D02*
X02217Y04565D01*
X02194D02*
X02355Y04404D01*
X02222Y04565D02*
X02355Y04432D01*
X02137Y04565D02*
X02355Y04347D01*
X02166Y04565D02*
X02355Y04376D01*
X02109Y04565D02*
X02355Y04319D01*
X02036Y04355D02*
X02243Y04562D01*
X02036Y04308D02*
Y04431D01*
X02414Y04253D02*
X02819Y04658D01*
X02414Y04281D02*
X02791Y04658D01*
X02414Y04224D02*
X02848Y04658D01*
X02414Y03794D02*
Y04450D01*
X02355Y03794D02*
Y04450D01*
X02036Y03959D02*
X02355Y04278D01*
X02036Y03789D02*
X02355Y04109D01*
Y03765D02*
Y03794D01*
Y03765D02*
Y03794D01*
Y03765D02*
X02370Y03750D01*
X02355Y03765D02*
X02370Y03750D01*
X02036Y03676D02*
X02355Y03995D01*
X02036Y03761D02*
X02355Y04080D01*
X02036Y03648D02*
X02355Y03967D01*
X02036Y04072D02*
X02355Y04391D01*
X02053Y04565D02*
X02355Y04263D01*
X02036Y04356D02*
X02355Y04036D01*
X02036Y04044D02*
X02355Y04363D01*
X02036Y04157D02*
X02342Y04463D01*
X02036Y04185D02*
X02328Y04477D01*
X02036Y04412D02*
X02355Y04093D01*
X02036Y03839D02*
Y03900D01*
Y03939D02*
Y04000D01*
Y03739D02*
Y03800D01*
Y04327D02*
X02355Y04008D01*
X02036Y04039D02*
Y04100D01*
Y03987D02*
X02355Y04307D01*
X02026Y04431D02*
X02161Y04565D01*
X01998Y04431D02*
X02132Y04565D01*
X01996D02*
X02355Y04206D01*
X02024Y04565D02*
X02355Y04234D01*
X01968Y04565D02*
X02355Y04178D01*
X01970Y04431D02*
X02104Y04565D01*
X01939D02*
X02355Y04149D01*
X02028Y04262D02*
X02285Y04520D01*
X02036Y04327D02*
X02257Y04548D01*
X02035Y04100D02*
X02355Y04420D01*
X02029Y04207D02*
X02313Y04491D01*
X02015Y04221D02*
X02299Y04505D01*
X02028Y04291D02*
X02271Y04534D01*
X02021Y04114D02*
X02355Y04448D01*
X02007Y04667D02*
X02050Y04624D01*
X02002Y04661D02*
X02013Y04672D01*
X02016Y04308D02*
X02036D01*
X02016D02*
X02028Y04296D01*
X01985Y04661D02*
X02022Y04624D01*
X01980Y04661D02*
X02002D01*
X01942Y04431D02*
X02076Y04565D01*
X02036Y04139D02*
Y04200D01*
X02028Y04243D02*
Y04296D01*
X02016Y04120D02*
X02036Y04139D01*
X02010Y04225D02*
X02028Y04243D01*
X02010Y04225D02*
X02036Y04200D01*
X02034Y03901D02*
X02355Y04222D01*
X02028Y04250D02*
X02355Y03923D01*
X02036Y04186D02*
X02355Y03867D01*
X02036Y03874D02*
X02355Y04193D01*
X02020Y03915D02*
X02355Y04250D01*
X02028Y04279D02*
X02355Y03951D01*
X02017Y04232D02*
X02355Y03895D01*
X02036Y04158D02*
X02355Y03838D01*
X02036Y03846D02*
X02355Y04165D01*
X02033Y03702D02*
X02355Y04024D01*
X02031Y04134D02*
X02355Y03810D01*
X02017Y04120D02*
X02355Y03782D01*
X02027Y03809D02*
X02355Y04137D01*
X02019Y03716D02*
X02355Y04052D01*
X02028Y04008D02*
X02355Y04335D01*
X02036Y04384D02*
X02355Y04065D01*
X02026Y04308D02*
X02355Y03980D01*
X02016Y03920D02*
X02036Y03939D01*
X02016Y04020D02*
X02036Y04039D01*
X02016Y04120D02*
X02036Y04100D01*
X02016Y04020D02*
X02036Y04000D01*
X02016Y03720D02*
X02036Y03700D01*
X02016Y03720D02*
X02036Y03739D01*
Y03639D02*
Y03700D01*
X02016Y03820D02*
X02036Y03839D01*
X02016Y03920D02*
X02036Y03900D01*
X02016Y03820D02*
X02036Y03800D01*
X03036Y03582D02*
X03085Y03533D01*
X03036Y03545D02*
X03085Y03594D01*
X03036Y03488D02*
X03085Y03537D01*
X03036Y03554D02*
X03085Y03505D01*
X03027Y03508D02*
X03085Y03565D01*
X03021Y03625D02*
X03085Y03561D01*
X03029Y03532D02*
X03085Y03476D01*
X03036Y03469D02*
X03085Y03420D01*
X03036Y03497D02*
X03085Y03448D01*
X03036Y03375D02*
X03085Y03424D01*
X03036Y03441D02*
X03085Y03392D01*
X03020Y03416D02*
X03085Y03480D01*
X03036Y03460D02*
X03085Y03509D01*
X03034Y03402D02*
X03085Y03452D01*
X03035Y03601D02*
X03085Y03650D01*
X03036Y03667D02*
X03085Y03618D01*
X03036Y03573D02*
X03085Y03622D01*
X03035Y03639D02*
X03085Y03590D01*
X03016Y03620D02*
X03036Y03639D01*
X02913D02*
X02933Y03620D01*
X03021Y03615D02*
X03085Y03678D01*
X03036Y03439D02*
Y03500D01*
Y03539D02*
Y03600D01*
X03016Y03420D02*
X03036Y03400D01*
X03016Y03420D02*
X03036Y03439D01*
X03016Y03520D02*
X03036Y03539D01*
X03016Y03620D02*
X03036Y03600D01*
X03016Y03520D02*
X03036Y03500D01*
Y03262D02*
X03085Y03311D01*
X03036Y03290D02*
X03085Y03339D01*
Y02520D02*
Y05000D01*
X03036Y03299D02*
X03085Y03250D01*
X03030Y03333D02*
X03085Y03278D01*
X03036Y03356D02*
X03085Y03307D01*
X03019Y03217D02*
X03085Y03282D01*
X03036Y03177D02*
X03085Y03226D01*
X03036Y03243D02*
X03085Y03194D01*
X03036Y03186D02*
X03085Y03137D01*
X03036Y03149D02*
X03085Y03198D01*
X03033Y03203D02*
X03085Y03254D01*
X03036Y03271D02*
X03085Y03222D01*
X03023Y03227D02*
X03085Y03165D01*
X03036Y03347D02*
X03085Y03396D01*
X03036Y03339D02*
Y03400D01*
X03026Y03309D02*
X03085Y03367D01*
X03036Y03384D02*
X03085Y03335D01*
X03022Y03426D02*
X03085Y03363D01*
X03016Y03320D02*
X03036Y03339D01*
X03016Y03320D02*
X03036Y03300D01*
X03016Y03220D02*
X03036Y03200D01*
Y03239D02*
Y03300D01*
Y03139D02*
Y03200D01*
X03016Y03220D02*
X03036Y03239D01*
X02913D02*
X02933Y03220D01*
X02913Y03200D02*
X02933Y03220D01*
X02609Y03599D02*
X02931Y03921D01*
X02595Y03613D02*
X02917Y03935D01*
X02708Y03500D02*
X02930Y03722D01*
X02652Y03557D02*
X02924Y03829D01*
X02414Y04034D02*
X02931Y03517D01*
X02414Y04119D02*
X02923Y03610D01*
X02414Y03921D02*
X02924Y03411D01*
X02913Y03500D02*
X02933Y03520D01*
X02913Y03539D02*
X02933Y03520D01*
X02913Y03400D02*
X02933Y03420D01*
X02913Y03439D02*
X02933Y03420D01*
X02913Y03600D02*
X02933Y03620D01*
X02751Y03458D02*
X02923Y03630D01*
X02807Y03401D02*
X02929Y03523D01*
X02680Y03528D02*
X02913Y03762D01*
X02666Y03543D02*
X02913Y03790D01*
X02414Y03892D02*
X02913Y03393D01*
X02414Y03949D02*
X02913Y03450D01*
X02414Y04005D02*
X02916Y03503D01*
X02414Y04062D02*
X02913Y03563D01*
X02414Y03977D02*
X02913Y03478D01*
Y03439D02*
Y03500D01*
Y03539D02*
Y03600D01*
X02793Y03415D02*
X02915Y03537D01*
X02694Y03514D02*
X02916Y03736D01*
X02722Y03486D02*
X02913Y03677D01*
X02736Y03472D02*
X02913Y03649D01*
X02036Y03762D02*
X02943Y02854D01*
X02414Y03836D02*
X02932Y03318D01*
X02036Y03790D02*
X03085Y02741D01*
X02033Y03736D02*
X02934Y02835D01*
X02024Y04028D02*
X02933Y03119D01*
X02018Y03921D02*
X02926Y03013D01*
X02019Y03722D02*
X03085Y02656D01*
X02913Y03339D02*
X02933Y03320D01*
X02906Y03302D02*
X02928Y03324D01*
X02913Y03300D02*
X02933Y03320D01*
X02897Y03240D02*
X02925Y03212D01*
X02036Y03677D02*
X02977Y02735D01*
X02036Y03649D02*
X02949Y02735D01*
X02027Y03431D02*
X02938Y02520D01*
X02414Y03864D02*
X02913Y03365D01*
X02835Y03373D02*
X02913Y03451D01*
X02036Y03988D02*
X02918Y03105D01*
X02414Y03807D02*
X02917Y03304D01*
X02036Y04045D02*
X02913Y03167D01*
X02036Y04073D02*
X02913Y03195D01*
X02026Y03630D02*
X02921Y02735D01*
X02878Y03330D02*
X02913Y03366D01*
Y03339D02*
Y03400D01*
X02892Y03316D02*
X02914Y03338D01*
X02850Y03359D02*
X02922Y03431D01*
X02864Y03345D02*
X02913Y03394D01*
X02388Y02700D02*
X02921Y03232D01*
X03036Y03045D02*
X03085Y02996D01*
X03036Y03073D02*
X03085Y03024D01*
X03036Y02951D02*
X03085Y03000D01*
X03036Y02979D02*
X03085Y03028D01*
X03032Y03004D02*
X03085Y03056D01*
X03018Y03018D02*
X03085Y03085D01*
X03024Y03028D02*
X03085Y02967D01*
X03036Y02960D02*
X03085Y02911D01*
X03036Y02988D02*
X03085Y02939D01*
X03018Y02921D02*
X03085Y02854D01*
X03032Y02935D02*
X03085Y02882D01*
X03002Y02908D02*
X03085Y02826D01*
X02978Y02836D02*
X03085Y02943D01*
X02985Y02730D02*
X03085Y02830D01*
X03036Y03158D02*
X03085Y03109D01*
X03025Y03110D02*
X03085Y03169D01*
X03031Y03134D02*
X03085Y03080D01*
X03036Y03092D02*
X03085Y03141D01*
X03016Y03120D02*
X03036Y03100D01*
X03016Y03120D02*
X03036Y03139D01*
X03017Y03120D02*
X03085Y03052D01*
X03036Y03064D02*
X03085Y03113D01*
X03036Y03039D02*
Y03100D01*
Y02939D02*
Y03000D01*
X03016Y03020D02*
X03036Y03000D01*
X03005Y02908D02*
X03036Y02939D01*
X03016Y03020D02*
X03036Y03039D01*
X02978Y02824D02*
Y02845D01*
X03020Y02692D02*
X03085Y02628D01*
X03020Y02653D02*
X03085Y02717D01*
X03020Y02664D02*
X03085Y02600D01*
X03020Y02624D02*
X03085Y02689D01*
X03013Y02702D02*
X03085Y02773D01*
X02999Y02716D02*
X03085Y02802D01*
X03020Y02681D02*
X03085Y02745D01*
X03017Y02611D02*
X03085Y02543D01*
X03020Y02636D02*
X03085Y02571D01*
X03057Y02520D02*
X03085Y02547D01*
X03029Y02520D02*
X03085Y02575D01*
X03000Y02520D02*
X03085Y02604D01*
X02989Y02582D02*
X03052Y02520D01*
X03003Y02597D02*
X03080Y02520D01*
X03008Y02697D02*
X03013Y02702D01*
X02996Y02713D02*
X02999Y02716D01*
X03020Y02655D02*
Y02695D01*
X03017Y02678D02*
X03020Y02681D01*
X02980Y02735D02*
X03020Y02695D01*
X02979Y02725D02*
X02985Y02730D01*
X02977Y02735D02*
X03020Y02692D01*
X03009Y02613D02*
X03020Y02624D01*
Y02614D02*
Y02655D01*
X03011Y02617D02*
X03017Y02611D01*
X02999Y02600D02*
X03003Y02597D01*
X02984Y02587D02*
X02989Y02582D01*
X02980Y02574D02*
X03020Y02614D01*
X02974Y02908D02*
X03085Y02798D01*
X02968Y02855D02*
X03085Y02971D01*
X02962Y02735D02*
X03085Y02858D01*
X02945Y02908D02*
X03085Y02769D01*
X02905Y02735D02*
X03085Y02915D01*
X02944Y02908D02*
X03005D01*
X02933Y02735D02*
X03085Y02887D01*
X02967Y02856D02*
X02978Y02845D01*
X02945Y02813D02*
X02967D01*
X02978Y02824*
X02954Y02813D02*
X02978Y02836D01*
X02943Y02854D02*
X02976Y02822D01*
X02936Y02822D02*
X02968Y02855D01*
X02940Y02735D02*
X02980D01*
X02913Y02940D02*
X02945Y02908D01*
X02913Y03000D02*
X02933Y03020D01*
X02934Y02845D02*
X02945Y02856D01*
X02913Y02939D02*
X02944Y02908D01*
X02913Y03100D02*
X02933Y03120D01*
X02913Y03139D02*
X02933Y03120D01*
X02913Y03039D02*
X02933Y03020D01*
X02945Y02856D02*
X02967D01*
X02934Y02824D02*
X02945Y02813D01*
X02959Y02733D02*
X02962Y02735D01*
X02934Y02835D02*
X02956Y02813D01*
X02934Y02824D02*
Y02845D01*
X02899Y02735D02*
X02940D01*
X02956Y02813D02*
X03085Y02684D01*
X02976Y02822D02*
X03085Y02713D01*
X02972Y02520D02*
X03085Y02632D01*
X02944Y02520D02*
X03085Y02660D01*
X02751Y02666D02*
X02993Y02908D01*
X02970Y02574D02*
X02981Y02585D01*
X02965Y02578D02*
X02969Y02574D01*
X03023Y02520*
X02941Y02574D02*
X02995Y02520D01*
X02940Y02574D02*
X02980D01*
X02912D02*
X02967Y02520D01*
X02915D02*
X02970Y02574D01*
X02728Y02700D02*
X02940Y02912D01*
X02700Y02700D02*
X02926Y02926D01*
X02751Y02695D02*
X02965Y02908D01*
X02751Y02638D02*
X02936Y02822D01*
X02502Y02700D02*
X02927Y03125D01*
X02586Y02700D02*
X02920Y03033D01*
X02643Y02700D02*
X02913Y02970D01*
X02899Y02574D02*
X02940D01*
X02913D02*
X02916Y02577D01*
X02887Y02520D02*
X02941Y02574D01*
X02751Y02610D02*
X02954Y02813D01*
X02638Y03571D02*
X02913Y03847D01*
X02623Y03585D02*
X02913Y03875D01*
X02779Y03429D02*
X02913Y03564D01*
X02765Y03444D02*
X02913Y03592D01*
X02036Y03960D02*
X02913Y03082D01*
X02414Y04090D02*
X02913Y03591D01*
X02036Y03875D02*
X02913Y02997D01*
X02909Y03240D02*
X02913D01*
X02909Y03299D02*
X02913D01*
Y03039D02*
Y03100D01*
Y03139D02*
Y03200D01*
X02821Y03387D02*
X02913Y03479D01*
X02880Y03240D02*
X02909D01*
X02880D02*
X02909D01*
X02036Y03393D02*
X02381Y03739D01*
X02036Y03450D02*
X02355Y03769D01*
X02414Y03794D02*
X02909Y03299D01*
X02370Y03750D02*
X02865Y03255D01*
X02036Y03563D02*
X02355Y03882D01*
X02036Y03591D02*
X02355Y03911D01*
X02036Y03478D02*
X02355Y03797D01*
X02865Y03255D02*
X02880Y03240D01*
X02865Y03255D02*
X02880Y03240D01*
X02036Y03039D02*
Y03100D01*
Y03139D02*
Y03200D01*
Y03239D02*
Y03300D01*
Y03339D02*
Y03400D01*
Y03195D02*
X02480Y03640D01*
X02247Y02700D02*
X02834Y03286D01*
X02219Y02700D02*
X02819Y03300D01*
X02304Y02700D02*
X02862Y03258D01*
X02275Y02700D02*
X02848Y03272D01*
X02036Y03847D02*
X02913Y02969D01*
X02162Y02700D02*
X02791Y03329D01*
X02190Y02700D02*
X02805Y03314D01*
X02473Y02700D02*
X02913Y03140D01*
X02445Y02700D02*
X02913Y03168D01*
X02558Y02700D02*
X02913Y03055D01*
X02530Y02700D02*
X02913Y03083D01*
X02360Y02700D02*
X02901Y03240D01*
X02332Y02700D02*
X02876Y03244D01*
X02417Y02700D02*
X02913Y03196D01*
X02077Y02700D02*
X02749Y03371D01*
X02049Y02700D02*
X02735Y03385D01*
X02134Y02700D02*
X02777Y03343D01*
X02106Y02700D02*
X02763Y03357D01*
X02036Y03394D02*
X02730Y02700D01*
X02036Y03366D02*
X02702Y02700D01*
X02036Y03281D02*
X02617Y02700D01*
X02036Y03139D02*
X02476Y02700D01*
X02036Y03083D02*
X02419Y02700D01*
X02036Y03055D02*
X02391Y02700D01*
X02036Y03253D02*
X02589Y02700D01*
X02036Y03196D02*
X02532Y02700D01*
X02036Y03168D02*
X02504Y02700D01*
X02032Y03503D02*
X02355Y03826D01*
X02026Y03610D02*
X02355Y03939D01*
X02031Y03304D02*
X02423Y03696D01*
X02036Y03365D02*
X02395Y03724D01*
X02025Y03411D02*
X02367Y03753D01*
X02018Y03517D02*
X02355Y03854D01*
X02017Y03318D02*
X02409Y03710D01*
X02036Y03280D02*
X02438Y03682D01*
X02031Y03304D02*
X02423Y03696D01*
X02036Y03167D02*
X02494Y03625D01*
X02036Y03252D02*
X02452Y03668D01*
X02016Y03119D02*
X02508Y03611D01*
X02024Y03212D02*
X02466Y03654D01*
X02030Y03105D02*
X02522Y03597D01*
X02016Y03520D02*
X02036Y03500D01*
Y03539D02*
Y03600D01*
X02016Y03420D02*
X02036Y03439D01*
Y03500*
X02016Y03620D02*
X02036Y03600D01*
X02016Y03620D02*
X02036Y03639D01*
X02016Y03520D02*
X02036Y03539D01*
X02016Y03220D02*
X02036Y03200D01*
X02016Y03220D02*
X02036Y03239D01*
X02016Y03120D02*
X02036Y03139D01*
X02016Y03320D02*
X02036Y03339D01*
X02016Y03420D02*
X02036Y03400D01*
X02016Y03320D02*
X02036Y03300D01*
Y03592D02*
X02896Y02732D01*
X02036Y03564D02*
X02882Y02718D01*
X02034Y03537D02*
X02867Y02704D01*
X02036Y03479D02*
X02859Y02656D01*
X02025Y03829D02*
X02913Y02940D01*
X02032Y03935D02*
X02913Y03054D01*
X02020Y03523D02*
X02859Y02684D01*
X02021Y02700D02*
X02720Y03399D01*
X02021Y03324D02*
X02645Y02700D01*
X02036Y03451D02*
X02859Y02627D01*
X02035Y03338D02*
X02674Y02700D01*
X01964D02*
X02692Y03428D01*
X02013Y02833D02*
X02650Y03470D01*
X01992Y02700D02*
X02706Y03413D01*
X02036Y02997D02*
X02579Y03541D01*
X02036Y03054D02*
X02551Y03569D01*
X02036Y02941D02*
X02607Y03512D01*
X02036Y02969D02*
X02593Y03526D01*
X02023Y03013D02*
X02565Y03555D01*
X02036Y03082D02*
X02537Y03583D01*
X02005Y02853D02*
X02636Y03484D01*
X02028Y03232D02*
X02560Y02700D01*
X02022Y03125D02*
X02447Y02700D01*
X02029Y03033D02*
X02362Y02700D01*
X02016Y03020D02*
X02036Y03039D01*
X02016Y03120D02*
X02036Y03100D01*
X02016Y03020D02*
X02036Y03000D01*
X02913Y02939D02*
Y03000D01*
X02896Y02732D02*
X02902Y02726D01*
X02859Y02689D02*
X02905Y02735D01*
X02882Y02718D02*
X02885Y02714D01*
X02671Y02700D02*
X02913Y02942D01*
X02615Y02700D02*
X02913Y02998D01*
X02859Y02695D02*
X02899Y02735D01*
X02878Y02595D02*
X02881Y02598D01*
X02867Y02704D02*
X02872Y02699D01*
X02904Y02582D02*
X02912Y02574D01*
X02892Y02581D02*
X02897Y02586D01*
X02864Y02609D02*
X02869Y02615D01*
X02859Y02627D02*
X02867Y02619D01*
X02859Y02614D02*
X02899Y02574D01*
X02859Y02684D02*
X02863Y02680D01*
X02859Y02655D02*
Y02695D01*
Y02632D02*
X02861Y02635D01*
X02859Y02614D02*
Y02655D01*
X02751Y02593D02*
Y02700D01*
X02441Y02593D02*
X02514Y02520D01*
X02689D02*
X02859Y02689D01*
X02661Y02520D02*
X02734Y02593D01*
X02639D02*
X02712Y02520D01*
X02695Y02593D02*
X02769Y02520D01*
X02667Y02593D02*
X02740Y02520D01*
X02611Y02593D02*
X02684Y02520D01*
X02604D02*
X02678Y02593D01*
X02633Y02520D02*
X02706Y02593D01*
X02751Y02650D02*
X02882Y02520D01*
X02751Y02622D02*
X02854Y02520D01*
X02802D02*
X02878Y02595D01*
X02774Y02520D02*
X02864Y02609D01*
X02746Y02520D02*
X02859Y02632D01*
X02717Y02520D02*
X02859Y02661D01*
X02751Y02678D02*
X02910Y02520D01*
X02751Y02594D02*
X02825Y02520D01*
X02724Y02593D02*
X02797Y02520D01*
X02859D02*
X02913Y02574D01*
X02831Y02520D02*
X02892Y02581D01*
X02576Y02520D02*
X02649Y02593D01*
X02554D02*
X02627Y02520D01*
X02582Y02593D02*
X02656Y02520D01*
X02413Y02593D02*
X02486Y02520D01*
X02406D02*
X02480Y02593D01*
X02463Y02520D02*
X02536Y02593D01*
X02435Y02520D02*
X02508Y02593D01*
X02378Y02520D02*
X02451Y02593D01*
X02356D02*
X02429Y02520D01*
X02384Y02593D02*
X02458Y02520D01*
X02526Y02593D02*
X02599Y02520D01*
X02520D02*
X02593Y02593D01*
X02548Y02520D02*
X02621Y02593D01*
X02491Y02520D02*
X02565Y02593D01*
X02469D02*
X02542Y02520D01*
X02497Y02593D02*
X02571Y02520D01*
X02036Y02998D02*
X02334Y02700D01*
X02036Y02939D02*
Y03000D01*
Y02970D02*
X02306Y02700D01*
X02036Y02941D02*
X02278Y02700D01*
X02005Y02908D02*
X02036Y02939D01*
X02003Y02908D02*
X02036Y02941D01*
X02023Y02926D02*
X02249Y02700D01*
X01984Y02908D02*
X02193Y02700D01*
X01995Y02813D02*
X02108Y02700D01*
X02009Y02912D02*
X02221Y02700D01*
X02012Y02823D02*
X02136Y02700D01*
X01955Y02908D02*
X02164Y02700D01*
X01954Y02520D02*
X02027Y02593D01*
X01960D02*
X02033Y02520D01*
X02002Y02856D02*
X02013Y02845D01*
X01980Y02856D02*
X02002D01*
X01980Y02856D02*
X02012Y02823D01*
X01972Y02821D02*
X02005Y02853D01*
X01944Y02908D02*
X02005D01*
X01969Y02845D02*
X01980Y02856D01*
X01969Y02824D02*
Y02845D01*
X01993Y02813D02*
X02013Y02833D01*
Y02824D02*
Y02845D01*
X02002Y02813D02*
X02013Y02824D01*
X01969Y02838D02*
X01995Y02813D01*
X01969Y02824D02*
X01980Y02813D01*
X02002*
X02215Y02593D02*
X02288Y02520D01*
X02208D02*
X02282Y02593D01*
X02243D02*
X02316Y02520D01*
X02237D02*
X02310Y02593D01*
X02180Y02520D02*
X02253Y02593D01*
X02158D02*
X02231Y02520D01*
X02186Y02593D02*
X02260Y02520D01*
X02322D02*
X02395Y02593D01*
X02299D02*
X02373Y02520D01*
X02350D02*
X02423Y02593D01*
X02328D02*
X02401Y02520D01*
X02271Y02593D02*
X02344Y02520D01*
X02265D02*
X02338Y02593D01*
X02293Y02520D02*
X02367Y02593D01*
X02039Y02520D02*
X02112Y02593D01*
X02017D02*
X02090Y02520D01*
X02067D02*
X02140Y02593D01*
X02045D02*
X02118Y02520D01*
X01988Y02593D02*
X02062Y02520D01*
X01982D02*
X02055Y02593D01*
X02010Y02520D02*
X02084Y02593D01*
X02130D02*
X02203Y02520D01*
X02124D02*
X02197Y02593D01*
X02152Y02520D02*
X02225Y02593D01*
X02095Y02520D02*
X02169Y02593D01*
X02073D02*
X02146Y02520D01*
X02101Y02593D02*
X02175Y02520D01*
X01788Y05000D02*
X02163Y04624D01*
X01759Y05000D02*
X02135Y04624D01*
X01844Y05000D02*
X02220Y04624D01*
X01816Y05000D02*
X02191Y04624D01*
X01731Y05000D02*
X02107Y04624D01*
X01711D02*
X02086Y05000D01*
X01739Y04624D02*
X02115Y05000D01*
X01852Y04624D02*
X02065Y04837D01*
X01824Y04624D02*
X02059Y04859D01*
X01873Y05000D02*
X02248Y04624D01*
X01881D02*
X02080Y04823D01*
X01694Y04624D02*
X02240D01*
X01767D02*
X02059Y04915D01*
X01796Y04624D02*
X02059Y04887D01*
X01703Y05000D02*
X01998Y04705D01*
X01676Y04702D02*
X01973Y05000D01*
X01688Y04630D02*
X02058Y05000D01*
X01676Y04674D02*
X02001Y05000D01*
X01675D02*
X01975Y04699D01*
X01676Y04731D02*
X01945Y05000D01*
X01674Y04644D02*
X02030Y05000D01*
X01929D02*
X02059Y04870D01*
X01676Y04659D02*
X01711Y04624D01*
X01937D02*
X01977Y04664D01*
X01909Y04624D02*
X01969Y04685D01*
X01676Y04715D02*
X01767Y04624D01*
X01676Y04650D02*
Y04743D01*
Y04687D02*
X01739Y04624D01*
X01826Y04565D02*
X01961Y04431D01*
X01798Y04565D02*
X01932Y04431D01*
X01901Y05000D02*
X02913Y03987D01*
X01855Y04565D02*
X01989Y04431D01*
X01774Y04376D02*
X01963Y04565D01*
X01760Y04390D02*
X01934Y04565D01*
X01788Y04362D02*
X01991Y04565D01*
X01913Y04431D02*
X02036D01*
X01883Y04565D02*
X02017Y04431D01*
X01911Y04565D02*
X02355Y04121D01*
X01913Y04312D02*
Y04431D01*
X01694Y04565D02*
X02240D01*
X01802Y04348D02*
X02019Y04565D01*
X01816Y04334D02*
X02048Y04565D01*
X01770D02*
X01913Y04421D01*
X01732Y04419D02*
X01878Y04565D01*
X01741D02*
X01913Y04393D01*
X01746Y04404D02*
X01906Y04565D01*
X01717Y04433D02*
X01850Y04565D01*
X01698Y04442D02*
X01821Y04565D01*
X01713D02*
X01913Y04365D01*
X01831Y04320D02*
X01913Y04402D01*
X01727Y04423D02*
X01838Y04312D01*
X01851D02*
X01913Y04374D01*
X01708Y04442D02*
X01727Y04423D01*
X01708Y04442D02*
X01727Y04423D01*
X01685Y04565D02*
X01913Y04336D01*
X01631Y04743D02*
X01888Y05000D01*
X01603Y04743D02*
X01860Y05000D01*
X01558Y04726D02*
X01832Y05000D01*
X01530Y04726D02*
X01803Y05000D01*
X01477D02*
X01852Y04624D01*
X01448Y05000D02*
X01824Y04624D01*
X01505Y05000D02*
X01880Y04624D01*
X01646Y05000D02*
X01969Y04676D01*
X01660Y04743D02*
X01917Y05000D01*
X01618D02*
X01993Y04624D01*
X01590Y05000D02*
X01965Y04624D01*
X01250Y05000D02*
X03085D01*
X01533D02*
X01909Y04624D01*
X01561Y05000D02*
X01937Y04624D01*
X01421Y04730D02*
X01690Y05000D01*
X01405Y04743D02*
X01662Y05000D01*
X01473Y04726D02*
X01747Y05000D01*
X01445Y04726D02*
X01719Y05000D01*
X01377Y04743D02*
X01634Y05000D01*
X01363D02*
X01620Y04743D01*
X01392Y05000D02*
X01649Y04743D01*
X01668Y04650D02*
X01694Y04624D01*
X01668Y04650D02*
X01676D01*
X01600Y04630D02*
X01615Y04615D01*
X01502Y04726D02*
X01775Y05000D01*
X01583Y04743D02*
X01676D01*
X01420Y05000D02*
X01795Y04624D01*
X01665Y04565D02*
X01694D01*
X01665D02*
X01694D01*
X01555Y04667D02*
X01910Y04312D01*
X01526Y04667D02*
X01881Y04312D01*
X01470Y04667D02*
X01695Y04442D01*
X01455Y04340D02*
X01680Y04565D01*
X01498Y04667D02*
X01853Y04312D01*
X01670Y04442D02*
X01793Y04565D01*
X01671Y04442D02*
X01708D01*
X01671Y04367D02*
X01782Y04256D01*
X01671Y04442D02*
X01708D01*
X01642D02*
X01765Y04565D01*
X01614Y04442D02*
X01736Y04565D01*
X01483Y04340D02*
X01708Y04565D01*
X01615Y04615D02*
X01650Y04580D01*
X01600Y04630D02*
X01615Y04615D01*
X01442Y04667D02*
X01666Y04442D01*
X01419Y04661D02*
X01638Y04442D01*
X01371Y04341D02*
X01630Y04600D01*
X01357Y04355D02*
X01616Y04614D01*
X01400Y04341D02*
X01644Y04586D01*
X01650Y04580D02*
X01665Y04565D01*
X01650Y04580D02*
X01665Y04565D01*
X01628Y04442D02*
X01671D01*
X01591D02*
X01628D01*
X01591D02*
X01628D01*
X01427Y04340D02*
X01658Y04571D01*
X01908Y04312D02*
X01913Y04318D01*
X01880Y04312D02*
X01913Y04346D01*
X01900Y04237D02*
X01925Y04212D01*
X01871Y04237D02*
X01913Y04195D01*
X01843Y04237D02*
X01913Y04167D01*
X01838Y04312D02*
X01913D01*
X01692Y04068D02*
X01861Y04237D01*
X01927D02*
X01939Y04225D01*
X01913Y04139D02*
Y04200D01*
Y04100D02*
X01933Y04120D01*
X01913Y04139D02*
X01933Y04120D01*
X01913Y04200D02*
X01939Y04225D01*
X01838Y04237D02*
X01927D01*
X01815D02*
X01933Y04119D01*
X01692Y04238D02*
X01746Y04292D01*
X01692Y04257D02*
Y04294D01*
Y04181D02*
X01774Y04263D01*
X01692Y04209D02*
X01760Y04278D01*
X01692Y04266D02*
X01732Y04306D01*
X01692Y04294D02*
X01718Y04320D01*
X01692Y04257D02*
Y04294D01*
X01782Y04256D02*
X01801Y04237D01*
X01782Y04256D02*
X01801Y04237D01*
X01838*
X01801D02*
X01838D01*
X01692Y04124D02*
X01805Y04237D01*
X01692Y04153D02*
X01789Y04249D01*
X01692Y04096D02*
X01833Y04237D01*
X01913Y04000D02*
X01933Y04020D01*
X01913Y04039D02*
X01933Y04020D01*
X01696Y03789D02*
X01930Y04023D01*
X01692Y04049D02*
X01927Y03814D01*
X01692Y04247D02*
X01926Y04013D01*
X01692Y04134D02*
X01919Y03906D01*
X01689Y04023D02*
X01913Y03799D01*
Y03900D02*
X01933Y03920D01*
X01913Y03939D02*
X01933Y03920D01*
X01913Y03800D02*
X01933Y03820D01*
X01913Y03839D02*
X01933Y03820D01*
X01724Y03761D02*
X01913Y03950D01*
X01710Y03775D02*
X01913Y03978D01*
X01739Y03747D02*
X01922Y03930D01*
X01692Y04190D02*
X01913Y03969D01*
X01692Y04218D02*
X01913Y03997D01*
X01692Y04105D02*
X01913Y03884D01*
X01692Y04162D02*
X01913Y03940D01*
X01692Y04275D02*
X01913Y04054D01*
X01692Y04063D02*
Y04257D01*
Y04040D02*
X01889Y04237D01*
X01913Y03939D02*
Y04000D01*
Y04039D02*
Y04100D01*
Y03839D02*
Y03900D01*
X01692Y04026D02*
Y04063D01*
Y04026D02*
Y04063D01*
Y04077D02*
X01913Y03856D01*
X01628Y04367D02*
X01671D01*
X01634Y04349D02*
X01652Y04367D01*
X01657D02*
X01918Y04105D01*
X01657Y04344D02*
X01675Y04362D01*
X01610Y04349D02*
X01653D01*
X01610D02*
X01628Y04367D01*
X01646Y04349D01*
X01678Y04308D02*
X01704Y04334D01*
X01676Y04310D02*
X01692Y04294D01*
X01676Y04319D02*
X01913Y04082D01*
X01676Y04310D02*
X01692Y04294D01*
X01671Y04330D02*
X01690Y04348D01*
X01653Y04349D02*
X01676Y04326D01*
Y04310D02*
Y04326D01*
X01614Y04353D02*
X01618Y04349D01*
X01558Y04296D02*
X01617Y04237D01*
X01529Y04268D02*
X01617Y04180D01*
X01543Y04282D02*
X01617Y04209D01*
X01476Y04265D02*
X01617Y04124D01*
X01504Y04265D02*
X01617Y04152D01*
X01447Y04265D02*
X01617Y04095D01*
Y04063D02*
Y04256D01*
X01606D02*
X01617D01*
X01557Y04046D02*
X01617Y04106D01*
X01422Y04052D02*
X01617Y04247D01*
X01422Y04262D02*
X01617Y04067D01*
X01529Y04046D02*
X01617Y04134D01*
X01627Y03834D02*
X01923Y04129D01*
X01599Y03834D02*
X01913Y04148D01*
X01668Y03817D02*
X01913Y04063D01*
X01654Y03832D02*
X01913Y04091D01*
X01546Y03837D02*
X01936Y04227D01*
X01522Y03842D02*
X01918Y04237D01*
X01571Y03834D02*
X01913Y04176D01*
X01673Y04007D02*
X01692Y04026D01*
X01673Y04007D02*
X01692Y04026D01*
X01682Y03803D02*
X01916Y04037D01*
X01675Y04009D02*
X01913Y03771D01*
X01647Y03981D02*
X01673Y04007D01*
X01652Y03834D02*
X01670Y03815D01*
X01735Y03750*
X01591Y04037D02*
X01617Y04063D01*
X01576Y04037D02*
X01617Y04078D01*
X01628Y03962D02*
X01647Y03981D01*
X01628Y03962D02*
X01647Y03981D01*
X01501Y04046D02*
X01617Y04163D01*
X01472Y04046D02*
X01617Y04191D01*
X01422Y04024D02*
X01617Y04219D01*
X01614Y03834D02*
X01652D01*
X01614D02*
X01652D01*
X01670Y03815*
X01591Y03962D02*
X01628D01*
X01591D02*
X01628D01*
X01518Y03940D02*
X01624Y03834D01*
X01583Y04726D02*
Y04743D01*
X01424Y04726D02*
X01583D01*
X01414Y04610D02*
X01471Y04667D01*
X01414Y04639D02*
X01442Y04667D01*
X01335Y05000D02*
X01592Y04743D01*
X01307Y05000D02*
X01580Y04726D01*
X01414Y04656D02*
X01424Y04667D01*
X01583Y04650D02*
X01600D01*
X01583D02*
Y04667D01*
X01600Y04630D02*
Y04650D01*
Y04630D02*
Y04650D01*
X01424Y04667D02*
X01583D01*
X01414Y04582D02*
X01499Y04667D01*
X01357Y04497D02*
X01527Y04667D01*
X01408Y04743D02*
X01424Y04726D01*
X01361Y04743D02*
X01408D01*
X01414Y04584D02*
Y04656D01*
X01355Y04584D02*
Y04656D01*
X01338Y04720D02*
X01361Y04743D01*
X01338Y04673D02*
Y04720D01*
Y04673D02*
X01355Y04656D01*
X01414Y04555D02*
Y04584D01*
Y04555D02*
Y04584D01*
X01399Y04540D02*
X01414Y04555D01*
X01399Y04540D02*
X01414Y04555D01*
X01313Y04542D02*
X01355Y04584D01*
X01298Y04527D02*
X01313Y04542D01*
X01357Y04498D02*
X01399Y04540D01*
X01414Y04638D02*
X01610Y04442D01*
X01414Y04609D02*
X01586Y04437D01*
X01357Y04384D02*
X01602Y04628D01*
X01414Y04581D02*
X01572Y04423D01*
X01357Y04440D02*
X01583Y04666D01*
X01357Y04469D02*
X01555Y04667D01*
X01357Y04412D02*
X01595Y04650D01*
X01572Y04423D02*
X01591Y04442D01*
X01572Y04423D02*
X01591Y04442D01*
X01583Y04322D02*
X01610Y04349D01*
X01583Y04279D02*
Y04322D01*
X01489Y04340D02*
X01572Y04423D01*
X01413Y04554D02*
X01558Y04409D01*
X01545Y04284D02*
X01583Y04322D01*
X01399Y04540D02*
X01544Y04395D01*
X01385Y04526D02*
X01530Y04381D01*
X01371Y04511D02*
X01515Y04367D01*
X01357Y04440D02*
X01457Y04340D01*
X01357Y04497D02*
X01501Y04353D01*
X01357Y04341D02*
Y04498D01*
Y04468D02*
X01485Y04340D01*
X01423D02*
X01489D01*
X01357Y04341D02*
X01423D01*
X01357Y04383D02*
X01399Y04341D01*
X01357Y04355D02*
X01371Y04341D01*
X01357Y04412D02*
X01429Y04340D01*
X01250Y04728D02*
X01521Y05000D01*
X01250Y04757D02*
X01492Y05000D01*
X01250Y04700D02*
X01549Y05000D01*
X01250D02*
X01524Y04726D01*
X01250Y04813D02*
X01436Y05000D01*
X01250Y04842D02*
X01407Y05000D01*
X01250Y04785D02*
X01464Y05000D01*
X01250Y04944D02*
X01467Y04726D01*
X01250Y04887D02*
X01394Y04743D01*
X01279Y05000D02*
X01552Y04726D01*
X01250Y04915D02*
X01439Y04726D01*
X01250Y04672D02*
X01577Y05000D01*
X01250Y04972D02*
X01496Y04726D01*
X01250Y04644D02*
X01605Y05000D01*
X01250Y04870D02*
X01379Y05000D01*
X01250Y04898D02*
X01351Y05000D01*
X01250Y04859D02*
X01366Y04743D01*
X01250Y04831D02*
X01349Y04731D01*
X01250Y04955D02*
X01294Y05000D01*
X01250Y04983D02*
X01266Y05000D01*
X01250Y04926D02*
X01323Y05000D01*
X01250Y04717D02*
X01355Y04612D01*
X01250Y04615D02*
X01338Y04704D01*
X01250Y04587D02*
X01338Y04676D01*
X01250Y04774D02*
X01338Y04685D01*
X01250Y04802D02*
X01338Y04714D01*
X01250Y04746D02*
X01355Y04640D01*
X01250Y04633D02*
X01326Y04556D01*
X01250Y04604D02*
X01312Y04542D01*
X01250Y04502D02*
X01355Y04608D01*
X01250Y04530D02*
X01355Y04636D01*
X01250Y04689D02*
X01355Y04584D01*
X01250Y04661D02*
X01341Y04570D01*
X01250Y04559D02*
X01351Y04660D01*
X01298Y04527D02*
X01313Y04542D01*
X01250Y04304D02*
X01298Y04353D01*
X01250Y04276D02*
X01298Y04324D01*
X01250Y04350D02*
X01298Y04301D01*
X01250Y04576D02*
X01298Y04527D01*
X01250Y04332D02*
X01298Y04381D01*
X01250Y04378D02*
X01298Y04330D01*
Y04498D02*
Y04527D01*
Y04498D02*
Y04527D01*
X01250Y04491D02*
X01298Y04443D01*
X01250Y04446D02*
X01298Y04494D01*
X01250Y04474D02*
X01298Y04522D01*
X01250Y04548D02*
X01298Y04499D01*
X01250Y04519D02*
X01298Y04471D01*
X01250Y04361D02*
X01298Y04409D01*
X01250Y04435D02*
X01298Y04386D01*
X01250Y04406D02*
X01298Y04358D01*
X01250Y04463D02*
X01298Y04414D01*
X01250Y04417D02*
X01298Y04466D01*
X01250Y04389D02*
X01298Y04438D01*
X01583Y04279D02*
X01606Y04256D01*
X01572Y04310D02*
X01583Y04299D01*
X01466Y04046D02*
X01573D01*
X01422Y04177D02*
X01553Y04046D01*
X01422Y04234D02*
X01605Y04051D01*
X01422Y04081D02*
X01602Y04261D01*
X01422Y04206D02*
X01591Y04037D01*
X01573Y03962D02*
X01591D01*
X01573Y04037D02*
X01591D01*
X01573Y03949D02*
X01586Y03962D01*
X01573Y03940D02*
Y03962D01*
X01466Y03940D02*
X01573D01*
Y04037D02*
Y04046D01*
X01564Y03940D02*
X01573Y03949D01*
X01489Y04265D02*
X01526D01*
X01489D02*
X01526D01*
X01545Y04284*
X01526Y04265D02*
X01545Y04284D01*
X01422Y04166D02*
X01522Y04265D01*
X01423D02*
X01489D01*
X01422Y04121D02*
X01497Y04046D01*
X01466Y04040D02*
X01472Y04046D01*
X01422Y03968D02*
X01466Y04012D01*
Y03940D02*
Y04046D01*
X01422Y04008D02*
X01466Y03963D01*
X01422Y04092D02*
X01468Y04046D01*
X01422Y03996D02*
X01466Y04040D01*
X01422Y04036D02*
X01466Y03992D01*
X01461Y03837D02*
X01564Y03940D01*
X01497Y03842D02*
X01542D01*
X01489Y03837D02*
X01614Y03962D01*
X01490Y03940D02*
X01596Y03834D01*
X01433Y03837D02*
X01536Y03940D01*
X01422Y03951D02*
X01531Y03842D01*
X01422Y03979D02*
X01568Y03834D01*
X01550D02*
X01614D01*
X01542Y03842D02*
X01550Y03834D01*
Y03759D02*
X01614D01*
X01542Y03751D02*
X01550Y03759D01*
X01497Y03751D02*
X01542D01*
X01422Y03854D02*
X01507Y03940D01*
X01422Y03883D02*
X01479Y03940D01*
X01422Y03923D02*
X01503Y03842D01*
X01422Y03866D02*
X01451Y03837D01*
X01422Y03911D02*
X01466Y03955D01*
X01422Y03939D02*
X01466Y03984D01*
X01422Y03843D02*
Y04264D01*
X01492Y03837D02*
X01497D01*
X01492D02*
X01497Y03842D01*
X01485Y03762D02*
X01497Y03751D01*
X01428Y03837D02*
X01492D01*
X01422Y03843D02*
X01428Y03837D01*
Y03762D02*
X01485D01*
X01422Y04222D02*
X01465Y04265D01*
X01422Y04250D02*
X01437Y04265D01*
X01422Y04149D02*
X01525Y04046D01*
X01422Y04194D02*
X01493Y04265D01*
X01422Y04109D02*
X01588Y04275D01*
X01422Y04137D02*
X01583Y04298D01*
X01250Y04078D02*
X01298Y04126D01*
X01422Y04064D02*
X01466Y04020D01*
X01250Y04021D02*
X01298Y04070D01*
X01250Y03993D02*
X01298Y04042D01*
X01250Y04067D02*
X01298Y04018D01*
X01250Y04050D02*
X01298Y04098D01*
X01250Y04124D02*
X01298Y04075D01*
X01250Y04095D02*
X01298Y04047D01*
X01250Y04265D02*
X01298Y04216D01*
X01250Y04219D02*
X01298Y04268D01*
X01250Y04237D02*
X01298Y04188D01*
X01250Y04191D02*
X01298Y04240D01*
X01250Y04248D02*
X01298Y04296D01*
X01250Y04322D02*
X01298Y04273D01*
X01250Y04293D02*
X01298Y04245D01*
X01250Y04106D02*
X01298Y04155D01*
X01250Y04180D02*
X01298Y04132D01*
X01250Y04152D02*
X01298Y04103D01*
X01250Y04208D02*
X01298Y04160D01*
X01250Y04163D02*
X01298Y04211D01*
X01250Y04134D02*
X01298Y04183D01*
X01422Y03894D02*
X01479Y03837D01*
X01357Y03796D02*
X01366Y03787D01*
X01357Y03796D02*
X01366Y03787D01*
X01250Y03812D02*
X01298Y03764D01*
X01250Y03841D02*
X01298Y03792D01*
X01250Y03795D02*
X01298Y03844D01*
X01250Y03767D02*
X01298Y03815D01*
X01372Y03781D02*
X01391Y03762D01*
X01372Y03781D02*
X01391Y03762D01*
X01428*
X01391D02*
X01428D01*
X01366Y03787D02*
X01372Y03781D01*
X01357Y03790D02*
X01360Y03793D01*
X01357Y03761D02*
X01374Y03778D01*
X01250Y03982D02*
X01298Y03934D01*
X01250Y03937D02*
X01298Y03985D01*
X01250Y03954D02*
X01298Y03905D01*
X01250Y03908D02*
X01298Y03957D01*
X01250Y03965D02*
X01298Y04013D01*
X01250Y04039D02*
X01298Y03990D01*
X01250Y04010D02*
X01298Y03962D01*
X01250Y03823D02*
X01298Y03872D01*
X01250Y03897D02*
X01298Y03849D01*
X01250Y03869D02*
X01298Y03820D01*
X01250Y03926D02*
X01298Y03877D01*
X01250Y03880D02*
X01298Y03928D01*
X01250Y03852D02*
X01298Y03900D01*
X01913Y03700D02*
X01933Y03720D01*
X01913Y03739D02*
X01933Y03720D01*
X01754Y03676D02*
X01921Y03508D01*
X01754Y03507D02*
X01913Y03667D01*
X01754Y03649D02*
X01929Y03824D01*
X01754Y03677D02*
X01915Y03838D01*
X01754Y03564D02*
X01921Y03731D01*
X01913Y03600D02*
X01933Y03620D01*
X01913Y03639D02*
X01933Y03620D01*
X01913Y03500D02*
X01933Y03520D01*
X01913Y03539D02*
X01933Y03520D01*
X01760Y03485D02*
X01914Y03639D01*
X01754Y03647D02*
X01913Y03488D01*
X01754Y03619D02*
X01913Y03460D01*
Y03739D02*
Y03800D01*
X01754Y03694D02*
Y03731D01*
Y03592D02*
X01913Y03752D01*
X01754Y03621D02*
X01913Y03780D01*
X01753Y03733D02*
X01913Y03893D01*
X01735Y03750D02*
X01754Y03731D01*
Y03705D02*
X01913Y03865D01*
Y03539D02*
Y03600D01*
Y03639D02*
Y03700D01*
X01754Y03493D02*
X01760D01*
X01754D02*
Y03694D01*
Y03704D02*
X01913Y03544D01*
X01754Y03694D02*
Y03731D01*
Y03536D02*
X01913Y03695D01*
X01760Y03457D02*
X01928Y03625D01*
X01760Y03472D02*
X01922Y03309D01*
X01908Y02700D02*
X02664Y03456D01*
X01823Y02700D02*
X02621Y03498D01*
X01754Y03591D02*
X01929Y03416D01*
X01754Y03563D02*
X01915Y03402D01*
X01759Y03371D02*
X01920Y03532D01*
X01913Y03400D02*
X01933Y03420D01*
X01913Y03439D02*
X01933Y03420D01*
X01936Y02700D02*
X02678Y03442D01*
X01759Y03360D02*
X01916Y03203D01*
X01759Y03258D02*
X01927Y03426D01*
X01759Y03230D02*
X01913Y03384D01*
X01759Y03388D02*
X01930Y03217D01*
X01760Y03429D02*
X01913Y03582D01*
Y03439D02*
Y03500D01*
X01759Y03343D02*
X01913Y03497D01*
X01760Y03416D02*
Y03493D01*
X01754Y03534D02*
X01913Y03375D01*
X01759Y03399D02*
X01913Y03554D01*
X01754Y03506D02*
X01913Y03346D01*
X01760Y03443D02*
X01913Y03290D01*
Y03339D02*
Y03400D01*
X01759Y03416D02*
X01913Y03262D01*
X01759Y03286D02*
X01913Y03441D01*
X01759Y03314D02*
X01913Y03469D01*
X01759Y03075D02*
Y03416D01*
X01647Y03981D02*
X01920Y03707D01*
X01661Y03995D02*
X01913Y03742D01*
X01609Y03962D02*
X01913Y03658D01*
X01633Y03967D02*
X01913Y03686D01*
X01581Y03962D02*
X01928Y03615D01*
X01573Y03942D02*
X01914Y03601D01*
X01546Y03940D02*
X01913Y03573D01*
X01735Y03750D02*
X01754Y03731D01*
X01683Y03416D02*
Y03437D01*
X01679Y03441D02*
X01683Y03437D01*
X01679Y03441D02*
X01683Y03437D01*
X01357Y03761D02*
X01683Y03436D01*
X01586Y03759D02*
X01679Y03666D01*
X01614Y03759D02*
X01679Y03694D01*
X01470Y03762D02*
X01679Y03553D01*
X01558Y03759D02*
X01679Y03638D01*
X01413Y03762D02*
X01679Y03496D01*
X01441Y03762D02*
X01679Y03524D01*
X01357Y03790D02*
X01679Y03468D01*
Y03441D02*
Y03478D01*
Y03694*
Y03441D02*
Y03478D01*
X01509Y03751D02*
X01679Y03581D01*
X01538Y03751D02*
X01679Y03609D01*
X01374Y03439D02*
X01654Y03719D01*
X01357Y03592D02*
X01684Y03265D01*
X01357Y03620D02*
X01684Y03293D01*
X01357Y03535D02*
X01684Y03208D01*
X01357Y03563D02*
X01684Y03237D01*
X01357Y03676D02*
X01684Y03350D01*
X01357Y03705D02*
X01684Y03378D01*
X01357Y03648D02*
X01684Y03321D01*
X01445Y03170D02*
X01684Y03409D01*
X01481Y03178D02*
X01684Y03381D01*
Y03075D02*
Y03416D01*
X01374Y03433D02*
X01684Y03123D01*
X01374Y03462D02*
X01684Y03152D01*
X01357Y03507D02*
X01684Y03180D01*
X01361Y03418D02*
X01684Y03095D01*
X01357Y03733D02*
X01684Y03406D01*
X01354Y03306D02*
X01679Y03631D01*
X01360Y03255D02*
X01679Y03574D01*
X01354Y03277D02*
X01679Y03602D01*
X01354Y03362D02*
X01679Y03687D01*
X01354Y03391D02*
X01668Y03705D01*
X01354Y03334D02*
X01679Y03659D01*
X01417Y03199D02*
X01679Y03461D01*
X01402Y03213D02*
X01679Y03489D01*
X01431Y03184D02*
X01683Y03436D01*
X01388Y03227D02*
X01679Y03517D01*
X01374Y03241D02*
X01679Y03546D01*
X01354Y03397D02*
X01680Y03071D01*
X01913Y03300D02*
X01933Y03320D01*
X01913Y03339D02*
X01933Y03320D01*
X01913Y03200D02*
X01933Y03220D01*
X01913Y03239D02*
X01933Y03220D01*
X01759Y03275D02*
X01923Y03110D01*
X01759Y03173D02*
X01919Y03333D01*
X01759Y03060D02*
X01926Y03227D01*
X01913Y03100D02*
X01933Y03120D01*
X01913Y03039D02*
Y03100D01*
Y03000D02*
X01933Y03020D01*
X01913Y03039D02*
X01933Y03020D01*
X01913Y03139D02*
X01933Y03120D01*
X01759Y03190D02*
X01931Y03018D01*
X01759Y03162D02*
X01917Y03004D01*
X01759Y03145D02*
X01913Y03299D01*
Y03239D02*
Y03300D01*
X01759Y03247D02*
X01913Y03092D01*
X01759Y03116D02*
X01913Y03271D01*
X01759Y03331D02*
X01913Y03177D01*
X01759Y03201D02*
X01913Y03356D01*
X01759Y03303D02*
X01913Y03148D01*
X01759Y03218D02*
X01913Y03064D01*
Y03139D02*
Y03200D01*
X01759Y03038D02*
Y03075D01*
Y03038D02*
Y03075D01*
Y03088D02*
X01913Y03243D01*
X01740Y03019D02*
X01759Y03038D01*
X01740Y03019D02*
X01759Y03038D01*
Y03077D02*
X01980Y02856D01*
X01759Y03049D02*
X01969Y02838D01*
X01794Y02700D02*
X02003Y02908D01*
X01766Y02700D02*
X01975Y02908D01*
X01736Y03015D02*
X02051Y02700D01*
X01738D02*
X01947Y02908D01*
X01750Y03029D02*
X02080Y02700D01*
X01903Y02593D02*
X01977Y02520D01*
X01897D02*
X01971Y02593D01*
X01932D02*
X02005Y02520D01*
X01926D02*
X01999Y02593D01*
X01879Y02700D02*
X01993Y02813D01*
X01851Y02700D02*
X01972Y02821D01*
X01875Y02593D02*
X01948Y02520D01*
X01913Y02939D02*
X01944Y02908D01*
X01913Y02939D02*
Y03000D01*
X01784Y02520D02*
X01857Y02593D01*
X01762D02*
X01835Y02520D01*
X01759Y03105D02*
X01913Y02950D01*
X01759Y03133D02*
X01913Y02979D01*
X01756Y02520D02*
X01829Y02593D01*
X01847D02*
X01920Y02520D01*
X01841D02*
X01914Y02593D01*
X01869Y02520D02*
X01942Y02593D01*
X01812Y02520D02*
X01886Y02593D01*
X01790D02*
X01864Y02520D01*
X01819Y02593D02*
X01892Y02520D01*
X01540Y02700D02*
X01913Y03073D01*
X01465Y02710D02*
X01913Y03158D01*
X01596Y02700D02*
X01925Y03028D01*
X01568Y02700D02*
X01913Y03045D01*
X01451Y02724D02*
X01913Y03186D01*
X01250Y02749D02*
X01684Y03183D01*
X01451Y02724D02*
X01913Y03186D01*
X01578Y02890D02*
X01768Y02700D01*
X01630Y02909D02*
X01740Y03019D01*
X01625Y02700D02*
X01913Y02988D01*
X01623Y02902D02*
X01825Y02700D01*
X01519D02*
X02751D01*
X01529Y02882D02*
X01712Y02700D01*
X01549Y02890D02*
X01740Y02700D01*
X01568Y03123D02*
X01684Y03240D01*
X01568Y03152D02*
X01684Y03268D01*
X01568Y03095D02*
X01684Y03211D01*
X01568Y03155D02*
X01666Y03057D01*
X01537Y03178D02*
X01684Y03324D01*
X01509Y03178D02*
X01684Y03353D01*
X01566Y03178D02*
X01684Y03296D01*
X01551Y02965D02*
X01684Y03098D01*
X01531Y02973D02*
X01684Y03126D01*
X01574Y02965D02*
X01684Y03075D01*
X01502Y02973D02*
X01684Y03155D01*
X01250Y03105D02*
X01655Y02700D01*
X01501Y02882D02*
X01684Y02700D01*
X01694Y02972D02*
X01966Y02700D01*
X01679Y02958D02*
X01938Y02700D01*
X01722Y03001D02*
X02023Y02700D01*
X01708Y02986D02*
X01995Y02700D01*
X01479Y02696D02*
X01918Y03134D01*
X01653Y02700D02*
X01913Y02960D01*
X01480Y02668D02*
X01932Y03120D01*
X01665Y02944D02*
X01910Y02700D01*
X01651Y02930D02*
X01882Y02700D01*
X01710D02*
X01931Y02921D01*
X01681Y02700D02*
X01917Y02935D01*
X01519Y02593D02*
X02751D01*
X01637Y02916D02*
X01853Y02700D01*
X01250Y02520D02*
X03085D01*
X01621Y02593D02*
X01694Y02520D01*
X01614D02*
X01688Y02593D01*
X01649D02*
X01722Y02520D01*
X01643D02*
X01716Y02593D01*
X01606Y02890D02*
X01797Y02700D01*
X01586Y02520D02*
X01659Y02593D01*
X01592D02*
X01666Y02520D01*
X01728D02*
X01801Y02593D01*
X01705D02*
X01779Y02520D01*
X01734Y02593D02*
X01807Y02520D01*
X01677Y02593D02*
X01750Y02520D01*
X01671D02*
X01744Y02593D01*
X01699Y02520D02*
X01773Y02593D01*
X01357Y03563D02*
X01552Y03759D01*
X01357Y03648D02*
X01471Y03762D01*
X01357Y03507D02*
X01609Y03759D01*
X01357Y03535D02*
X01581Y03759D01*
X01357Y03705D02*
X01414Y03762D01*
X01357Y03733D02*
X01388Y03764D01*
X01357Y03677D02*
X01443Y03762D01*
X01365Y03486D02*
X01626Y03747D01*
X01357Y03494D02*
X01374Y03478D01*
Y03467D02*
X01640Y03733D01*
X01374Y03431D02*
Y03478D01*
X01357Y03592D02*
X01516Y03751D01*
X01357Y03620D02*
X01492Y03755D01*
X01354Y03411D02*
X01374Y03431D01*
X01357Y03494D02*
Y03796D01*
X01298Y03494D02*
Y04498D01*
X01354Y03261D02*
Y03411D01*
X01295Y03261D02*
Y03418D01*
X01281Y03478D02*
X01298Y03494D01*
X01281Y03431D02*
Y03478D01*
Y03431D02*
X01295Y03418D01*
X01250Y03258D02*
X01295Y03303D01*
X01250Y03303D02*
X01295Y03258D01*
Y03231D02*
Y03261D01*
Y03231D02*
Y03261D01*
X01250Y03332D02*
X01295Y03286D01*
X01250Y03314D02*
X01295Y03360D01*
X01250Y03286D02*
X01295Y03331D01*
X01461Y03178D02*
X01568D01*
X01354Y03312D02*
X01488Y03178D01*
X01568Y03126D02*
X01651Y03043D01*
X01568Y03071D02*
Y03178D01*
X01354Y03368D02*
X01545Y03178D01*
X01354Y03340D02*
X01516Y03178D01*
X01250Y03275D02*
X01559Y02965D01*
X01568Y03098D02*
X01637Y03029D01*
X01566Y03071D02*
X01623Y03014D01*
X01538Y03071D02*
X01609Y03000D01*
X01510Y03071D02*
X01595Y02986D01*
X01461Y03071D02*
X01568D01*
X01461D02*
Y03097D01*
X01481Y03071D02*
X01581Y02972D01*
X01354Y03284D02*
X01461Y03176D01*
X01354Y03261D02*
X01459Y03156D01*
X01461D02*
Y03178D01*
X01310Y03217D02*
X01415Y03112D01*
X01295Y03231D02*
X01310Y03217D01*
X01250Y03229D02*
X01295Y03275D01*
Y03231D02*
X01310Y03217D01*
X01459Y03156D02*
X01461Y03158D01*
X01430Y03097D02*
X01459D01*
X01456D02*
X01461Y03091D01*
X01415Y03112D02*
X01430Y03097D01*
X01415Y03112D02*
X01430Y03097D01*
X01459*
X01250Y03597D02*
X01298Y03646D01*
X01250Y03671D02*
X01298Y03622D01*
X01250Y03569D02*
X01298Y03617D01*
X01250Y03643D02*
X01298Y03594D01*
X01250Y03699D02*
X01298Y03651D01*
X01250Y03654D02*
X01298Y03702D01*
X01250Y03625D02*
X01298Y03674D01*
X01250Y03558D02*
X01298Y03509D01*
X01250Y03512D02*
X01298Y03561D01*
X01250Y03456D02*
X01298Y03504D01*
X01250Y03484D02*
X01298Y03533D01*
X01250Y03541D02*
X01298Y03589D01*
X01250Y03614D02*
X01298Y03566D01*
X01250Y03586D02*
X01298Y03538D01*
X01250Y03682D02*
X01298Y03731D01*
X01250Y03756D02*
X01298Y03707D01*
X01250Y03728D02*
X01298Y03679D01*
X01250Y03530D02*
X01291Y03488D01*
X01250Y03784D02*
X01298Y03736D01*
X01250Y03739D02*
X01298Y03787D01*
X01250Y03710D02*
X01298Y03759D01*
X01250Y03445D02*
X01295Y03399D01*
X01250Y03399D02*
X01282Y03431D01*
X01250Y03416D02*
X01295Y03371D01*
X01250Y03473D02*
X01281Y03441D01*
X01250Y03501D02*
X01281Y03469D01*
X01250Y03427D02*
X01281Y03459D01*
X01250Y02947D02*
X01415Y03112D01*
X01250Y02975D02*
X01401Y03126D01*
X01250Y03134D02*
X01469Y02914D01*
X01250Y03162D02*
X01469Y02942D01*
X01250Y03247D02*
X01523Y02973D01*
X01250Y03218D02*
X01495Y02973D01*
X01250Y03190D02*
X01479Y02961D01*
X01250Y02833D02*
X01487Y03071D01*
X01250Y02862D02*
X01461Y03073D01*
X01250Y02777D02*
X01544Y03071D01*
X01250Y02805D02*
X01516Y03071D01*
X01250Y02890D02*
X01456Y03097D01*
X01250Y02918D02*
X01429Y03098D01*
X01250Y03077D02*
X01627Y02700D01*
X01250Y03360D02*
X01295Y03314D01*
X01250Y03343D02*
X01295Y03388D01*
X01250Y03173D02*
X01302Y03225D01*
X01250Y03201D02*
X01295Y03247D01*
X01250Y03388D02*
X01295Y03343D01*
X01250Y03371D02*
X01295Y03416D01*
X01250Y02520D02*
Y05000D01*
Y03031D02*
X01372Y03154D01*
X01250Y03060D02*
X01358Y03168D01*
X01250Y03003D02*
X01386Y03140D01*
X01250Y03116D02*
X01330Y03197D01*
X01250Y03145D02*
X01316Y03211D01*
X01250Y03088D02*
X01344Y03182D01*
X01545Y02965D02*
X01574D01*
X01537Y02973D02*
X01545Y02965D01*
X01611Y02890D02*
X01630Y02909D01*
X01611Y02890D02*
X01630Y02909D01*
X01492Y02973D02*
X01537D01*
X01574Y02890D02*
X01611D01*
X01545D02*
X01574D01*
X01611*
X01537Y02882D02*
X01545Y02890D01*
X01406Y02735D02*
X01561Y02890D01*
X01492Y02882D02*
X01537D01*
X01434Y02735D02*
X01589Y02890D01*
X01469Y02950D02*
X01492Y02973D01*
X01469Y02905D02*
X01492Y02882D01*
X01469Y02905D02*
Y02950D01*
X01400Y02735D02*
X01440D01*
X01422D02*
X01426Y02731D01*
X01429Y02730D02*
X01434Y02735D01*
X01473Y02689D02*
X01479Y02696D01*
X01462Y02706D02*
X01465Y02710D01*
X01476Y02681D02*
X01480Y02677D01*
X01447Y02720D02*
X01451Y02724D01*
X01447Y02720D02*
X01451Y02724D01*
X01440Y02735D02*
X01480Y02695D01*
Y02648D02*
X01519Y02610D01*
X01480Y02677D02*
X01519Y02638D01*
X01480Y02620D02*
X01581Y02520D01*
X01519Y02593D02*
Y02700D01*
X01445Y02520D02*
X01519Y02594D01*
X01416Y02520D02*
X01519Y02622D01*
X01469Y02603D02*
X01552Y02520D01*
X01536Y02593D02*
X01609Y02520D01*
X01530D02*
X01603Y02593D01*
X01564D02*
X01637Y02520D01*
X01558D02*
X01631Y02593D01*
X01473Y02520D02*
X01546Y02593D01*
X01455Y02589D02*
X01524Y02520D01*
X01501D02*
X01575Y02593D01*
X01480Y02640D02*
X01519Y02679D01*
X01480Y02655D02*
Y02695D01*
Y02614D02*
Y02655D01*
X01475Y02625D02*
X01480Y02620D01*
X01440Y02574D02*
X01480Y02614D01*
X01465Y02607D02*
X01469Y02603D01*
X01451Y02592D02*
X01455Y02589D01*
X01441Y02575D02*
X01496Y02520D01*
X01434Y02581D02*
X01441Y02575D01*
X01400Y02574D02*
X01440D01*
X01413D02*
X01468Y02520D01*
X01250Y02964D02*
X01519Y02694D01*
X01250Y02720D02*
X01469Y02940D01*
X01250Y02936D02*
X01519Y02666D01*
X01250Y02692D02*
X01469Y02912D01*
X01250Y03049D02*
X01599Y02700D01*
X01250Y03020D02*
X01570Y02700D01*
X01250Y02992D02*
X01542Y02700D01*
X01378Y02735D02*
X01525Y02882D01*
X01359Y02735D02*
X01400D01*
X01373Y02731D02*
X01378Y02735D01*
X01250Y02907D02*
X01422Y02735D01*
X01250Y02879D02*
X01393Y02735D01*
X01250Y02664D02*
X01480Y02894D01*
X01365Y02735D02*
X01370Y02730D01*
X01250Y02766D02*
X01320Y02696D01*
X01319Y02695D02*
X01359Y02735D01*
X01250Y02738D02*
X01319Y02668D01*
X01250Y02851D02*
X01365Y02735D01*
X01250Y02822D02*
X01348Y02724D01*
X01250Y02794D02*
X01334Y02710D01*
X01348Y02724D02*
X01352Y02720D01*
X01334Y02710D02*
X01337Y02706D01*
X01320Y02696D02*
X01326Y02689D01*
X01319Y02676D02*
X01323Y02681D01*
X01319Y02655D02*
Y02695D01*
X01250Y02709D02*
X01319Y02640D01*
Y02614D02*
X01359Y02574D01*
X01388Y02520D02*
X01519Y02650D01*
X01250Y02624D02*
X01354Y02520D01*
X01250Y02635D02*
X01496Y02882D01*
X01250Y02681D02*
X01411Y02520D01*
X01250Y02653D02*
X01383Y02520D01*
X01359Y02574D02*
X01400D01*
X01358Y02575D02*
X01365Y02581D01*
X01385Y02574D02*
X01439Y02520D01*
X01360D02*
X01414Y02574D01*
X01303Y02520D02*
X01358Y02575D01*
X01344Y02589D02*
X01348Y02592D01*
X01332Y02520D02*
X01386Y02574D01*
X01319Y02620D02*
X01324Y02625D01*
X01319Y02614D02*
Y02655D01*
X01330Y02603D02*
X01334Y02607D01*
X01330Y02603D02*
X01334Y02607D01*
X01250Y02579D02*
X01319Y02648D01*
X01250Y02607D02*
X01319Y02676D01*
X01250Y02551D02*
X01319Y02620D01*
X01250Y02568D02*
X01298Y02520D01*
X01250Y02540D02*
X01270Y02520D01*
X01275D02*
X01344Y02589D01*
X01250Y02522D02*
X01330Y02603D01*
X01250Y02522D02*
X01330Y02603D01*
X01250Y02596D02*
X01326Y02520D01*
G54D29*
X01680Y04595D02*
X02255D01*
X02385Y04465*
Y03780D02*
Y04465D01*
X01630Y04645D02*
X01680Y04595D01*
X01630Y04645D02*
Y04696D01*
X01385D02*
X01630D01*
X01325Y03246D02*
Y03451D01*
Y03246D02*
X01444Y03126D01*
X01513*
X01515Y03125*
X01325Y03451D02*
X01328Y03455D01*
Y04513D02*
X01385Y04570D01*
X01328Y03455D02*
Y04513D01*
X01385Y04570D02*
Y04696D01*
X02385Y03780D02*
X02895Y03270D01*
X02975*
G54D30*
X01610Y04000D02*
X01655Y04045D01*
X01526Y04000D02*
X01610D01*
X01655Y04045D02*
Y04275D01*
X01630Y04300D02*
Y04303D01*
X01520Y03993D02*
X01526Y04000D01*
X01630Y04300D02*
X01655Y04275D01*
X01716Y03460D02*
Y03713D01*
X01633Y03796D02*
X01716Y03713D01*
X01520Y03796D02*
X01633D01*
X01516Y03800D02*
X01520Y03796D01*
X01515Y02928D02*
X01593D01*
X01721Y03056D02*
Y03455D01*
X01593Y02928D02*
X01721Y03056D01*
X01410Y03800D02*
X01516D01*
X01385Y03825D02*
Y04303D01*
Y03825D02*
X01410Y03800D01*
X01716Y03460D02*
X01721Y03455D01*
X01610Y04405D02*
X01690D01*
X01820Y04275*
X01385Y04303D02*
X01508D01*
X01610Y04405*
X01820Y04275D02*
X01970D01*
X01975Y04270*
M02*